 0
SECTION
 2
HEADER
 9
$ACADVER
	1
AC1006
 9
$TEXTSTYLE
 7
style1
 9
$CLAYER
	8
Layout
 0
ENDSEC
 0
SECTION
 2
TABLES
 0
TABLE
 2
LAYER
 0
LAYER
 2
Layout
 70
64
 62
7
 6
CONTINUOUS
 0
ENDTAB
 0
TABLE
 2
LAYER
 0
LAYER
 2
Columns
 70
64
 62
7
 6
CONTINUOUS
 0
ENDTAB
 0
TABLE
 2
LAYER
 0
LAYER
 2
Schedule
 70
64
 62
7
 6
CONTINUOUS
 0
ENDTAB
 0
TABLE
 2
LAYER
 0
LAYER
 2
CenterLine
 70
64
 62
253
 6
CONTINUOUS
 0
ENDTAB
 0
TABLE
 2
LAYER
 0
LAYER
 2
Columns
 70
64
 62
6
 6
CONTINUOUS
 0
ENDTAB
 0
TABLE
 2
LAYER
 0
LAYER
 2
Column_Name
 70
64
 62
6
 6
CONTINUOUS
 0
ENDTAB
 0
TABLE
 2
LAYER
 0
LAYER
 2
Column_Group
 70
64
 62
2
 6
CONTINUOUS
 0
ENDTAB
 0
TABLE
 2
LAYER
 0
LAYER
 2
Column_Dimensions
 70
64
 62
6
 6
CONTINUOUS
 0
ENDTAB
 0
TABLE
 2
LAYER
 0
LAYER
 2
Beam_Name
 70
64
 62
3
 6
CONTINUOUS
 0
ENDTAB
 0
TABLE
 2
LAYER
 0
LAYER
 2
Beam_Dimensions
 70
64
 62
3
 6
CONTINUOUS
 0
ENDTAB
 0
TABLE
 2
LAYER
 0
LAYER
 2
Layout
 70
64
 62
2
 6
CONTINUOUS
 0
ENDTAB
 0
TABLE
 2
LAYER
 0
LAYER
 2
Schedule
 70
64
 62
3
 6
CONTINUOUS
 0
ENDTAB
 0
TABLE
 2
LAYER
 0
LAYER
 2
Slab_Thick
 70
64
 62
4
 6
CONTINUOUS
 0
ENDTAB
 0
TABLE
 2
LAYER
 0
LAYER
 2
Slab_Sunk_Value
 70
64
 62
4
 6
CONTINUOUS
 0
ENDTAB
 0
TABLE
 2
LAYER
 0
LAYER
 2
Slab_Icon
 70
64
 62
6
 6
CONTINUOUS
 0
ENDTAB
 0
TABLE
 2
LAYER
 0
LAYER
 2
Slab_Name
 70
64
 62
7
 6
CONTINUOUS
 0
ENDTAB
 0
TABLE
 2
LAYER
 0
LAYER
 2
Grid_Dimension
 70
64
 62
7
 6
CONTINUOUS
 0
ENDTAB
 0
TABLE
 2
LAYER
 0
LAYER
 2
GridName
 70
64
 62
7
 6
CONTINUOUS
 0
ENDTAB
 0
TABLE
 2
LAYER
 0
LAYER
 2
Shearwall
 70
64
 62
7
 6
CONTINUOUS
 0
ENDTAB
 0
TABLE
 2
LAYER
 0
LAYER
 2
XLeftBottom_Steel
 70
64
 62
4
 6
CONTINUOUS
 0
ENDTAB
 0
TABLE
 2
LAYER
 0
LAYER
 2
XMidBottom_Steel
 70
64
 62
4
 6
CONTINUOUS
 0
ENDTAB
 0
TABLE
 2
LAYER
 0
LAYER
 2
XRightBottom_Steel
 70
64
 62
4
 6
CONTINUOUS
 0
ENDTAB
 0
TABLE
 2
LAYER
 0
LAYER
 2
YLeftBottom_Steel
 70
64
 62
4
 6
CONTINUOUS
 0
ENDTAB
 0
TABLE
 2
LAYER
 0
LAYER
 2
YMidBottom_Steel
 70
64
 62
4
 6
CONTINUOUS
 0
ENDTAB
 0
TABLE
 2
LAYER
 0
LAYER
 2
YRightBottom_Steel
 70
64
 62
4
 6
CONTINUOUS
 0
ENDTAB
 0
TABLE
 2
LAYER
 0
LAYER
 2
AngleLeftBottom_Steel
 70
64
 62
4
 6
CONTINUOUS
 0
ENDTAB
 0
TABLE
 2
LAYER
 0
LAYER
 2
AngleMidBottom_Steel
 70
64
 62
4
 6
CONTINUOUS
 0
ENDTAB
 0
TABLE
 2
LAYER
 0
LAYER
 2
AngleRightBottom_Steel
 70
64
 62
4
 6
CONTINUOUS
 0
ENDTAB
 0
TABLE
 2
LAYER
 0
LAYER
 2
XLeftTop_Steel
 70
64
 62
4
 6
CONTINUOUS
 0
ENDTAB
 0
TABLE
 2
LAYER
 0
LAYER
 2
XMidTop_Steel
 70
64
 62
4
 6
CONTINUOUS
 0
ENDTAB
 0
TABLE
 2
LAYER
 0
LAYER
 2
XRightTop_Steel
 70
64
 62
4
 6
CONTINUOUS
 0
ENDTAB
 0
TABLE
 2
LAYER
 0
LAYER
 2
YLeftTop_Steel
 70
64
 62
4
 6
CONTINUOUS
 0
ENDTAB
 0
TABLE
 2
LAYER
 0
LAYER
 2
YMidTop_Steel
 70
64
 62
4
 6
CONTINUOUS
 0
ENDTAB
 0
TABLE
 2
LAYER
 0
LAYER
 2
YRightTop_Steel
 70
64
 62
4
 6
CONTINUOUS
 0
ENDTAB
 0
TABLE
 2
LAYER
 0
LAYER
 2
AngleLeftTop_Steel
 70
64
 62
4
 6
CONTINUOUS
 0
ENDTAB
 0
TABLE
 2
LAYER
 0
LAYER
 2
AngleMidTop_Steel
 70
64
 62
4
 6
CONTINUOUS
 0
ENDTAB
 0
TABLE
 2
LAYER
 0
LAYER
 2
AngleRightTop_Steel
 70
64
 62
4
 6
CONTINUOUS
 0
ENDTAB
 0
TABLE
 2
LAYER
 0
LAYER
 2
XLeftBM
 70
64
 62
4
 6
CONTINUOUS
 0
ENDTAB
 0
TABLE
 2
LAYER
 0
LAYER
 2
XMidBM
 70
64
 62
4
 6
CONTINUOUS
 0
ENDTAB
 0
TABLE
 2
LAYER
 0
LAYER
 2
XRightBM
 70
64
 62
4
 6
CONTINUOUS
 0
ENDTAB
 0
TABLE
 2
LAYER
 0
LAYER
 2
YLeftBM
 70
64
 62
4
 6
CONTINUOUS
 0
ENDTAB
 0
TABLE
 2
LAYER
 0
LAYER
 2
YMidBM
 70
64
 62
4
 6
CONTINUOUS
 0
ENDTAB
 0
TABLE
 2
LAYER
 0
LAYER
 2
YRightBM
 70
64
 62
4
 6
CONTINUOUS
 0
ENDTAB
 0
TABLE
 2
LAYER
 0
LAYER
 2
AngleLeftBM
 70
64
 62
4
 6
CONTINUOUS
 0
ENDTAB
 0
TABLE
 2
LAYER
 0
LAYER
 2
AngleMidBM
 70
64
 62
4
 6
CONTINUOUS
 0
ENDTAB
 0
TABLE
 2
LAYER
 0
LAYER
 2
AngleRightBM
 70
64
 62
4
 6
CONTINUOUS
 0
ENDTAB
 0
TABLE
 2
LAYER
 0
LAYER
 2
XLeftSF
 70
64
 62
4
 6
CONTINUOUS
 0
ENDTAB
 0
TABLE
 2
LAYER
 0
LAYER
 2
XMidSF
 70
64
 62
4
 6
CONTINUOUS
 0
ENDTAB
 0
TABLE
 2
LAYER
 0
LAYER
 2
XRightSF
 70
64
 62
4
 6
CONTINUOUS
 0
ENDTAB
 0
TABLE
 2
LAYER
 0
LAYER
 2
YLeftSF
 70
64
 62
4
 6
CONTINUOUS
 0
ENDTAB
 0
TABLE
 2
LAYER
 0
LAYER
 2
YMidSF
 70
64
 62
4
 6
CONTINUOUS
 0
ENDTAB
 0
TABLE
 2
LAYER
 0
LAYER
 2
YRightSF
 70
64
 62
4
 6
CONTINUOUS
 0
ENDTAB
 0
TABLE
 2
LAYER
 0
LAYER
 2
AngleLeftSF
 70
64
 62
4
 6
CONTINUOUS
 0
ENDTAB
 0
TABLE
 2
LAYER
 0
LAYER
 2
AngleMidSF
 70
64
 62
4
 6
CONTINUOUS
 0
ENDTAB
 0
TABLE
 2
LAYER
 0
LAYER
 2
AngleRightSF
 70
64
 62
4
 6
CONTINUOUS
 0
ENDTAB
 0
TABLE
 2
LAYER
 0
LAYER
 2
Title
 70
64
 62
1
 6
CONTINUOUS
 0
ENDTAB
0
TABLE
2
STYLE
100
AcDbSymbolTable
70
10
0
STYLE
100
AcDbSymbolTableRecord
100
AcDbTextStyleTableRecord
2
stylebar
70
0
40
0.040
41
1.000
50
0
71
0
42
0.2
3
ARIAL.TTF
4

0
STYLE
100
AcDbSymbolTableRecord
100
AcDbTextStyleTableRecord
2
styledl
70
0
40
0.040
41
1.000
50
0
71
0
42
0.2
3
ARIAL.TTF
4

0
STYLE
100
AcDbSymbolTableRecord
100
AcDbTextStyleTableRecord
2
styledim
70
0
40
0.050
41
1.000
50
0
71
0
42
0.2
3
ARIAL.TTF
4

0
STYLE
100
AcDbSymbolTableRecord
100
AcDbTextStyleTableRecord
2
STRUDS_Arial
70
0
40
0.040
41
1.000
50
0
71
0
42
0.2
3
ARIAL.TTF
4

0
STYLE
100
AcDbSymbolTableRecord
100
AcDbTextStyleTableRecord
2
STRUDS_Bookman
70
0
40
0.040
41
1.000
50
0
71
0
42
0.2
3
BOOKOS.TTF
4

0
STYLE
100
AcDbSymbolTableRecord
100
AcDbTextStyleTableRecord
2
STRUDS_Comic
70
0
40
0.040
41
1.000
50
0
71
0
42
0.2
3
COMIC.TTF
4

0
STYLE
100
AcDbSymbolTableRecord
100
AcDbTextStyleTableRecord
2
STRUDS_Georgia
70
0
40
0.040
41
1.000
50
0
71
0
42
0.2
3
GEORGIA.TTF
4

0
STYLE
100
AcDbSymbolTableRecord
100
AcDbTextStyleTableRecord
2
STRUDS_Tahoma
70
0
40
0.040
41
1.000
50
0
71
0
42
0.2
3
TAHOMA.TTF
4

0
STYLE
100
AcDbSymbolTableRecord
100
AcDbTextStyleTableRecord
2
STRUDS_TimesNewRoman
70
0
40
0.040
41
1.000
50
0
71
0
42
0.2
3
TIMES.TTF
4

0
STYLE
100
AcDbSymbolTableRecord
100
AcDbTextStyleTableRecord
2
STRUDS_Verdana
70
0
40
0.040
41
1.000
50
0
71
0
42
0.2
3
VERDANA.TTF
4

0
ENDTAB
0
TABLE
2
LTYPE
100
AcDbSymbolTable
70
2
0
LTYPE
100
AcDbSymbolTableRecord
100
AcDbLinetypeTableRecord
2
ACAD_ISO02W100
70
0
3
ISO dash _ _ _
72
65
73
2
40
15
49
12
49
-3
0
ENDTAB
 0
ENDSEC
 0
SECTION
 2
ENTITIES
  0
LINE
  8
Layout
 10
31.5255
 20
47.6881
 11
33.7202
 21
47.6881
  0
LINE
  8
Layout
 10
31.5255
 20
47.9773
 11
33.7202
 21
47.9773
  0
LINE
  8
Layout
 10
34.0265
 20
47.9773
 11
34.0265
 21
52.1796
  0
LINE
  8
Layout
 10
33.7202
 20
47.9773
 11
33.7202
 21
52.4858
  0
LINE
  8
Layout
 10
31.5255
 20
55.225
 11
33.7202
 21
55.225
  0
LINE
  8
Layout
 10
31.2193
 20
55.5142
 11
34.0265
 21
55.5142
  0
LINE
  8
Layout
 10
31.5255
 20
47.9773
 11
31.5255
 21
55.225
  0
LINE
  8
Layout
 10
31.2193
 20
47.6881
 11
31.2193
 21
55.5142
  0
LINE
  8
Layout
 10
34.0265
 20
52.4858
 11
34.0265
 21
55.225
  0
LINE
  8
Layout
 10
33.7202
 20
52.1796
 11
33.7202
 21
55.225
  0
LINE
  8
Layout
 10
34.0265
 20
52.1796
 11
36.2552
 21
52.1796
  0
LINE
  8
Layout
 10
34.0265
 20
52.4858
 11
36.2552
 21
52.4858
  0
LINE
  8
Layout
 10
36.5614
 20
52.4858
 11
36.5614
 21
55.225
  0
LINE
  8
Layout
 10
36.2552
 20
52.4858
 11
36.2552
 21
55.225
  0
LINE
  8
Layout
 10
34.0265
 20
55.225
 11
36.2552
 21
55.225
  0
LINE
  8
Layout
 10
33.7202
 20
55.5142
 11
36.5614
 21
55.5142
  0
LINE
  8
Layout
 10
34.0265
 20
47.6881
 11
36.5614
 21
47.6881
  0
LINE
  8
Layout
 10
34.0265
 20
47.9773
 11
36.2552
 21
47.9773
  0
LINE
  8
Layout
 10
36.5614
 20
47.9773
 11
36.5614
 21
52.1796
  0
LINE
  8
Layout
 10
36.2552
 20
47.9773
 11
36.2552
 21
52.1796
  0
LINE
  8
Layout
 10
36.5614
 20
52.1796
 11
38.8072
 21
52.1796
  0
LINE
  8
Layout
 10
36.5614
 20
52.4858
 11
38.8072
 21
52.4858
  0
LINE
  8
Layout
 10
39.0964
 20
52.4858
 11
39.0964
 21
55.225
  0
LINE
  8
Layout
 10
38.8072
 20
52.4858
 11
38.8072
 21
55.225
  0
LINE
  8
Layout
 10
36.5614
 20
55.225
 11
38.8072
 21
55.225
  0
LINE
  8
Layout
 10
36.2552
 20
55.5142
 11
39.0964
 21
55.5142
  0
LINE
  8
Layout
 10
39.0964
 20
52.1796
 11
41.3422
 21
52.1796
  0
LINE
  8
Layout
 10
39.0964
 20
52.4858
 11
41.3422
 21
52.4858
  0
LINE
  8
Layout
 10
41.6314
 20
52.1796
 11
41.6314
 21
55.225
  0
LINE
  8
Layout
 10
41.3422
 20
52.4858
 11
41.3422
 21
55.225
  0
LINE
  8
Layout
 10
39.0964
 20
55.225
 11
41.3422
 21
55.225
  0
LINE
  8
Layout
 10
38.8072
 20
55.5142
 11
41.6314
 21
55.5142
  0
LINE
  8
Layout
 10
36.2552
 20
47.6881
 11
39.0964
 21
47.6881
  0
LINE
  8
Layout
 10
36.5614
 20
47.9773
 11
38.8072
 21
47.9773
  0
LINE
  8
Layout
 10
39.0964
 20
47.9773
 11
39.0964
 21
52.1796
  0
LINE
  8
Layout
 10
38.8072
 20
47.9773
 11
38.8072
 21
52.1796
  0
LINE
  8
Layout
 10
38.8072
 20
47.6881
 11
41.3422
 21
47.6881
  0
LINE
  8
Layout
 10
39.0964
 20
47.9773
 11
41.3422
 21
47.9773
  0
LINE
  8
Layout
 10
41.6314
 20
47.9773
 11
41.6314
 21
52.4858
  0
LINE
  8
Layout
 10
41.3422
 20
47.9773
 11
41.3422
 21
52.1796
  0
LINE
  8
Layout
 10
41.6314
 20
47.6881
 11
45.8677
 21
47.6881
  0
LINE
  8
Layout
 10
41.6314
 20
47.9773
 11
45.8677
 21
47.9773
  0
LINE
  8
Layout
 10
46.1739
 20
47.9773
 11
46.1739
 21
55.225
  0
LINE
  8
Layout
 10
45.8677
 20
47.9773
 11
45.8677
 21
55.225
  0
LINE
  8
Layout
 10
41.6314
 20
55.225
 11
45.8677
 21
55.225
  0
LINE
  8
Layout
 10
41.3422
 20
55.5142
 11
46.1739
 21
55.5142
  0
LINE
  8
Layout
 10
46.1739
 20
47.6881
 11
50.3932
 21
47.6881
  0
LINE
  8
Layout
 10
46.1739
 20
47.9773
 11
50.3932
 21
47.9773
  0
LINE
  8
Layout
 10
50.6994
 20
47.9773
 11
50.6994
 21
55.225
  0
LINE
  8
Layout
 10
50.3932
 20
47.9773
 11
50.3932
 21
55.225
  0
LINE
  8
Layout
 10
46.1739
 20
55.225
 11
50.3932
 21
55.225
  0
LINE
  8
Layout
 10
45.8677
 20
55.5142
 11
50.6994
 21
55.5142
  0
LINE
  8
Layout
 10
50.6994
 20
47.6881
 11
54.7316
 21
47.6881
  0
LINE
  8
Layout
 10
50.6994
 20
47.9773
 11
54.7316
 21
47.9773
  0
LINE
  8
Layout
 10
55.0378
 20
47.9773
 11
55.0378
 21
55.225
  0
LINE
  8
Layout
 10
54.7316
 20
47.9773
 11
54.7316
 21
55.225
  0
LINE
  8
Layout
 10
50.6994
 20
55.225
 11
54.7316
 21
55.225
  0
LINE
  8
Layout
 10
50.3932
 20
55.5142
 11
55.0378
 21
55.5142
  0
LINE
  8
Layout
 10
55.0378
 20
47.6881
 11
59.087
 21
47.6881
  0
LINE
  8
Layout
 10
55.0378
 20
47.9773
 11
59.087
 21
47.9773
  0
LINE
  8
Layout
 10
59.3762
 20
47.9773
 11
59.3762
 21
51.448
  0
LINE
  8
Layout
 10
59.087
 20
47.9773
 11
59.087
 21
51.7543
  0
LINE
  8
Layout
 10
55.0378
 20
55.225
 11
59.087
 21
55.225
  0
LINE
  8
Layout
 10
54.7316
 20
55.5142
 11
59.3762
 21
55.5142
  0
LINE
  8
Layout
 10
59.3762
 20
47.6881
 11
65.3989
 21
47.6881
  0
LINE
  8
Layout
 10
59.3762
 20
47.9773
 11
65.3989
 21
47.9773
  0
LINE
  8
Layout
 10
65.7051
 20
47.6881
 11
65.7051
 21
51.7543
  0
LINE
  8
Layout
 10
65.3989
 20
47.9773
 11
65.3989
 21
51.448
  0
LINE
  8
Layout
 10
59.3762
 20
51.7543
 11
59.3762
 21
55.225
  0
LINE
  8
Layout
 10
59.087
 20
51.448
 11
59.087
 21
55.225
  0
LINE
  8
Layout
 10
59.3762
 20
51.448
 11
65.3989
 21
51.448
  0
LINE
  8
Layout
 10
59.3762
 20
51.7543
 11
65.3989
 21
51.7543
  0
LINE
  8
Layout
 10
65.7051
 20
51.448
 11
65.7051
 21
55.5142
  0
LINE
  8
Layout
 10
65.3989
 20
51.7543
 11
65.3989
 21
55.225
  0
LINE
  8
Layout
 10
59.3762
 20
55.225
 11
65.3989
 21
55.225
  0
LINE
  8
Layout
 10
59.087
 20
55.5142
 11
65.7051
 21
55.5142
  0
LINE
  8
Layout
 10
31.5255
 20
45.017
 11
34.0265
 21
45.017
  0
LINE
  8
Layout
 10
31.5255
 20
45.3062
 11
33.7202
 21
45.3062
  0
LINE
  8
Layout
 10
34.0265
 20
45.3062
 11
34.0265
 21
47.6881
  0
LINE
  8
Layout
 10
33.7202
 20
45.3062
 11
33.7202
 21
47.6881
  0
LINE
  8
Layout
 10
31.5255
 20
45.3062
 11
31.5255
 21
47.6881
  0
LINE
  8
Layout
 10
31.2193
 20
45.017
 11
31.2193
 21
47.9773
  0
LINE
  8
Layout
 10
33.7202
 20
45.017
 11
35.8979
 21
45.017
  0
LINE
  8
Layout
 10
34.0265
 20
45.3062
 11
36.1871
 21
45.3062
  0
LINE
  8
Layout
 10
41.6314
 20
45.3062
 11
41.6314
 21
47.6881
  0
LINE
  8
Layout
 10
41.3422
 20
45.3062
 11
41.3422
 21
47.6881
  0
LINE
  8
Layout
 10
41.3422
 20
45.017
 11
42.9244
 21
45.017
  0
LINE
  8
Layout
 10
41.6314
 20
45.3062
 11
43.2136
 21
45.3062
  0
LINE
  8
Layout
 10
46.1739
 20
45.3062
 11
46.1739
 21
47.6881
  0
LINE
  8
Layout
 10
45.8677
 20
45.3062
 11
45.8677
 21
47.6881
  0
LINE
  8
Layout
 10
45.8677
 20
45.017
 11
48.3856
 21
45.017
  0
LINE
  8
Layout
 10
46.1739
 20
45.3062
 11
48.6919
 21
45.3062
  0
LINE
  8
Layout
 10
50.6994
 20
45.3062
 11
50.6994
 21
47.6881
  0
LINE
  8
Layout
 10
50.3932
 20
45.3062
 11
50.3932
 21
47.6881
  0
LINE
  8
Layout
 10
50.3932
 20
45.017
 11
53.8639
 21
45.017
  0
LINE
  8
Layout
 10
50.6994
 20
45.3062
 11
54.1531
 21
45.3062
  0
LINE
  8
Layout
 10
55.0378
 20
45.3062
 11
55.0378
 21
47.6881
  0
LINE
  8
Layout
 10
54.7316
 20
45.3062
 11
54.7316
 21
47.6881
  0
LINE
  8
Layout
 10
54.7316
 20
45.017
 11
56.2117
 21
45.017
  0
LINE
  8
Layout
 10
55.0378
 20
45.3062
 11
56.518
 21
45.3062
  0
LINE
  8
Layout
 10
59.3762
 20
45.3062
 11
59.3762
 21
47.6881
  0
LINE
  8
Layout
 10
59.087
 20
45.3062
 11
59.087
 21
47.6881
  0
LINE
  8
Layout
 10
59.087
 20
45.017
 11
60.8053
 21
45.017
  0
LINE
  8
Layout
 10
59.3762
 20
45.3062
 11
61.1115
 21
45.3062
  0
LINE
  8
Layout
 10
65.7051
 20
45.017
 11
65.7051
 21
47.9773
  0
LINE
  8
Layout
 10
65.3989
 20
45.3062
 11
65.3989
 21
47.6881
  0
LINE
  8
Layout
 10
31.5255
 20
39.9811
 11
35.8979
 21
39.9811
  0
LINE
  8
Layout
 10
31.5255
 20
40.2873
 11
35.8979
 21
40.2873
  0
LINE
  8
Layout
 10
36.1871
 20
45.017
 11
40.5595
 21
45.017
  0
LINE
  8
Layout
 10
35.8979
 20
45.3062
 11
40.8658
 21
45.3062
  0
LINE
  8
Layout
 10
36.1871
 20
40.2873
 11
36.1871
 21
45.017
  0
LINE
  8
Layout
 10
35.8979
 20
40.2873
 11
35.8979
 21
45.017
  0
LINE
  8
Layout
 10
31.5255
 20
40.2873
 11
31.5255
 21
45.017
  0
LINE
  8
Layout
 10
31.2193
 20
39.9811
 11
31.2193
 21
45.3062
  0
LINE
  8
Layout
 10
36.1871
 20
39.9811
 11
40.5595
 21
39.9811
  0
LINE
  8
Layout
 10
36.1871
 20
40.2873
 11
40.5595
 21
40.2873
  0
LINE
  8
Layout
 10
40.8658
 20
45.017
 11
41.6314
 21
45.017
  0
LINE
  8
Layout
 10
40.5595
 20
45.3062
 11
41.3422
 21
45.3062
  0
LINE
  8
Layout
 10
40.8658
 20
40.2873
 11
40.8658
 21
45.017
  0
LINE
  8
Layout
 10
40.5595
 20
40.2873
 11
40.5595
 21
45.017
  0
LINE
  8
Layout
 10
40.8658
 20
39.9811
 11
42.9244
 21
39.9811
  0
LINE
  8
Layout
 10
40.8658
 20
40.2873
 11
42.9244
 21
40.2873
  0
LINE
  8
Layout
 10
43.2136
 20
45.017
 11
46.1739
 21
45.017
  0
LINE
  8
Layout
 10
42.9244
 20
45.3062
 11
45.8677
 21
45.3062
  0
LINE
  8
Layout
 10
43.2136
 20
40.2873
 11
43.2136
 21
45.017
  0
LINE
  8
Layout
 10
42.9244
 20
40.2873
 11
42.9244
 21
45.017
  0
LINE
  8
Layout
 10
43.2136
 20
39.9811
 11
48.3856
 21
39.9811
  0
LINE
  8
Layout
 10
43.2136
 20
40.2873
 11
48.3856
 21
40.2873
  0
LINE
  8
Layout
 10
48.6919
 20
45.017
 11
50.6994
 21
45.017
  0
LINE
  8
Layout
 10
48.3856
 20
45.3062
 11
50.3932
 21
45.3062
  0
LINE
  8
Layout
 10
48.6919
 20
40.2873
 11
48.6919
 21
45.017
  0
LINE
  8
Layout
 10
48.3856
 20
40.2873
 11
48.3856
 21
45.017
  0
LINE
  8
Layout
 10
48.6919
 20
39.9811
 11
53.8639
 21
39.9811
  0
LINE
  8
Layout
 10
48.6919
 20
40.2873
 11
53.8639
 21
40.2873
  0
LINE
  8
Layout
 10
54.1531
 20
45.017
 11
55.0378
 21
45.017
  0
LINE
  8
Layout
 10
53.8639
 20
45.3062
 11
54.7316
 21
45.3062
  0
LINE
  8
Layout
 10
54.1531
 20
40.2873
 11
54.1531
 21
45.017
  0
LINE
  8
Layout
 10
53.8639
 20
40.2873
 11
53.8639
 21
45.017
  0
LINE
  8
Layout
 10
54.1531
 20
39.9811
 11
56.2117
 21
39.9811
  0
LINE
  8
Layout
 10
54.1531
 20
40.2873
 11
56.2117
 21
40.2873
  0
LINE
  8
Layout
 10
56.518
 20
45.017
 11
59.3762
 21
45.017
  0
LINE
  8
Layout
 10
56.2117
 20
45.3062
 11
59.087
 21
45.3062
  0
LINE
  8
Layout
 10
56.518
 20
40.2873
 11
56.518
 21
45.017
  0
LINE
  8
Layout
 10
56.2117
 20
40.2873
 11
56.2117
 21
45.017
  0
LINE
  8
Layout
 10
56.518
 20
39.9811
 11
60.8053
 21
39.9811
  0
LINE
  8
Layout
 10
56.518
 20
40.2873
 11
60.8053
 21
40.2873
  0
LINE
  8
Layout
 10
61.1115
 20
45.017
 11
65.3989
 21
45.017
  0
LINE
  8
Layout
 10
60.8053
 20
45.3062
 11
65.3989
 21
45.3062
  0
LINE
  8
Layout
 10
61.1115
 20
40.2873
 11
61.1115
 21
45.017
  0
LINE
  8
Layout
 10
60.8053
 20
40.2873
 11
60.8053
 21
45.017
  0
LINE
  8
Layout
 10
61.1115
 20
39.9811
 11
65.3989
 21
39.9811
  0
LINE
  8
Layout
 10
61.1115
 20
40.2873
 11
65.3989
 21
40.2873
  0
LINE
  8
Layout
 10
65.7051
 20
39.9811
 11
65.7051
 21
45.3062
  0
LINE
  8
Layout
 10
65.3989
 20
40.2873
 11
65.3989
 21
45.017
  0
LINE
  8
Layout
 10
31.5255
 20
34.9452
 11
35.8979
 21
34.9452
  0
LINE
  8
Layout
 10
31.5255
 20
35.2514
 11
35.8979
 21
35.2514
  0
LINE
  8
Layout
 10
36.1871
 20
35.2514
 11
36.1871
 21
39.9811
  0
LINE
  8
Layout
 10
35.8979
 20
35.2514
 11
35.8979
 21
39.9811
  0
LINE
  8
Layout
 10
31.5255
 20
35.2514
 11
31.5255
 21
39.9811
  0
LINE
  8
Layout
 10
31.2193
 20
34.9452
 11
31.2193
 21
40.2873
  0
LINE
  8
Layout
 10
36.1871
 20
34.9452
 11
40.5595
 21
34.9452
  0
LINE
  8
Layout
 10
36.1871
 20
35.2514
 11
40.5595
 21
35.2514
  0
LINE
  8
Layout
 10
40.8658
 20
35.2514
 11
40.8658
 21
39.9811
  0
LINE
  8
Layout
 10
40.5595
 20
35.2514
 11
40.5595
 21
39.9811
  0
LINE
  8
Layout
 10
40.8658
 20
34.9452
 11
42.9244
 21
34.9452
  0
LINE
  8
Layout
 10
40.8658
 20
35.2514
 11
42.9244
 21
35.2514
  0
LINE
  8
Layout
 10
43.2136
 20
35.2514
 11
43.2136
 21
39.9811
  0
LINE
  8
Layout
 10
42.9244
 20
35.2514
 11
42.9244
 21
39.9811
  0
LINE
  8
Layout
 10
43.2136
 20
34.9452
 11
48.3856
 21
34.9452
  0
LINE
  8
Layout
 10
43.2136
 20
35.2514
 11
48.3856
 21
35.2514
  0
LINE
  8
Layout
 10
48.6919
 20
35.2514
 11
48.6919
 21
39.9811
  0
LINE
  8
Layout
 10
48.3856
 20
35.2514
 11
48.3856
 21
39.9811
  0
LINE
  8
Layout
 10
48.6919
 20
34.9452
 11
53.8639
 21
34.9452
  0
LINE
  8
Layout
 10
48.6919
 20
35.2514
 11
53.8639
 21
35.2514
  0
LINE
  8
Layout
 10
54.1531
 20
35.2514
 11
54.1531
 21
39.9811
  0
LINE
  8
Layout
 10
53.8639
 20
35.2514
 11
53.8639
 21
39.9811
  0
LINE
  8
Layout
 10
54.1531
 20
34.9452
 11
56.2117
 21
34.9452
  0
LINE
  8
Layout
 10
54.1531
 20
35.2514
 11
56.2117
 21
35.2514
  0
LINE
  8
Layout
 10
56.518
 20
35.2514
 11
56.518
 21
39.9811
  0
LINE
  8
Layout
 10
56.2117
 20
35.2514
 11
56.2117
 21
39.9811
  0
LINE
  8
Layout
 10
56.518
 20
34.9452
 11
60.8053
 21
34.9452
  0
LINE
  8
Layout
 10
56.518
 20
35.2514
 11
60.8053
 21
35.2514
  0
LINE
  8
Layout
 10
61.1115
 20
35.2514
 11
61.1115
 21
39.9811
  0
LINE
  8
Layout
 10
60.8053
 20
35.2514
 11
60.8053
 21
39.9811
  0
LINE
  8
Layout
 10
61.1115
 20
34.9452
 11
65.3989
 21
34.9452
  0
LINE
  8
Layout
 10
61.1115
 20
35.2514
 11
65.3989
 21
35.2514
  0
LINE
  8
Layout
 10
65.7051
 20
34.9452
 11
65.7051
 21
40.2873
  0
LINE
  8
Layout
 10
65.3989
 20
35.2514
 11
65.3989
 21
39.9811
  0
LINE
  8
Layout
 10
31.5255
 20
29.9263
 11
35.8979
 21
29.9263
  0
LINE
  8
Layout
 10
31.5255
 20
30.2155
 11
35.8979
 21
30.2155
  0
LINE
  8
Layout
 10
36.1871
 20
30.2155
 11
36.1871
 21
34.9452
  0
LINE
  8
Layout
 10
35.8979
 20
30.2155
 11
35.8979
 21
34.9452
  0
LINE
  8
Layout
 10
31.5255
 20
30.2155
 11
31.5255
 21
34.9452
  0
LINE
  8
Layout
 10
31.2193
 20
29.9263
 11
31.2193
 21
35.2514
  0
LINE
  8
Layout
 10
36.1871
 20
29.9263
 11
40.5595
 21
29.9263
  0
LINE
  8
Layout
 10
36.1871
 20
30.2155
 11
40.5595
 21
30.2155
  0
LINE
  8
Layout
 10
40.8658
 20
30.2155
 11
40.8658
 21
34.9452
  0
LINE
  8
Layout
 10
40.5595
 20
30.2155
 11
40.5595
 21
34.9452
  0
LINE
  8
Layout
 10
40.8658
 20
29.9263
 11
42.9244
 21
29.9263
  0
LINE
  8
Layout
 10
40.8658
 20
30.2155
 11
42.9244
 21
30.2155
  0
LINE
  8
Layout
 10
43.2136
 20
30.2155
 11
43.2136
 21
34.9452
  0
LINE
  8
Layout
 10
42.9244
 20
30.2155
 11
42.9244
 21
34.9452
  0
LINE
  8
Layout
 10
43.2136
 20
29.9263
 11
48.3856
 21
29.9263
  0
LINE
  8
Layout
 10
43.2136
 20
30.2155
 11
48.3856
 21
30.2155
  0
LINE
  8
Layout
 10
48.6919
 20
30.2155
 11
48.6919
 21
34.9452
  0
LINE
  8
Layout
 10
48.3856
 20
30.2155
 11
48.3856
 21
34.9452
  0
LINE
  8
Layout
 10
48.6919
 20
29.9263
 11
53.8639
 21
29.9263
  0
LINE
  8
Layout
 10
48.6919
 20
30.2155
 11
53.8639
 21
30.2155
  0
LINE
  8
Layout
 10
54.1531
 20
30.2155
 11
54.1531
 21
34.9452
  0
LINE
  8
Layout
 10
53.8639
 20
30.2155
 11
53.8639
 21
34.9452
  0
LINE
  8
Layout
 10
54.1531
 20
29.9263
 11
56.2117
 21
29.9263
  0
LINE
  8
Layout
 10
54.1531
 20
30.2155
 11
56.2117
 21
30.2155
  0
LINE
  8
Layout
 10
56.518
 20
30.2155
 11
56.518
 21
34.9452
  0
LINE
  8
Layout
 10
56.2117
 20
30.2155
 11
56.2117
 21
34.9452
  0
LINE
  8
Layout
 10
56.518
 20
29.9263
 11
60.8053
 21
29.9263
  0
LINE
  8
Layout
 10
56.518
 20
30.2155
 11
60.8053
 21
30.2155
  0
LINE
  8
Layout
 10
61.1115
 20
30.2155
 11
61.1115
 21
34.9452
  0
LINE
  8
Layout
 10
60.8053
 20
30.2155
 11
60.8053
 21
34.9452
  0
LINE
  8
Layout
 10
61.1115
 20
29.9263
 11
65.3989
 21
29.9263
  0
LINE
  8
Layout
 10
61.1115
 20
30.2155
 11
65.3989
 21
30.2155
  0
LINE
  8
Layout
 10
65.7051
 20
29.9263
 11
65.7051
 21
35.2514
  0
LINE
  8
Layout
 10
65.3989
 20
30.2155
 11
65.3989
 21
34.9452
  0
LINE
  8
Layout
 10
31.5255
 20
24.8904
 11
35.8979
 21
24.8904
  0
LINE
  8
Layout
 10
31.5255
 20
25.1966
 11
35.8979
 21
25.1966
  0
LINE
  8
Layout
 10
36.1871
 20
25.1966
 11
36.1871
 21
29.9263
  0
LINE
  8
Layout
 10
35.8979
 20
25.1966
 11
35.8979
 21
29.9263
  0
LINE
  8
Layout
 10
31.5255
 20
25.1966
 11
31.5255
 21
29.9263
  0
LINE
  8
Layout
 10
31.2193
 20
24.8904
 11
31.2193
 21
30.2155
  0
LINE
  8
Layout
 10
36.1871
 20
24.8904
 11
40.5595
 21
24.8904
  0
LINE
  8
Layout
 10
36.1871
 20
25.1966
 11
40.5595
 21
25.1966
  0
LINE
  8
Layout
 10
40.8658
 20
25.1966
 11
40.8658
 21
29.9263
  0
LINE
  8
Layout
 10
40.5595
 20
25.1966
 11
40.5595
 21
29.9263
  0
LINE
  8
Layout
 10
40.8658
 20
24.8904
 11
42.9244
 21
24.8904
  0
LINE
  8
Layout
 10
40.8658
 20
25.1966
 11
42.9244
 21
25.1966
  0
LINE
  8
Layout
 10
43.2136
 20
25.1966
 11
43.2136
 21
29.9263
  0
LINE
  8
Layout
 10
42.9244
 20
25.1966
 11
42.9244
 21
29.9263
  0
LINE
  8
Layout
 10
43.2136
 20
24.8904
 11
48.3856
 21
24.8904
  0
LINE
  8
Layout
 10
43.2136
 20
25.1966
 11
48.3856
 21
25.1966
  0
LINE
  8
Layout
 10
48.6919
 20
25.1966
 11
48.6919
 21
29.9263
  0
LINE
  8
Layout
 10
48.3856
 20
25.1966
 11
48.3856
 21
29.9263
  0
LINE
  8
Layout
 10
48.6919
 20
24.8904
 11
53.8639
 21
24.8904
  0
LINE
  8
Layout
 10
48.6919
 20
25.1966
 11
53.8639
 21
25.1966
  0
LINE
  8
Layout
 10
54.1531
 20
25.1966
 11
54.1531
 21
29.9263
  0
LINE
  8
Layout
 10
53.8639
 20
25.1966
 11
53.8639
 21
29.9263
  0
LINE
  8
Layout
 10
54.1531
 20
24.8904
 11
56.2117
 21
24.8904
  0
LINE
  8
Layout
 10
54.1531
 20
25.1966
 11
56.2117
 21
25.1966
  0
LINE
  8
Layout
 10
56.518
 20
25.1966
 11
56.518
 21
29.9263
  0
LINE
  8
Layout
 10
56.2117
 20
25.1966
 11
56.2117
 21
29.9263
  0
LINE
  8
Layout
 10
56.518
 20
24.8904
 11
60.8053
 21
24.8904
  0
LINE
  8
Layout
 10
56.518
 20
25.1966
 11
60.8053
 21
25.1966
  0
LINE
  8
Layout
 10
61.1115
 20
25.1966
 11
61.1115
 21
29.9263
  0
LINE
  8
Layout
 10
60.8053
 20
25.1966
 11
60.8053
 21
29.9263
  0
LINE
  8
Layout
 10
61.1115
 20
24.8904
 11
65.3989
 21
24.8904
  0
LINE
  8
Layout
 10
61.1115
 20
25.1966
 11
65.3989
 21
25.1966
  0
LINE
  8
Layout
 10
65.7051
 20
24.8904
 11
65.7051
 21
30.2155
  0
LINE
  8
Layout
 10
65.3989
 20
25.1966
 11
65.3989
 21
29.9263
  0
LINE
  8
Layout
 10
31.5255
 20
19.8544
 11
35.8979
 21
19.8544
  0
LINE
  8
Layout
 10
31.5255
 20
20.1607
 11
35.8979
 21
20.1607
  0
LINE
  8
Layout
 10
36.1871
 20
20.1607
 11
36.1871
 21
24.8904
  0
LINE
  8
Layout
 10
35.8979
 20
20.1607
 11
35.8979
 21
24.8904
  0
LINE
  8
Layout
 10
31.5255
 20
20.1607
 11
31.5255
 21
24.8904
  0
LINE
  8
Layout
 10
31.2193
 20
19.8544
 11
31.2193
 21
25.1966
  0
LINE
  8
Layout
 10
36.1871
 20
19.8544
 11
40.5595
 21
19.8544
  0
LINE
  8
Layout
 10
36.1871
 20
20.1607
 11
40.5595
 21
20.1607
  0
LINE
  8
Layout
 10
40.8658
 20
20.1607
 11
40.8658
 21
24.8904
  0
LINE
  8
Layout
 10
40.5595
 20
20.1607
 11
40.5595
 21
24.8904
  0
LINE
  8
Layout
 10
40.8658
 20
19.8544
 11
42.9244
 21
19.8544
  0
LINE
  8
Layout
 10
40.8658
 20
20.1607
 11
42.9244
 21
20.1607
  0
LINE
  8
Layout
 10
43.2136
 20
20.1607
 11
43.2136
 21
24.8904
  0
LINE
  8
Layout
 10
42.9244
 20
20.1607
 11
42.9244
 21
24.8904
  0
LINE
  8
Layout
 10
43.2136
 20
19.8544
 11
48.3856
 21
19.8544
  0
LINE
  8
Layout
 10
43.2136
 20
20.1607
 11
48.3856
 21
20.1607
  0
LINE
  8
Layout
 10
48.6919
 20
20.1607
 11
48.6919
 21
24.8904
  0
LINE
  8
Layout
 10
48.3856
 20
20.1607
 11
48.3856
 21
24.8904
  0
LINE
  8
Layout
 10
48.6919
 20
19.8544
 11
53.8639
 21
19.8544
  0
LINE
  8
Layout
 10
48.6919
 20
20.1607
 11
53.8639
 21
20.1607
  0
LINE
  8
Layout
 10
54.1531
 20
20.1607
 11
54.1531
 21
24.8904
  0
LINE
  8
Layout
 10
53.8639
 20
20.1607
 11
53.8639
 21
24.8904
  0
LINE
  8
Layout
 10
54.1531
 20
19.8544
 11
56.2117
 21
19.8544
  0
LINE
  8
Layout
 10
54.1531
 20
20.1607
 11
56.2117
 21
20.1607
  0
LINE
  8
Layout
 10
56.518
 20
20.1607
 11
56.518
 21
24.8904
  0
LINE
  8
Layout
 10
56.2117
 20
20.1607
 11
56.2117
 21
24.8904
  0
LINE
  8
Layout
 10
56.518
 20
19.8544
 11
60.8053
 21
19.8544
  0
LINE
  8
Layout
 10
56.518
 20
20.1607
 11
60.8053
 21
20.1607
  0
LINE
  8
Layout
 10
61.1115
 20
20.1607
 11
61.1115
 21
24.8904
  0
LINE
  8
Layout
 10
60.8053
 20
20.1607
 11
60.8053
 21
24.8904
  0
LINE
  8
Layout
 10
61.1115
 20
19.8544
 11
65.3989
 21
19.8544
  0
LINE
  8
Layout
 10
61.1115
 20
20.1607
 11
65.3989
 21
20.1607
  0
LINE
  8
Layout
 10
65.7051
 20
19.8544
 11
65.7051
 21
25.1966
  0
LINE
  8
Layout
 10
65.3989
 20
20.1607
 11
65.3989
 21
24.8904
  0
LINE
  8
Layout
 10
31.5255
 20
17.1834
 11
36.1871
 21
17.1834
  0
LINE
  8
Layout
 10
31.5255
 20
17.4896
 11
35.8979
 21
17.4896
  0
LINE
  8
Layout
 10
36.1871
 20
17.4896
 11
36.1871
 21
19.8544
  0
LINE
  8
Layout
 10
35.8979
 20
17.4896
 11
35.8979
 21
19.8544
  0
LINE
  8
Layout
 10
31.5255
 20
17.4896
 11
31.5255
 21
19.8544
  0
LINE
  8
Layout
 10
31.2193
 20
17.1834
 11
31.2193
 21
20.1607
  0
LINE
  8
Layout
 10
35.8979
 20
17.1323
 11
36.0851
 21
17.1323
  0
LINE
  8
Layout
 10
36.1871
 20
17.5577
 11
36.3913
 21
17.5577
  0
LINE
  8
Layout
 10
40.8658
 20
17.4896
 11
40.8658
 21
19.8544
  0
LINE
  8
Layout
 10
40.5595
 20
17.4896
 11
40.5595
 21
19.8544
  0
LINE
  8
Layout
 10
40.5595
 20
17.1834
 11
40.9679
 21
17.1834
  0
LINE
  8
Layout
 10
40.8658
 20
17.4896
 11
41.2571
 21
17.4896
  0
LINE
  8
Layout
 10
43.2136
 20
17.4896
 11
43.2136
 21
19.8544
  0
LINE
  8
Layout
 10
42.9244
 20
17.4896
 11
42.9244
 21
19.8544
  0
LINE
  8
Layout
 10
42.9244
 20
17.1834
 11
46.0548
 21
17.1834
  0
LINE
  8
Layout
 10
43.2136
 20
17.4896
 11
46.3611
 21
17.4896
  0
LINE
  8
Layout
 10
48.6919
 20
17.4896
 11
48.6919
 21
19.8544
  0
LINE
  8
Layout
 10
48.3856
 20
17.4896
 11
48.3856
 21
19.8544
  0
LINE
  8
Layout
 10
48.3856
 20
17.1834
 11
51.3119
 21
17.1834
  0
LINE
  8
Layout
 10
48.6919
 20
17.4896
 11
51.6181
 21
17.4896
  0
LINE
  8
Layout
 10
54.1531
 20
17.4896
 11
54.1531
 21
19.8544
  0
LINE
  8
Layout
 10
53.8639
 20
17.4896
 11
53.8639
 21
19.8544
  0
LINE
  8
Layout
 10
53.8639
 20
17.1834
 11
56.2117
 21
17.1834
  0
LINE
  8
Layout
 10
54.1531
 20
17.4896
 11
56.2117
 21
17.4896
  0
LINE
  8
Layout
 10
56.518
 20
17.4896
 11
56.518
 21
19.8544
  0
LINE
  8
Layout
 10
56.2117
 20
17.4896
 11
56.2117
 21
19.8544
  0
LINE
  8
Layout
 10
56.518
 20
17.1834
 11
60.8053
 21
17.1834
  0
LINE
  8
Layout
 10
56.518
 20
17.4896
 11
60.8053
 21
17.4896
  0
LINE
  8
Layout
 10
61.1115
 20
17.4896
 11
61.1115
 21
19.8544
  0
LINE
  8
Layout
 10
60.8053
 20
17.4896
 11
60.8053
 21
19.8544
  0
LINE
  8
Layout
 10
61.1115
 20
17.1834
 11
65.3989
 21
17.1834
  0
LINE
  8
Layout
 10
61.1115
 20
17.4896
 11
65.3989
 21
17.4896
  0
LINE
  8
Layout
 10
65.7051
 20
17.1834
 11
65.7051
 21
20.1607
  0
LINE
  8
Layout
 10
65.3989
 20
17.4896
 11
65.3989
 21
19.8544
  0
LINE
  8
Layout
 10
31.5255
 20
12.3176
 11
36.0851
 21
12.3176
  0
LINE
  8
Layout
 10
31.5255
 20
12.6238
 11
36.0851
 21
12.6238
  0
LINE
  8
Layout
 10
36.3913
 20
17.1834
 11
40.8658
 21
17.1834
  0
LINE
  8
Layout
 10
36.0851
 20
17.4896
 11
40.5595
 21
17.4896
  0
LINE
  8
Layout
 10
36.3913
 20
12.6238
 11
36.3913
 21
17.1834
  0
LINE
  8
Layout
 10
36.0851
 20
12.6238
 11
36.0851
 21
17.1834
  0
LINE
  8
Layout
 10
31.5255
 20
12.6238
 11
31.5255
 21
17.1834
  0
LINE
  8
Layout
 10
31.2193
 20
12.3176
 11
31.2193
 21
17.4896
  0
LINE
  8
Layout
 10
36.3913
 20
12.3176
 11
40.9679
 21
12.3176
  0
LINE
  8
Layout
 10
36.3913
 20
12.6238
 11
40.9679
 21
12.6238
  0
LINE
  8
Layout
 10
41.2571
 20
17.1834
 11
43.2136
 21
17.1834
  0
LINE
  8
Layout
 10
40.9679
 20
17.4896
 11
42.9244
 21
17.4896
  0
LINE
  8
Layout
 10
41.2571
 20
12.3176
 11
41.2571
 21
13.4234
  0
LINE
  8
Layout
 10
40.9679
 20
12.6238
 11
40.9679
 21
13.7297
  0
LINE
  8
Layout
 10
31.2193
 20
7.4518
 11
36.3913
 21
7.4518
  0
LINE
  8
Layout
 10
31.5255
 20
7.75803
 11
36.0851
 21
7.75803
  0
LINE
  8
Layout
 10
36.3913
 20
7.75803
 11
36.3913
 21
12.3176
  0
LINE
  8
Layout
 10
36.0851
 20
7.75803
 11
36.0851
 21
12.3176
  0
LINE
  8
Layout
 10
31.5255
 20
7.75803
 11
31.5255
 21
12.3176
  0
LINE
  8
Layout
 10
31.2193
 20
7.4518
 11
31.2193
 21
12.6238
  0
LINE
  8
Layout
 10
36.0851
 20
7.4518
 11
41.2571
 21
7.4518
  0
LINE
  8
Layout
 10
36.3913
 20
7.75803
 11
40.9679
 21
7.75803
  0
LINE
  8
Layout
 10
41.2571
 20
7.4518
 11
41.2571
 21
9.6465
  0
LINE
  8
Layout
 10
40.9679
 20
7.75803
 11
40.9679
 21
9.95274
  0
LINE
  8
Layout
 10
41.2571
 20
13.7297
 11
41.2571
 21
17.1834
  0
LINE
  8
Layout
 10
40.9679
 20
13.4234
 11
40.9679
 21
17.1834
  0
LINE
  8
Layout
 10
41.2571
 20
13.4234
 11
46.0548
 21
13.4234
  0
LINE
  8
Layout
 10
41.2571
 20
13.7297
 11
46.0548
 21
13.7297
  0
LINE
  8
Layout
 10
46.3611
 20
17.1834
 11
48.6919
 21
17.1834
  0
LINE
  8
Layout
 10
46.0548
 20
17.4896
 11
48.3856
 21
17.4896
  0
LINE
  8
Layout
 10
46.3611
 20
13.7297
 11
46.3611
 21
17.1834
  0
LINE
  8
Layout
 10
46.0548
 20
13.7297
 11
46.0548
 21
17.1834
  0
LINE
  8
Layout
 10
41.2571
 20
9.95274
 11
41.2571
 21
12.6238
  0
LINE
  8
Layout
 10
40.9679
 20
9.6465
 11
40.9679
 21
12.3176
  0
LINE
  8
Layout
 10
41.2571
 20
9.6465
 11
46.3611
 21
9.6465
  0
LINE
  8
Layout
 10
41.2571
 20
9.95274
 11
46.0548
 21
9.95274
  0
LINE
  8
Layout
 10
46.3611
 20
9.95274
 11
46.3611
 21
13.4234
  0
LINE
  8
Layout
 10
46.0548
 20
9.95274
 11
46.0548
 21
13.4234
  0
LINE
  8
Layout
 10
46.3611
 20
13.4234
 11
51.3119
 21
13.4234
  0
LINE
  8
Layout
 10
46.3611
 20
13.7297
 11
51.3119
 21
13.7297
  0
LINE
  8
Layout
 10
51.6181
 20
17.1834
 11
54.1531
 21
17.1834
  0
LINE
  8
Layout
 10
51.3119
 20
17.4896
 11
53.8639
 21
17.4896
  0
LINE
  8
Layout
 10
51.6181
 20
13.7297
 11
51.6181
 21
17.1834
  0
LINE
  8
Layout
 10
51.3119
 20
13.7297
 11
51.3119
 21
17.1834
  0
LINE
  8
Layout
 10
46.0548
 20
9.6465
 11
51.6181
 21
9.6465
  0
LINE
  8
Layout
 10
46.3611
 20
9.95274
 11
51.3119
 21
9.95274
  0
LINE
  8
Layout
 10
51.6181
 20
9.95274
 11
51.6181
 21
12.4707
  0
LINE
  8
Layout
 10
51.3119
 20
9.95274
 11
51.3119
 21
12.4707
  0
LINE
  8
Layout
 10
51.6181
 20
12.4707
 11
51.6181
 21
13.4234
  0
LINE
  8
Layout
 10
51.3119
 20
12.4707
 11
51.3119
 21
13.4234
  0
LINE
  8
Layout
 10
56.518
 20
12.6238
 11
56.518
 21
13.7297
  0
LINE
  8
Layout
 10
56.2117
 20
12.3176
 11
56.2117
 21
13.4234
  0
LINE
  8
Layout
 10
56.518
 20
7.75803
 11
56.518
 21
9.95274
  0
LINE
  8
Layout
 10
56.2117
 20
7.4518
 11
56.2117
 21
9.6465
  0
LINE
  8
Layout
 10
56.518
 20
12.3176
 11
60.8053
 21
12.3176
  0
LINE
  8
Layout
 10
56.518
 20
12.6238
 11
60.8053
 21
12.6238
  0
LINE
  8
Layout
 10
61.1115
 20
12.6238
 11
61.1115
 21
17.1834
  0
LINE
  8
Layout
 10
60.8053
 20
12.6238
 11
60.8053
 21
17.1834
  0
LINE
  8
Layout
 10
61.1115
 20
12.3176
 11
65.3989
 21
12.3176
  0
LINE
  8
Layout
 10
61.1115
 20
12.6238
 11
65.3989
 21
12.6238
  0
LINE
  8
Layout
 10
65.7051
 20
12.3176
 11
65.7051
 21
17.4896
  0
LINE
  8
Layout
 10
65.3989
 20
12.6238
 11
65.3989
 21
17.1834
  0
LINE
  8
Layout
 10
56.2117
 20
7.4518
 11
61.1115
 21
7.4518
  0
LINE
  8
Layout
 10
56.518
 20
7.75803
 11
60.8053
 21
7.75803
  0
LINE
  8
Layout
 10
61.1115
 20
7.75803
 11
61.1115
 21
12.3176
  0
LINE
  8
Layout
 10
60.8053
 20
7.75803
 11
60.8053
 21
12.3176
  0
LINE
  8
Layout
 10
60.8053
 20
7.4518
 11
65.7051
 21
7.4518
  0
LINE
  8
Layout
 10
61.1115
 20
7.75803
 11
65.3989
 21
7.75803
  0
LINE
  8
Layout
 10
65.7051
 20
7.4518
 11
65.7051
 21
12.6238
  0
LINE
  8
Layout
 10
65.3989
 20
7.75803
 11
65.3989
 21
12.3176
  0
LINE
  8
Layout
 10
56.518
 20
13.4234
 11
56.518
 21
17.1834
  0
LINE
  8
Layout
 10
56.2117
 20
13.7297
 11
56.2117
 21
17.1834
  0
LINE
  8
Layout
 10
51.6181
 20
13.4234
 11
56.2117
 21
13.4234
  0
LINE
  8
Layout
 10
51.6181
 20
13.7297
 11
56.2117
 21
13.7297
  0
LINE
  8
Layout
 10
56.518
 20
9.6465
 11
56.518
 21
12.3176
  0
LINE
  8
Layout
 10
56.2117
 20
9.95274
 11
56.2117
 21
12.6238
  0
LINE
  8
Layout
 10
51.3119
 20
9.6465
 11
56.2117
 21
9.6465
  0
LINE
  8
Layout
 10
51.6181
 20
9.95274
 11
56.2117
 21
9.95274
  0
SOLID
  8
Columns
 10
31.228
 20
7.385
 11
31.228
 21
7.835
 12
31.528
 22
7.385
 13
31.528
 23
7.835
  0
SOLID
  8
Columns
 10
36.098
 20
7.385
 11
36.098
 21
7.835
 12
36.398
 22
7.385
 13
36.398
 23
7.835
  0
SOLID
  8
Columns
 10
40.968
 20
7.385
 11
40.968
 21
7.835
 12
41.268
 22
7.385
 13
41.268
 23
7.835
  0
SOLID
  8
Columns
 10
56.228
 20
7.385
 11
56.228
 21
7.835
 12
56.528
 22
7.385
 13
56.528
 23
7.835
  0
SOLID
  8
Columns
 10
65.408
 20
7.385
 11
65.408
 21
7.835
 12
65.708
 22
7.385
 13
65.708
 23
7.835
  0
SOLID
  8
Columns
 10
40.968
 20
9.585
 11
40.968
 21
10.035
 12
41.268
 22
9.585
 13
41.268
 23
10.035
  0
SOLID
  8
Columns
 10
46.068
 20
9.585
 11
46.068
 21
10.035
 12
46.368
 22
9.585
 13
46.368
 23
10.035
  0
SOLID
  8
Columns
 10
51.328
 20
9.585
 11
51.328
 21
10.035
 12
51.628
 22
9.585
 13
51.628
 23
10.035
  0
SOLID
  8
Columns
 10
31.228
 20
12.255
 11
31.228
 21
12.705
 12
31.528
 22
12.255
 13
31.528
 23
12.705
  0
SOLID
  8
Columns
 10
40.968
 20
12.255
 11
40.968
 21
12.705
 12
41.268
 22
12.255
 13
41.268
 23
12.705
  0
SOLID
  8
Columns
 10
56.228
 20
12.255
 11
56.228
 21
12.705
 12
56.528
 22
12.255
 13
56.528
 23
12.705
  0
SOLID
  8
Columns
 10
65.408
 20
12.255
 11
65.408
 21
12.705
 12
65.708
 22
12.255
 13
65.708
 23
12.705
  0
SOLID
  8
Columns
 10
31.228
 20
17.125
 11
31.228
 21
17.575
 12
31.528
 22
17.125
 13
31.528
 23
17.575
  0
SOLID
  8
Columns
 10
36.098
 20
17.125
 11
36.098
 21
17.575
 12
36.398
 22
17.125
 13
36.398
 23
17.575
  0
SOLID
  8
Columns
 10
40.968
 20
17.125
 11
40.968
 21
17.575
 12
41.268
 22
17.125
 13
41.268
 23
17.575
  0
SOLID
  8
Columns
 10
46.068
 20
17.125
 11
46.068
 21
17.575
 12
46.368
 22
17.125
 13
46.368
 23
17.575
  0
SOLID
  8
Columns
 10
51.328
 20
17.125
 11
51.328
 21
17.575
 12
51.628
 22
17.125
 13
51.628
 23
17.575
  0
SOLID
  8
Columns
 10
53.868
 20
17.125
 11
53.868
 21
17.575
 12
54.168
 22
17.125
 13
54.168
 23
17.575
  0
SOLID
  8
Columns
 10
56.228
 20
17.125
 11
56.228
 21
17.575
 12
56.528
 22
17.125
 13
56.528
 23
17.575
  0
SOLID
  8
Columns
 10
65.408
 20
17.125
 11
65.408
 21
17.575
 12
65.708
 22
17.125
 13
65.708
 23
17.575
  0
SOLID
  8
Columns
 10
31.228
 20
19.795
 11
31.228
 21
20.245
 12
31.528
 22
19.795
 13
31.528
 23
20.245
  0
SOLID
  8
Columns
 10
40.568
 20
19.795
 11
40.568
 21
20.245
 12
40.868
 22
19.795
 13
40.868
 23
20.245
  0
SOLID
  8
Columns
 10
56.228
 20
19.795
 11
56.228
 21
20.245
 12
56.528
 22
19.795
 13
56.528
 23
20.245
  0
SOLID
  8
Columns
 10
65.408
 20
19.795
 11
65.408
 21
20.245
 12
65.708
 22
19.795
 13
65.708
 23
20.245
  0
SOLID
  8
Columns
 10
31.228
 20
24.825
 11
31.228
 21
25.275
 12
31.528
 22
24.825
 13
31.528
 23
25.275
  0
SOLID
  8
Columns
 10
40.568
 20
24.75
 11
40.568
 21
25.35
 12
40.868
 22
24.75
 13
40.868
 23
25.35
  0
SOLID
  8
Columns
 10
53.868
 20
24.825
 11
53.868
 21
25.275
 12
54.168
 22
24.825
 13
54.168
 23
25.275
  0
SOLID
  8
Columns
 10
56.228
 20
24.825
 11
56.228
 21
25.275
 12
56.528
 22
24.825
 13
56.528
 23
25.275
  0
SOLID
  8
Columns
 10
65.408
 20
24.825
 11
65.408
 21
25.275
 12
65.708
 22
24.825
 13
65.708
 23
25.275
  0
SOLID
  8
Columns
 10
31.228
 20
29.855
 11
31.228
 21
30.305
 12
31.528
 22
29.855
 13
31.528
 23
30.305
  0
SOLID
  8
Columns
 10
40.568
 20
29.855
 11
40.568
 21
30.305
 12
40.868
 22
29.855
 13
40.868
 23
30.305
  0
SOLID
  8
Columns
 10
42.928
 20
29.855
 11
42.928
 21
30.305
 12
43.228
 22
29.855
 13
43.228
 23
30.305
  0
SOLID
  8
Columns
 10
48.398
 20
29.855
 11
48.398
 21
30.305
 12
48.698
 22
29.855
 13
48.698
 23
30.305
  0
SOLID
  8
Columns
 10
53.868
 20
29.855
 11
53.868
 21
30.305
 12
54.168
 22
29.855
 13
54.168
 23
30.305
  0
SOLID
  8
Columns
 10
56.228
 20
29.855
 11
56.228
 21
30.305
 12
56.528
 22
29.855
 13
56.528
 23
30.305
  0
SOLID
  8
Columns
 10
65.408
 20
29.855
 11
65.408
 21
30.305
 12
65.708
 22
29.855
 13
65.708
 23
30.305
  0
SOLID
  8
Columns
 10
31.228
 20
34.885
 11
31.228
 21
35.335
 12
31.528
 22
34.885
 13
31.528
 23
35.335
  0
SOLID
  8
Columns
 10
40.568
 20
34.885
 11
40.568
 21
35.335
 12
40.868
 22
34.885
 13
40.868
 23
35.335
  0
SOLID
  8
Columns
 10
42.928
 20
34.885
 11
42.928
 21
35.335
 12
43.228
 22
34.885
 13
43.228
 23
35.335
  0
SOLID
  8
Columns
 10
48.398
 20
34.885
 11
48.398
 21
35.335
 12
48.698
 22
34.885
 13
48.698
 23
35.335
  0
SOLID
  8
Columns
 10
53.868
 20
34.885
 11
53.868
 21
35.335
 12
54.168
 22
34.885
 13
54.168
 23
35.335
  0
SOLID
  8
Columns
 10
56.228
 20
34.885
 11
56.228
 21
35.335
 12
56.528
 22
34.885
 13
56.528
 23
35.335
  0
SOLID
  8
Columns
 10
65.408
 20
34.885
 11
65.408
 21
35.335
 12
65.708
 22
34.885
 13
65.708
 23
35.335
  0
SOLID
  8
Columns
 10
31.228
 20
39.915
 11
31.228
 21
40.365
 12
31.528
 22
39.915
 13
31.528
 23
40.365
  0
SOLID
  8
Columns
 10
40.568
 20
39.915
 11
40.568
 21
40.365
 12
40.868
 22
39.915
 13
40.868
 23
40.365
  0
SOLID
  8
Columns
 10
42.928
 20
39.915
 11
42.928
 21
40.365
 12
43.228
 22
39.915
 13
43.228
 23
40.365
  0
SOLID
  8
Columns
 10
48.398
 20
39.915
 11
48.398
 21
40.365
 12
48.698
 22
39.915
 13
48.698
 23
40.365
  0
SOLID
  8
Columns
 10
53.868
 20
39.915
 11
53.868
 21
40.365
 12
54.168
 22
39.915
 13
54.168
 23
40.365
  0
SOLID
  8
Columns
 10
56.228
 20
39.915
 11
56.228
 21
40.365
 12
56.528
 22
39.915
 13
56.528
 23
40.365
  0
SOLID
  8
Columns
 10
65.408
 20
39.915
 11
65.408
 21
40.365
 12
65.708
 22
39.915
 13
65.708
 23
40.365
  0
SOLID
  8
Columns
 10
31.228
 20
44.945
 11
31.228
 21
45.395
 12
31.528
 22
44.945
 13
31.528
 23
45.395
  0
SOLID
  8
Columns
 10
40.568
 20
44.945
 11
40.568
 21
45.395
 12
40.868
 22
44.945
 13
40.868
 23
45.395
  0
SOLID
  8
Columns
 10
42.928
 20
44.945
 11
42.928
 21
45.395
 12
43.228
 22
44.945
 13
43.228
 23
45.395
  0
SOLID
  8
Columns
 10
48.398
 20
44.945
 11
48.398
 21
45.395
 12
48.698
 22
44.945
 13
48.698
 23
45.395
  0
SOLID
  8
Columns
 10
53.868
 20
44.945
 11
53.868
 21
45.395
 12
54.168
 22
44.945
 13
54.168
 23
45.395
  0
SOLID
  8
Columns
 10
56.228
 20
44.945
 11
56.228
 21
45.395
 12
56.528
 22
44.945
 13
56.528
 23
45.395
  0
SOLID
  8
Columns
 10
65.408
 20
44.945
 11
65.408
 21
45.395
 12
65.708
 22
44.945
 13
65.708
 23
45.395
  0
SOLID
  8
Columns
 10
31.228
 20
47.615
 11
31.228
 21
48.065
 12
31.528
 22
47.615
 13
31.528
 23
48.065
  0
SOLID
  8
Columns
 10
41.348
 20
47.54
 11
41.348
 21
48.14
 12
41.648
 22
47.54
 13
41.648
 23
48.14
  0
SOLID
  8
Columns
 10
50.408
 20
47.615
 11
50.408
 21
48.065
 12
50.708
 22
47.615
 13
50.708
 23
48.065
  0
SOLID
  8
Columns
 10
59.088
 20
47.54
 11
59.088
 21
48.14
 12
59.388
 22
47.54
 13
59.388
 23
48.14
  0
SOLID
  8
Columns
 10
65.408
 20
47.615
 11
65.408
 21
48.065
 12
65.708
 22
47.615
 13
65.708
 23
48.065
  0
SOLID
  8
Columns
 10
31.228
 20
55.155
 11
31.228
 21
55.605
 12
31.528
 22
55.155
 13
31.528
 23
55.605
  0
SOLID
  8
Columns
 10
41.348
 20
55.08
 11
41.348
 21
55.68
 12
41.648
 22
55.08
 13
41.648
 23
55.68
  0
SOLID
  8
Columns
 10
50.408
 20
55.155
 11
50.408
 21
55.605
 12
50.708
 22
55.155
 13
50.708
 23
55.605
  0
SOLID
  8
Columns
 10
59.088
 20
55.155
 11
59.088
 21
55.605
 12
59.388
 22
55.155
 13
59.388
 23
55.605
  0
SOLID
  8
Columns
 10
65.408
 20
55.155
 11
65.408
 21
55.605
 12
65.708
 22
55.155
 13
65.708
 23
55.605
0
TEXT
  8
Beam_Name
10
33.713
20
7.8
40
0.1
1
B1
50
0
41
1
7
STRUDS_Arial
72
0
11
0
21
0
0
TEXT
  8
Beam_Name
10
38.583
20
7.8
40
0.1
1
B2
50
0
41
1
7
STRUDS_Arial
72
0
11
0
21
0
0
TEXT
  8
Beam_Name
10
60.868
20
7.8
40
0.1
1
B3
50
0
41
1
7
STRUDS_Arial
72
0
11
0
21
0
0
TEXT
  8
Beam_Name
10
43.568
20
10
40
0.1
1
B4
50
0
41
1
7
STRUDS_Arial
72
0
11
0
21
0
0
TEXT
  8
Beam_Name
10
48.748
20
10
40
0.1
1
B5
50
0
41
1
7
STRUDS_Arial
72
0
11
0
21
0
0
TEXT
  8
Beam_Name
10
53.828
20
10
40
0.1
1
B6
50
0
41
1
7
STRUDS_Arial
72
0
11
0
21
0
0
TEXT
  8
Beam_Name
10
33.713
20
12.67
40
0.1
1
B7
50
0
41
1
7
STRUDS_Arial
72
0
11
0
21
0
0
TEXT
  8
Beam_Name
10
38.583
20
12.67
40
0.1
1
B8
50
0
41
1
7
STRUDS_Arial
72
0
11
0
21
0
0
TEXT
  8
Beam_Name
10
60.868
20
12.67
40
0.1
1
B9
50
0
41
1
7
STRUDS_Arial
72
0
11
0
21
0
0
TEXT
  8
Beam_Name
10
43.518
20
13.77
40
0.1
1
B10
50
0
41
1
7
STRUDS_Arial
72
0
11
0
21
0
0
TEXT
  8
Beam_Name
10
48.698
20
13.77
40
0.1
1
B11
50
0
41
1
7
STRUDS_Arial
72
0
11
0
21
0
0
TEXT
  8
Beam_Name
10
53.778
20
13.77
40
0.1
1
B12
50
0
41
1
7
STRUDS_Arial
72
0
11
0
21
0
0
TEXT
  8
Beam_Name
10
33.563
20
17.54
40
0.1
1
B13
50
0
41
1
7
STRUDS_Arial
72
0
11
0
21
0
0
TEXT
  8
Beam_Name
10
35.998
20
17.54
40
0.1
1
B14
50
0
41
1
7
STRUDS_Arial
72
0
11
0
21
0
0
TEXT
  8
Beam_Name
10
38.333
20
17.54
40
0.1
1
B15
50
0
41
1
7
STRUDS_Arial
72
0
11
0
21
0
0
TEXT
  8
Beam_Name
10
40.768
20
17.54
40
0.1
1
B16
50
0
41
1
7
STRUDS_Arial
72
0
11
0
21
0
0
TEXT
  8
Beam_Name
10
43.518
20
17.54
40
0.1
1
B17
50
0
41
1
7
STRUDS_Arial
72
0
11
0
21
0
0
TEXT
  8
Beam_Name
10
48.698
20
17.54
40
0.1
1
B18
50
0
41
1
7
STRUDS_Arial
72
0
11
0
21
0
0
TEXT
  8
Beam_Name
10
52.598
20
17.54
40
0.1
1
B19
50
0
41
1
7
STRUDS_Arial
72
0
11
0
21
0
0
TEXT
  8
Beam_Name
10
55.048
20
17.54
40
0.1
1
B20
50
0
41
1
7
STRUDS_Arial
72
0
11
0
21
0
0
TEXT
  8
Beam_Name
10
60.818
20
17.54
40
0.1
1
B21
50
0
41
1
7
STRUDS_Arial
72
0
11
0
21
0
0
TEXT
  8
Beam_Name
10
35.898
20
20.21
40
0.1
1
B22
50
0
41
1
7
STRUDS_Arial
72
0
11
0
21
0
0
TEXT
  8
Beam_Name
10
44.483
20
20.21
40
0.1
1
B23
50
0
41
1
7
STRUDS_Arial
72
0
11
0
21
0
0
TEXT
  8
Beam_Name
10
51.133
20
20.21
40
0.1
1
B24
50
0
41
1
7
STRUDS_Arial
72
0
11
0
21
0
0
TEXT
  8
Beam_Name
10
55.048
20
20.21
40
0.1
1
B25
50
0
41
1
7
STRUDS_Arial
72
0
11
0
21
0
0
TEXT
  8
Beam_Name
10
60.818
20
20.21
40
0.1
1
B26
50
0
41
1
7
STRUDS_Arial
72
0
11
0
21
0
0
TEXT
  8
Beam_Name
10
35.898
20
25.24
40
0.1
1
B27
50
0
41
1
7
STRUDS_Arial
72
0
11
0
21
0
0
TEXT
  8
Beam_Name
10
41.748
20
25.24
40
0.1
1
B28
50
0
41
1
7
STRUDS_Arial
72
0
11
0
21
0
0
TEXT
  8
Beam_Name
10
48.398
20
25.24
40
0.1
1
B29
50
0
41
1
7
STRUDS_Arial
72
0
11
0
21
0
0
TEXT
  8
Beam_Name
10
55.048
20
25.24
40
0.1
1
B30
50
0
41
1
7
STRUDS_Arial
72
0
11
0
21
0
0
TEXT
  8
Beam_Name
10
60.818
20
25.24
40
0.1
1
B31
50
0
41
1
7
STRUDS_Arial
72
0
11
0
21
0
0
TEXT
  8
Beam_Name
10
35.898
20
30.27
40
0.1
1
B32
50
0
41
1
7
STRUDS_Arial
72
0
11
0
21
0
0
TEXT
  8
Beam_Name
10
41.748
20
30.27
40
0.1
1
B33
50
0
41
1
7
STRUDS_Arial
72
0
11
0
21
0
0
TEXT
  8
Beam_Name
10
45.663
20
30.27
40
0.1
1
B34
50
0
41
1
7
STRUDS_Arial
72
0
11
0
21
0
0
TEXT
  8
Beam_Name
10
51.133
20
30.27
40
0.1
1
B35
50
0
41
1
7
STRUDS_Arial
72
0
11
0
21
0
0
TEXT
  8
Beam_Name
10
55.048
20
30.27
40
0.1
1
B36
50
0
41
1
7
STRUDS_Arial
72
0
11
0
21
0
0
TEXT
  8
Beam_Name
10
60.818
20
30.27
40
0.1
1
B37
50
0
41
1
7
STRUDS_Arial
72
0
11
0
21
0
0
TEXT
  8
Beam_Name
10
35.898
20
35.3
40
0.1
1
B38
50
0
41
1
7
STRUDS_Arial
72
0
11
0
21
0
0
TEXT
  8
Beam_Name
10
41.748
20
35.3
40
0.1
1
B39
50
0
41
1
7
STRUDS_Arial
72
0
11
0
21
0
0
TEXT
  8
Beam_Name
10
45.663
20
35.3
40
0.1
1
B40
50
0
41
1
7
STRUDS_Arial
72
0
11
0
21
0
0
TEXT
  8
Beam_Name
10
51.133
20
35.3
40
0.1
1
B41
50
0
41
1
7
STRUDS_Arial
72
0
11
0
21
0
0
TEXT
  8
Beam_Name
10
55.048
20
35.3
40
0.1
1
B42
50
0
41
1
7
STRUDS_Arial
72
0
11
0
21
0
0
TEXT
  8
Beam_Name
10
60.818
20
35.3
40
0.1
1
B43
50
0
41
1
7
STRUDS_Arial
72
0
11
0
21
0
0
TEXT
  8
Beam_Name
10
35.898
20
40.33
40
0.1
1
B44
50
0
41
1
7
STRUDS_Arial
72
0
11
0
21
0
0
TEXT
  8
Beam_Name
10
41.748
20
40.33
40
0.1
1
B45
50
0
41
1
7
STRUDS_Arial
72
0
11
0
21
0
0
TEXT
  8
Beam_Name
10
45.663
20
40.33
40
0.1
1
B46
50
0
41
1
7
STRUDS_Arial
72
0
11
0
21
0
0
TEXT
  8
Beam_Name
10
51.133
20
40.33
40
0.1
1
B47
50
0
41
1
7
STRUDS_Arial
72
0
11
0
21
0
0
TEXT
  8
Beam_Name
10
55.048
20
40.33
40
0.1
1
B48
50
0
41
1
7
STRUDS_Arial
72
0
11
0
21
0
0
TEXT
  8
Beam_Name
10
60.818
20
40.33
40
0.1
1
B49
50
0
41
1
7
STRUDS_Arial
72
0
11
0
21
0
0
TEXT
  8
Beam_Name
10
35.898
20
45.36
40
0.1
1
B50
50
0
41
1
7
STRUDS_Arial
72
0
11
0
21
0
0
TEXT
  8
Beam_Name
10
40.958
20
45.36
40
0.1
1
B51
50
0
41
1
7
STRUDS_Arial
72
0
11
0
21
0
0
TEXT
  8
Beam_Name
10
42.138
20
45.36
40
0.1
1
B52
50
0
41
1
7
STRUDS_Arial
72
0
11
0
21
0
0
TEXT
  8
Beam_Name
10
45.663
20
45.36
40
0.1
1
B53
50
0
41
1
7
STRUDS_Arial
72
0
11
0
21
0
0
TEXT
  8
Beam_Name
10
51.133
20
45.36
40
0.1
1
B54
50
0
41
1
7
STRUDS_Arial
72
0
11
0
21
0
0
TEXT
  8
Beam_Name
10
54.308
20
45.36
40
0.1
1
B55
50
0
41
1
7
STRUDS_Arial
72
0
11
0
21
0
0
TEXT
  8
Beam_Name
10
55.488
20
45.36
40
0.1
1
B56
50
0
41
1
7
STRUDS_Arial
72
0
11
0
21
0
0
TEXT
  8
Beam_Name
10
57.658
20
45.36
40
0.1
1
B57
50
0
41
1
7
STRUDS_Arial
72
0
11
0
21
0
0
TEXT
  8
Beam_Name
10
62.248
20
45.36
40
0.1
1
B58
50
0
41
1
7
STRUDS_Arial
72
0
11
0
21
0
0
TEXT
  8
Beam_Name
10
36.288
20
48.03
40
0.1
1
B59
50
0
41
1
7
STRUDS_Arial
72
0
11
0
21
0
0
TEXT
  8
Beam_Name
10
45.878
20
48.03
40
0.1
1
B60
50
0
41
1
7
STRUDS_Arial
72
0
11
0
21
0
0
TEXT
  8
Beam_Name
10
54.748
20
48.03
40
0.1
1
B61
50
0
41
1
7
STRUDS_Arial
72
0
11
0
21
0
0
TEXT
  8
Beam_Name
10
62.248
20
48.03
40
0.1
1
B62
50
0
41
1
7
STRUDS_Arial
72
0
11
0
21
0
0
TEXT
  8
Beam_Name
10
62.248
20
51.8
40
0.1
1
B63
50
0
41
1
7
STRUDS_Arial
72
0
11
0
21
0
0
TEXT
  8
Beam_Name
10
37.538
20
52.53
40
0.1
1
B64
50
0
41
1
7
STRUDS_Arial
72
0
11
0
21
0
0
TEXT
  8
Beam_Name
10
36.288
20
55.57
40
0.1
1
B65
50
0
41
1
7
STRUDS_Arial
72
0
11
0
21
0
0
TEXT
  8
Beam_Name
10
45.878
20
55.57
40
0.1
1
B66
50
0
41
1
7
STRUDS_Arial
72
0
11
0
21
0
0
TEXT
  8
Beam_Name
10
54.748
20
55.57
40
0.1
1
B67
50
0
41
1
7
STRUDS_Arial
72
0
11
0
21
0
0
TEXT
  8
Beam_Name
10
62.248
20
55.57
40
0.1
1
B68
50
0
41
1
7
STRUDS_Arial
72
0
11
0
21
0
0
TEXT
  8
Beam_Name
10
31.188
20
9.895
40
0.1
1
B69
50
90
41
1
7
STRUDS_Arial
72
0
11
0
21
0
0
TEXT
  8
Beam_Name
10
31.188
20
14.765
40
0.1
1
B70
50
90
41
1
7
STRUDS_Arial
72
0
11
0
21
0
0
TEXT
  8
Beam_Name
10
31.188
20
18.535
40
0.1
1
B71
50
90
41
1
7
STRUDS_Arial
72
0
11
0
21
0
0
TEXT
  8
Beam_Name
10
31.188
20
22.385
40
0.1
1
B72
50
90
41
1
7
STRUDS_Arial
72
0
11
0
21
0
0
TEXT
  8
Beam_Name
10
31.188
20
27.415
40
0.1
1
B73
50
90
41
1
7
STRUDS_Arial
72
0
11
0
21
0
0
TEXT
  8
Beam_Name
10
31.188
20
32.445
40
0.1
1
B74
50
90
41
1
7
STRUDS_Arial
72
0
11
0
21
0
0
TEXT
  8
Beam_Name
10
31.188
20
37.475
40
0.1
1
B75
50
90
41
1
7
STRUDS_Arial
72
0
11
0
21
0
0
TEXT
  8
Beam_Name
10
31.188
20
42.505
40
0.1
1
B76
50
90
41
1
7
STRUDS_Arial
72
0
11
0
21
0
0
TEXT
  8
Beam_Name
10
31.188
20
46.355
40
0.1
1
B77
50
90
41
1
7
STRUDS_Arial
72
0
11
0
21
0
0
TEXT
  8
Beam_Name
10
31.188
20
51.46
40
0.1
1
B78
50
90
41
1
7
STRUDS_Arial
72
0
11
0
21
0
0
TEXT
  8
Beam_Name
10
33.688
20
46.355
40
0.1
1
B79
50
90
41
1
7
STRUDS_Arial
72
0
11
0
21
0
0
TEXT
  8
Beam_Name
10
33.688
20
51.46
40
0.1
1
B80
50
90
41
1
7
STRUDS_Arial
72
0
11
0
21
0
0
TEXT
  8
Beam_Name
10
35.858
20
18.535
40
0.1
1
B81
50
90
41
1
7
STRUDS_Arial
72
0
11
0
21
0
0
TEXT
  8
Beam_Name
10
35.858
20
22.385
40
0.1
1
B82
50
90
41
1
7
STRUDS_Arial
72
0
11
0
21
0
0
TEXT
  8
Beam_Name
10
35.858
20
27.415
40
0.1
1
B83
50
90
41
1
7
STRUDS_Arial
72
0
11
0
21
0
0
TEXT
  8
Beam_Name
10
35.858
20
32.445
40
0.1
1
B84
50
90
41
1
7
STRUDS_Arial
72
0
11
0
21
0
0
TEXT
  8
Beam_Name
10
35.858
20
37.475
40
0.1
1
B85
50
90
41
1
7
STRUDS_Arial
72
0
11
0
21
0
0
TEXT
  8
Beam_Name
10
35.858
20
42.505
40
0.1
1
B86
50
90
41
1
7
STRUDS_Arial
72
0
11
0
21
0
0
TEXT
  8
Beam_Name
10
36.058
20
12.33
40
0.1
1
B87
50
90
41
1
7
STRUDS_Arial
72
0
11
0
21
0
0
TEXT
  8
Beam_Name
10
36.228
20
49.94
40
0.1
1
B88
50
90
41
1
7
STRUDS_Arial
72
0
11
0
21
0
0
TEXT
  8
Beam_Name
10
36.228
20
53.71
40
0.1
1
B89
50
90
41
1
7
STRUDS_Arial
72
0
11
0
21
0
0
TEXT
  8
Beam_Name
10
38.768
20
49.94
40
0.1
1
B90
50
90
41
1
7
STRUDS_Arial
72
0
11
0
21
0
0
TEXT
  8
Beam_Name
10
38.768
20
53.71
40
0.1
1
B91
50
90
41
1
7
STRUDS_Arial
72
0
11
0
21
0
0
TEXT
  8
Beam_Name
10
40.528
20
18.535
40
0.1
1
B92
50
90
41
1
7
STRUDS_Arial
72
0
11
0
21
0
0
TEXT
  8
Beam_Name
10
40.528
20
22.385
40
0.1
1
B93
50
90
41
1
7
STRUDS_Arial
72
0
11
0
21
0
0
TEXT
  8
Beam_Name
10
40.528
20
27.415
40
0.1
1
B94
50
90
41
1
7
STRUDS_Arial
72
0
11
0
21
0
0
TEXT
  8
Beam_Name
10
40.528
20
32.445
40
0.1
1
B95
50
90
41
1
7
STRUDS_Arial
72
0
11
0
21
0
0
TEXT
  8
Beam_Name
10
40.528
20
37.475
40
0.1
1
B96
50
90
41
1
7
STRUDS_Arial
72
0
11
0
21
0
0
TEXT
  8
Beam_Name
10
40.528
20
42.505
40
0.1
1
B97
50
90
41
1
7
STRUDS_Arial
72
0
11
0
21
0
0
TEXT
  8
Beam_Name
10
40.928
20
8.56
40
0.1
1
B98
50
90
41
1
7
STRUDS_Arial
72
0
11
0
21
0
0
TEXT
  8
Beam_Name
10
40.928
20
10.995
40
0.1
1
B99
50
90
41
1
7
STRUDS_Arial
72
0
11
0
21
0
0
TEXT
  8
Beam_Name
10
40.928
20
14.715
40
0.1
1
B100
50
90
41
1
7
STRUDS_Arial
72
0
11
0
21
0
0
TEXT
  8
Beam_Name
10
41.308
20
46.305
40
0.1
1
B101
50
90
41
1
7
STRUDS_Arial
72
0
11
0
21
0
0
TEXT
  8
Beam_Name
10
41.308
20
51.41
40
0.1
1
B102
50
90
41
1
7
STRUDS_Arial
72
0
11
0
21
0
0
TEXT
  8
Beam_Name
10
42.888
20
18.485
40
0.1
1
B103
50
90
41
1
7
STRUDS_Arial
72
0
11
0
21
0
0
TEXT
  8
Beam_Name
10
42.888
20
22.335
40
0.1
1
B104
50
90
41
1
7
STRUDS_Arial
72
0
11
0
21
0
0
TEXT
  8
Beam_Name
10
42.888
20
27.365
40
0.1
1
B105
50
90
41
1
7
STRUDS_Arial
72
0
11
0
21
0
0
TEXT
  8
Beam_Name
10
42.888
20
32.395
40
0.1
1
B106
50
90
41
1
7
STRUDS_Arial
72
0
11
0
21
0
0
TEXT
  8
Beam_Name
10
42.888
20
37.425
40
0.1
1
B107
50
90
41
1
7
STRUDS_Arial
72
0
11
0
21
0
0
TEXT
  8
Beam_Name
10
42.888
20
42.455
40
0.1
1
B108
50
90
41
1
7
STRUDS_Arial
72
0
11
0
21
0
0
TEXT
  8
Beam_Name
10
45.838
20
46.305
40
0.1
1
B109
50
90
41
1
7
STRUDS_Arial
72
0
11
0
21
0
0
TEXT
  8
Beam_Name
10
45.838
20
51.41
40
0.1
1
B110
50
90
41
1
7
STRUDS_Arial
72
0
11
0
21
0
0
TEXT
  8
Beam_Name
10
46.028
20
13.38
40
0.1
1
B111
50
90
41
1
7
STRUDS_Arial
72
0
11
0
21
0
0
TEXT
  8
Beam_Name
10
48.358
20
21
40
0.1
1
B112
50
90
41
1
7
STRUDS_Arial
72
0
11
0
21
0
0
TEXT
  8
Beam_Name
10
48.358
20
27.365
40
0.1
1
B113
50
90
41
1
7
STRUDS_Arial
72
0
11
0
21
0
0
TEXT
  8
Beam_Name
10
48.358
20
32.395
40
0.1
1
B114
50
90
41
1
7
STRUDS_Arial
72
0
11
0
21
0
0
TEXT
  8
Beam_Name
10
48.358
20
37.425
40
0.1
1
B115
50
90
41
1
7
STRUDS_Arial
72
0
11
0
21
0
0
TEXT
  8
Beam_Name
10
48.358
20
42.455
40
0.1
1
B116
50
90
41
1
7
STRUDS_Arial
72
0
11
0
21
0
0
TEXT
  8
Beam_Name
10
50.368
20
46.305
40
0.1
1
B117
50
90
41
1
7
STRUDS_Arial
72
0
11
0
21
0
0
TEXT
  8
Beam_Name
10
50.368
20
51.41
40
0.1
1
B118
50
90
41
1
7
STRUDS_Arial
72
0
11
0
21
0
0
TEXT
  8
Beam_Name
10
51.288
20
10.945
40
0.1
1
B119
50
90
41
1
7
STRUDS_Arial
72
0
11
0
21
0
0
TEXT
  8
Beam_Name
10
51.288
20
14.715
40
0.1
1
B120
50
90
41
1
7
STRUDS_Arial
72
0
11
0
21
0
0
TEXT
  8
Beam_Name
10
53.828
20
21
40
0.1
1
B121
50
90
41
1
7
STRUDS_Arial
72
0
11
0
21
0
0
TEXT
  8
Beam_Name
10
53.828
20
27.365
40
0.1
1
B122
50
90
41
1
7
STRUDS_Arial
72
0
11
0
21
0
0
TEXT
  8
Beam_Name
10
53.828
20
32.395
40
0.1
1
B123
50
90
41
1
7
STRUDS_Arial
72
0
11
0
21
0
0
TEXT
  8
Beam_Name
10
53.828
20
37.425
40
0.1
1
B124
50
90
41
1
7
STRUDS_Arial
72
0
11
0
21
0
0
TEXT
  8
Beam_Name
10
53.828
20
42.455
40
0.1
1
B125
50
90
41
1
7
STRUDS_Arial
72
0
11
0
21
0
0
TEXT
  8
Beam_Name
10
54.708
20
46.305
40
0.1
1
B126
50
90
41
1
7
STRUDS_Arial
72
0
11
0
21
0
0
TEXT
  8
Beam_Name
10
54.708
20
51.41
40
0.1
1
B127
50
90
41
1
7
STRUDS_Arial
72
0
11
0
21
0
0
TEXT
  8
Beam_Name
10
56.188
20
9.845
40
0.1
1
B128
50
90
41
1
7
STRUDS_Arial
72
0
11
0
21
0
0
TEXT
  8
Beam_Name
10
56.188
20
12.83
40
0.1
1
B129
50
90
41
1
7
STRUDS_Arial
72
0
11
0
21
0
0
TEXT
  8
Beam_Name
10
56.188
20
15.265
40
0.1
1
B130
50
90
41
1
7
STRUDS_Arial
72
0
11
0
21
0
0
TEXT
  8
Beam_Name
10
56.188
20
18.485
40
0.1
1
B131
50
90
41
1
7
STRUDS_Arial
72
0
11
0
21
0
0
TEXT
  8
Beam_Name
10
56.188
20
22.335
40
0.1
1
B132
50
90
41
1
7
STRUDS_Arial
72
0
11
0
21
0
0
TEXT
  8
Beam_Name
10
56.188
20
27.365
40
0.1
1
B133
50
90
41
1
7
STRUDS_Arial
72
0
11
0
21
0
0
TEXT
  8
Beam_Name
10
56.188
20
32.395
40
0.1
1
B134
50
90
41
1
7
STRUDS_Arial
72
0
11
0
21
0
0
TEXT
  8
Beam_Name
10
56.188
20
37.425
40
0.1
1
B135
50
90
41
1
7
STRUDS_Arial
72
0
11
0
21
0
0
TEXT
  8
Beam_Name
10
56.188
20
42.455
40
0.1
1
B136
50
90
41
1
7
STRUDS_Arial
72
0
11
0
21
0
0
TEXT
  8
Beam_Name
10
59.048
20
46.305
40
0.1
1
B137
50
90
41
1
7
STRUDS_Arial
72
0
11
0
21
0
0
TEXT
  8
Beam_Name
10
59.048
20
51.41
40
0.1
1
B138
50
90
41
1
7
STRUDS_Arial
72
0
11
0
21
0
0
TEXT
  8
Beam_Name
10
60.778
20
9.845
40
0.1
1
B139
50
90
41
1
7
STRUDS_Arial
72
0
11
0
21
0
0
TEXT
  8
Beam_Name
10
60.778
20
14.715
40
0.1
1
B140
50
90
41
1
7
STRUDS_Arial
72
0
11
0
21
0
0
TEXT
  8
Beam_Name
10
60.778
20
18.485
40
0.1
1
B141
50
90
41
1
7
STRUDS_Arial
72
0
11
0
21
0
0
TEXT
  8
Beam_Name
10
60.778
20
22.335
40
0.1
1
B142
50
90
41
1
7
STRUDS_Arial
72
0
11
0
21
0
0
TEXT
  8
Beam_Name
10
60.778
20
27.365
40
0.1
1
B143
50
90
41
1
7
STRUDS_Arial
72
0
11
0
21
0
0
TEXT
  8
Beam_Name
10
60.778
20
32.395
40
0.1
1
B144
50
90
41
1
7
STRUDS_Arial
72
0
11
0
21
0
0
TEXT
  8
Beam_Name
10
60.778
20
37.425
40
0.1
1
B145
50
90
41
1
7
STRUDS_Arial
72
0
11
0
21
0
0
TEXT
  8
Beam_Name
10
60.778
20
42.455
40
0.1
1
B146
50
90
41
1
7
STRUDS_Arial
72
0
11
0
21
0
0
TEXT
  8
Beam_Name
10
65.368
20
9.845
40
0.1
1
B147
50
90
41
1
7
STRUDS_Arial
72
0
11
0
21
0
0
TEXT
  8
Beam_Name
10
65.368
20
14.715
40
0.1
1
B148
50
90
41
1
7
STRUDS_Arial
72
0
11
0
21
0
0
TEXT
  8
Beam_Name
10
65.368
20
18.485
40
0.1
1
B149
50
90
41
1
7
STRUDS_Arial
72
0
11
0
21
0
0
TEXT
  8
Beam_Name
10
65.368
20
22.335
40
0.1
1
B150
50
90
41
1
7
STRUDS_Arial
72
0
11
0
21
0
0
TEXT
  8
Beam_Name
10
65.368
20
27.365
40
0.1
1
B151
50
90
41
1
7
STRUDS_Arial
72
0
11
0
21
0
0
TEXT
  8
Beam_Name
10
65.368
20
32.395
40
0.1
1
B152
50
90
41
1
7
STRUDS_Arial
72
0
11
0
21
0
0
TEXT
  8
Beam_Name
10
65.368
20
37.425
40
0.1
1
B153
50
90
41
1
7
STRUDS_Arial
72
0
11
0
21
0
0
TEXT
  8
Beam_Name
10
65.368
20
42.455
40
0.1
1
B154
50
90
41
1
7
STRUDS_Arial
72
0
11
0
21
0
0
TEXT
  8
Beam_Name
10
65.368
20
46.305
40
0.1
1
B155
50
90
41
1
7
STRUDS_Arial
72
0
11
0
21
0
0
TEXT
  8
Beam_Name
10
65.368
20
51.41
40
0.1
1
B156
50
90
41
1
7
STRUDS_Arial
72
0
11
0
21
0
0
TEXT
  8
GridName
10
29.2323
20
7.56
40
0.1
1
1
50
0
41
1
7
STRUDS_Arial
72
0
11
0
21
0
  0
CIRCLE
  8
GridName
 10
29.2823
 20
7.61
 40
0.0957107
  0
LINE
  8
CenterLine
6
ACAD_ISO02W100
 48
0.01
 10
29.378
 20
7.61
 11
31.378
 21
7.61
0
TEXT
  8
GridName
10
67.6037
20
7.56
40
0.1
1
1
50
0
41
1
7
STRUDS_Arial
72
0
11
0
21
0
  0
CIRCLE
  8
GridName
 10
67.6537
 20
7.61
 40
0.0957107
  0
LINE
  8
CenterLine
6
ACAD_ISO02W100
 48
0.01
 10
41.118
 20
7.61
 11
67.558
 21
7.61
0
TEXT
  8
GridName
10
29.2323
20
9.76
40
0.1
1
2
50
0
41
1
7
STRUDS_Arial
72
0
11
0
21
0
  0
CIRCLE
  8
GridName
 10
29.2823
 20
9.81
 40
0.0957107
  0
LINE
  8
CenterLine
6
ACAD_ISO02W100
 48
0.01
 10
29.378
 20
9.81
 11
41.118
 21
9.81
0
TEXT
  8
GridName
10
67.6037
20
9.76
40
0.1
1
2
50
0
41
1
7
STRUDS_Arial
72
0
11
0
21
0
  0
CIRCLE
  8
GridName
 10
67.6537
 20
9.81
 40
0.0957107
  0
LINE
  8
CenterLine
6
ACAD_ISO02W100
 48
0.01
 10
56.378
 20
9.81
 11
67.558
 21
9.81
0
TEXT
  8
GridName
10
29.2323
20
12.43
40
0.1
1
3
50
0
41
1
7
STRUDS_Arial
72
0
11
0
21
0
  0
CIRCLE
  8
GridName
 10
29.2823
 20
12.48
 40
0.0957107
  0
LINE
  8
CenterLine
6
ACAD_ISO02W100
 48
0.01
 10
29.378
 20
12.48
 11
31.378
 21
12.48
0
TEXT
  8
GridName
10
67.6037
20
12.43
40
0.1
1
3
50
0
41
1
7
STRUDS_Arial
72
0
11
0
21
0
  0
CIRCLE
  8
GridName
 10
67.6537
 20
12.48
 40
0.0957107
  0
LINE
  8
CenterLine
6
ACAD_ISO02W100
 48
0.01
 10
41.118
 20
12.48
 11
67.558
 21
12.48
0
TEXT
  8
GridName
10
29.2323
20
13.53
40
0.1
1
4
50
0
41
1
7
STRUDS_Arial
72
0
11
0
21
0
  0
CIRCLE
  8
GridName
 10
29.2823
 20
13.58
 40
0.0957107
  0
LINE
  8
CenterLine
6
ACAD_ISO02W100
 48
0.01
 10
29.378
 20
13.58
 11
41.118
 21
13.58
0
TEXT
  8
GridName
10
67.6037
20
13.53
40
0.1
1
4
50
0
41
1
7
STRUDS_Arial
72
0
11
0
21
0
  0
CIRCLE
  8
GridName
 10
67.6537
 20
13.58
 40
0.0957107
  0
LINE
  8
CenterLine
6
ACAD_ISO02W100
 48
0.01
 10
56.378
 20
13.58
 11
67.558
 21
13.58
0
TEXT
  8
GridName
10
29.2323
20
17.3
40
0.1
1
5
50
0
41
1
7
STRUDS_Arial
72
0
11
0
21
0
  0
CIRCLE
  8
GridName
 10
29.2823
 20
17.35
 40
0.0957107
  0
LINE
  8
CenterLine
6
ACAD_ISO02W100
 48
0.01
 10
29.378
 20
17.35
 11
31.378
 21
17.35
0
TEXT
  8
GridName
10
67.6037
20
17.3
40
0.1
1
5
50
0
41
1
7
STRUDS_Arial
72
0
11
0
21
0
  0
CIRCLE
  8
GridName
 10
67.6537
 20
17.35
 40
0.0957107
  0
LINE
  8
CenterLine
6
ACAD_ISO02W100
 48
0.01
 10
65.558
 20
17.35
 11
67.558
 21
17.35
0
TEXT
  8
GridName
10
29.2323
20
19.97
40
0.1
1
6
50
0
41
1
7
STRUDS_Arial
72
0
11
0
21
0
  0
CIRCLE
  8
GridName
 10
29.2823
 20
20.02
 40
0.0957107
  0
LINE
  8
CenterLine
6
ACAD_ISO02W100
 48
0.01
 10
29.378
 20
20.02
 11
31.378
 21
20.02
0
TEXT
  8
GridName
10
67.6037
20
19.97
40
0.1
1
6
50
0
41
1
7
STRUDS_Arial
72
0
11
0
21
0
  0
CIRCLE
  8
GridName
 10
67.6537
 20
20.02
 40
0.0957107
  0
LINE
  8
CenterLine
6
ACAD_ISO02W100
 48
0.01
 10
65.558
 20
20.02
 11
67.558
 21
20.02
0
TEXT
  8
GridName
10
29.2323
20
25
40
0.1
1
7
50
0
41
1
7
STRUDS_Arial
72
0
11
0
21
0
  0
CIRCLE
  8
GridName
 10
29.2823
 20
25.05
 40
0.0957107
  0
LINE
  8
CenterLine
6
ACAD_ISO02W100
 48
0.01
 10
29.378
 20
25.05
 11
31.378
 21
25.05
0
TEXT
  8
GridName
10
67.6037
20
25
40
0.1
1
7
50
0
41
1
7
STRUDS_Arial
72
0
11
0
21
0
  0
CIRCLE
  8
GridName
 10
67.6537
 20
25.05
 40
0.0957107
  0
LINE
  8
CenterLine
6
ACAD_ISO02W100
 48
0.01
 10
65.558
 20
25.05
 11
67.558
 21
25.05
0
TEXT
  8
GridName
10
29.2323
20
30.03
40
0.1
1
8
50
0
41
1
7
STRUDS_Arial
72
0
11
0
21
0
  0
CIRCLE
  8
GridName
 10
29.2823
 20
30.08
 40
0.0957107
  0
LINE
  8
CenterLine
6
ACAD_ISO02W100
 48
0.01
 10
29.378
 20
30.08
 11
31.378
 21
30.08
0
TEXT
  8
GridName
10
67.6037
20
30.03
40
0.1
1
8
50
0
41
1
7
STRUDS_Arial
72
0
11
0
21
0
  0
CIRCLE
  8
GridName
 10
67.6537
 20
30.08
 40
0.0957107
  0
LINE
  8
CenterLine
6
ACAD_ISO02W100
 48
0.01
 10
65.558
 20
30.08
 11
67.558
 21
30.08
0
TEXT
  8
GridName
10
29.2323
20
35.06
40
0.1
1
9
50
0
41
1
7
STRUDS_Arial
72
0
11
0
21
0
  0
CIRCLE
  8
GridName
 10
29.2823
 20
35.11
 40
0.0957107
  0
LINE
  8
CenterLine
6
ACAD_ISO02W100
 48
0.01
 10
29.378
 20
35.11
 11
31.378
 21
35.11
0
TEXT
  8
GridName
10
67.6037
20
35.06
40
0.1
1
9
50
0
41
1
7
STRUDS_Arial
72
0
11
0
21
0
  0
CIRCLE
  8
GridName
 10
67.6537
 20
35.11
 40
0.0957107
  0
LINE
  8
CenterLine
6
ACAD_ISO02W100
 48
0.01
 10
65.558
 20
35.11
 11
67.558
 21
35.11
0
TEXT
  8
GridName
10
29.1412
20
40.09
40
0.1
1
10
50
0
41
1
7
STRUDS_Arial
72
0
11
0
21
0
  0
CIRCLE
  8
GridName
 10
29.2412
 20
40.14
 40
0.136803
  0
LINE
  8
CenterLine
6
ACAD_ISO02W100
 48
0.01
 10
29.378
 20
40.14
 11
31.378
 21
40.14
0
TEXT
  8
GridName
10
67.5948
20
40.09
40
0.1
1
10
50
0
41
1
7
STRUDS_Arial
72
0
11
0
21
0
  0
CIRCLE
  8
GridName
 10
67.6948
 20
40.14
 40
0.136803
  0
LINE
  8
CenterLine
6
ACAD_ISO02W100
 48
0.01
 10
65.558
 20
40.14
 11
67.558
 21
40.14
0
TEXT
  8
GridName
10
29.1412
20
45.12
40
0.1
1
11
50
0
41
1
7
STRUDS_Arial
72
0
11
0
21
0
  0
CIRCLE
  8
GridName
 10
29.2412
 20
45.17
 40
0.136803
  0
LINE
  8
CenterLine
6
ACAD_ISO02W100
 48
0.01
 10
29.378
 20
45.17
 11
31.378
 21
45.17
0
TEXT
  8
GridName
10
67.5948
20
45.12
40
0.1
1
11
50
0
41
1
7
STRUDS_Arial
72
0
11
0
21
0
  0
CIRCLE
  8
GridName
 10
67.6948
 20
45.17
 40
0.136803
  0
LINE
  8
CenterLine
6
ACAD_ISO02W100
 48
0.01
 10
65.558
 20
45.17
 11
67.558
 21
45.17
0
TEXT
  8
GridName
10
29.1412
20
47.79
40
0.1
1
12
50
0
41
1
7
STRUDS_Arial
72
0
11
0
21
0
  0
CIRCLE
  8
GridName
 10
29.2412
 20
47.84
 40
0.136803
  0
LINE
  8
CenterLine
6
ACAD_ISO02W100
 48
0.01
 10
29.378
 20
47.84
 11
31.378
 21
47.84
0
TEXT
  8
GridName
10
67.5948
20
47.79
40
0.1
1
12
50
0
41
1
7
STRUDS_Arial
72
0
11
0
21
0
  0
CIRCLE
  8
GridName
 10
67.6948
 20
47.84
 40
0.136803
  0
LINE
  8
CenterLine
6
ACAD_ISO02W100
 48
0.01
 10
65.558
 20
47.84
 11
67.558
 21
47.84
0
TEXT
  8
GridName
10
29.1412
20
51.56
40
0.1
1
13
50
0
41
1
7
STRUDS_Arial
72
0
11
0
21
0
  0
CIRCLE
  8
GridName
 10
29.2412
 20
51.61
 40
0.136803
  0
LINE
  8
CenterLine
6
ACAD_ISO02W100
 48
0.01
 10
29.378
 20
51.61
 11
59.238
 21
51.61
0
TEXT
  8
GridName
10
67.5948
20
51.56
40
0.1
1
13
50
0
41
1
7
STRUDS_Arial
72
0
11
0
21
0
  0
CIRCLE
  8
GridName
 10
67.6948
 20
51.61
 40
0.136803
  0
LINE
  8
CenterLine
6
ACAD_ISO02W100
 48
0.01
 10
65.558
 20
51.61
 11
67.558
 21
51.61
0
TEXT
  8
GridName
10
27.1412
20
52.29
40
0.1
1
14
50
0
41
1
7
STRUDS_Arial
72
0
11
0
21
0
  0
CIRCLE
  8
GridName
 10
27.2412
 20
52.34
 40
0.136803
  0
LINE
  8
CenterLine
6
ACAD_ISO02W100
 48
0.01
 10
27.378
 20
52.34
 11
33.878
 21
52.34
0
TEXT
  8
GridName
10
69.5948
20
52.29
40
0.1
1
14
50
0
41
1
7
STRUDS_Arial
72
0
11
0
21
0
  0
CIRCLE
  8
GridName
 10
69.6948
 20
52.34
 40
0.136803
  0
LINE
  8
CenterLine
6
ACAD_ISO02W100
 48
0.01
 10
41.498
 20
52.34
 11
69.558
 21
52.34
0
TEXT
  8
GridName
10
29.1412
20
55.33
40
0.1
1
15
50
0
41
1
7
STRUDS_Arial
72
0
11
0
21
0
  0
CIRCLE
  8
GridName
 10
29.2412
 20
55.38
 40
0.136803
  0
LINE
  8
CenterLine
6
ACAD_ISO02W100
 48
0.01
 10
29.378
 20
55.38
 11
31.378
 21
55.38
0
TEXT
  8
GridName
10
67.5948
20
55.33
40
0.1
1
15
50
0
41
1
7
STRUDS_Arial
72
0
11
0
21
0
  0
CIRCLE
  8
GridName
 10
67.6948
 20
55.38
 40
0.136803
  0
LINE
  8
CenterLine
6
ACAD_ISO02W100
 48
0.01
 10
65.558
 20
55.38
 11
67.558
 21
55.38
  0
SOLID
  8
Grid_Dimension
 10
29.878
 20
7.61
 11
29.8364
 21
7.86
 12
29.878
 22
7.61
 13
29.9196
 23
7.86
  0
LINE
  8
Grid_Dimension
 10
29.878
 20
7.61
 11
29.878
 21
9.81
  0
SOLID
  8
Grid_Dimension
 10
29.878
 20
9.81
 11
29.8364
 21
9.56
 12
29.878
 22
9.81
 13
29.9196
 23
9.56
0
TEXT
  8
Grid_Dimension
10
29.858
20
8.578
40
0.1
1
2200
50
90
41
1
7
stylebar
72
0
11
0
21
0
  0
SOLID
  8
Grid_Dimension
 10
67.058
 20
7.61
 11
67.0164
 21
7.86
 12
67.058
 22
7.61
 13
67.0996
 23
7.86
  0
LINE
  8
Grid_Dimension
 10
67.058
 20
7.61
 11
67.058
 21
9.81
  0
SOLID
  8
Grid_Dimension
 10
67.058
 20
9.81
 11
67.0164
 21
9.56
 12
67.058
 22
9.81
 13
67.0996
 23
9.56
0
TEXT
  8
Grid_Dimension
10
67.038
20
8.578
40
0.1
1
2200
50
90
41
1
7
stylebar
72
0
11
0
21
0
  0
SOLID
  8
Grid_Dimension
 10
29.878
 20
9.81
 11
29.8364
 21
10.06
 12
29.878
 22
9.81
 13
29.9196
 23
10.06
  0
LINE
  8
Grid_Dimension
 10
29.878
 20
9.81
 11
29.878
 21
12.48
  0
SOLID
  8
Grid_Dimension
 10
29.878
 20
12.48
 11
29.8364
 21
12.23
 12
29.878
 22
12.48
 13
29.9196
 23
12.23
0
TEXT
  8
Grid_Dimension
10
29.858
20
11.013
40
0.1
1
2670
50
90
41
1
7
stylebar
72
0
11
0
21
0
  0
SOLID
  8
Grid_Dimension
 10
67.058
 20
9.81
 11
67.0164
 21
10.06
 12
67.058
 22
9.81
 13
67.0996
 23
10.06
  0
LINE
  8
Grid_Dimension
 10
67.058
 20
9.81
 11
67.058
 21
12.48
  0
SOLID
  8
Grid_Dimension
 10
67.058
 20
12.48
 11
67.0164
 21
12.23
 12
67.058
 22
12.48
 13
67.0996
 23
12.23
0
TEXT
  8
Grid_Dimension
10
67.038
20
11.013
40
0.1
1
2670
50
90
41
1
7
stylebar
72
0
11
0
21
0
  0
SOLID
  8
Grid_Dimension
 10
29.878
 20
12.48
 11
29.8364
 21
12.73
 12
29.878
 22
12.48
 13
29.9196
 23
12.73
  0
LINE
  8
Grid_Dimension
 10
29.878
 20
12.48
 11
29.878
 21
13.58
  0
SOLID
  8
Grid_Dimension
 10
29.878
 20
13.58
 11
29.8364
 21
13.33
 12
29.878
 22
13.58
 13
29.9196
 23
13.33
0
TEXT
  8
Grid_Dimension
10
29.858
20
12.898
40
0.1
1
1100
50
90
41
1
7
stylebar
72
0
11
0
21
0
  0
SOLID
  8
Grid_Dimension
 10
67.058
 20
12.48
 11
67.0164
 21
12.73
 12
67.058
 22
12.48
 13
67.0996
 23
12.73
  0
LINE
  8
Grid_Dimension
 10
67.058
 20
12.48
 11
67.058
 21
13.58
  0
SOLID
  8
Grid_Dimension
 10
67.058
 20
13.58
 11
67.0164
 21
13.33
 12
67.058
 22
13.58
 13
67.0996
 23
13.33
0
TEXT
  8
Grid_Dimension
10
67.038
20
12.898
40
0.1
1
1100
50
90
41
1
7
stylebar
72
0
11
0
21
0
  0
SOLID
  8
Grid_Dimension
 10
29.878
 20
13.58
 11
29.8364
 21
13.83
 12
29.878
 22
13.58
 13
29.9196
 23
13.83
  0
LINE
  8
Grid_Dimension
 10
29.878
 20
13.58
 11
29.878
 21
17.35
  0
SOLID
  8
Grid_Dimension
 10
29.878
 20
17.35
 11
29.8364
 21
17.1
 12
29.878
 22
17.35
 13
29.9196
 23
17.1
0
TEXT
  8
Grid_Dimension
10
29.858
20
15.333
40
0.1
1
3770
50
90
41
1
7
stylebar
72
0
11
0
21
0
  0
SOLID
  8
Grid_Dimension
 10
67.058
 20
13.58
 11
67.0164
 21
13.83
 12
67.058
 22
13.58
 13
67.0996
 23
13.83
  0
LINE
  8
Grid_Dimension
 10
67.058
 20
13.58
 11
67.058
 21
17.35
  0
SOLID
  8
Grid_Dimension
 10
67.058
 20
17.35
 11
67.0164
 21
17.1
 12
67.058
 22
17.35
 13
67.0996
 23
17.1
0
TEXT
  8
Grid_Dimension
10
67.038
20
15.333
40
0.1
1
3770
50
90
41
1
7
stylebar
72
0
11
0
21
0
  0
SOLID
  8
Grid_Dimension
 10
29.878
 20
17.35
 11
29.8364
 21
17.6
 12
29.878
 22
17.35
 13
29.9196
 23
17.6
  0
LINE
  8
Grid_Dimension
 10
29.878
 20
17.35
 11
29.878
 21
20.02
  0
SOLID
  8
Grid_Dimension
 10
29.878
 20
20.02
 11
29.8364
 21
19.77
 12
29.878
 22
20.02
 13
29.9196
 23
19.77
0
TEXT
  8
Grid_Dimension
10
29.858
20
18.553
40
0.1
1
2670
50
90
41
1
7
stylebar
72
0
11
0
21
0
  0
SOLID
  8
Grid_Dimension
 10
67.058
 20
17.35
 11
67.0164
 21
17.6
 12
67.058
 22
17.35
 13
67.0996
 23
17.6
  0
LINE
  8
Grid_Dimension
 10
67.058
 20
17.35
 11
67.058
 21
20.02
  0
SOLID
  8
Grid_Dimension
 10
67.058
 20
20.02
 11
67.0164
 21
19.77
 12
67.058
 22
20.02
 13
67.0996
 23
19.77
0
TEXT
  8
Grid_Dimension
10
67.038
20
18.553
40
0.1
1
2670
50
90
41
1
7
stylebar
72
0
11
0
21
0
  0
SOLID
  8
Grid_Dimension
 10
29.878
 20
20.02
 11
29.8364
 21
20.27
 12
29.878
 22
20.02
 13
29.9196
 23
20.27
  0
LINE
  8
Grid_Dimension
 10
29.878
 20
20.02
 11
29.878
 21
25.05
  0
SOLID
  8
Grid_Dimension
 10
29.878
 20
25.05
 11
29.8364
 21
24.8
 12
29.878
 22
25.05
 13
29.9196
 23
24.8
0
TEXT
  8
Grid_Dimension
10
29.858
20
22.403
40
0.1
1
5030
50
90
41
1
7
stylebar
72
0
11
0
21
0
  0
SOLID
  8
Grid_Dimension
 10
67.058
 20
20.02
 11
67.0164
 21
20.27
 12
67.058
 22
20.02
 13
67.0996
 23
20.27
  0
LINE
  8
Grid_Dimension
 10
67.058
 20
20.02
 11
67.058
 21
25.05
  0
SOLID
  8
Grid_Dimension
 10
67.058
 20
25.05
 11
67.0164
 21
24.8
 12
67.058
 22
25.05
 13
67.0996
 23
24.8
0
TEXT
  8
Grid_Dimension
10
67.038
20
22.403
40
0.1
1
5030
50
90
41
1
7
stylebar
72
0
11
0
21
0
  0
SOLID
  8
Grid_Dimension
 10
29.878
 20
25.05
 11
29.8364
 21
25.3
 12
29.878
 22
25.05
 13
29.9196
 23
25.3
  0
LINE
  8
Grid_Dimension
 10
29.878
 20
25.05
 11
29.878
 21
30.08
  0
SOLID
  8
Grid_Dimension
 10
29.878
 20
30.08
 11
29.8364
 21
29.83
 12
29.878
 22
30.08
 13
29.9196
 23
29.83
0
TEXT
  8
Grid_Dimension
10
29.858
20
27.433
40
0.1
1
5030
50
90
41
1
7
stylebar
72
0
11
0
21
0
  0
SOLID
  8
Grid_Dimension
 10
67.058
 20
25.05
 11
67.0164
 21
25.3
 12
67.058
 22
25.05
 13
67.0996
 23
25.3
  0
LINE
  8
Grid_Dimension
 10
67.058
 20
25.05
 11
67.058
 21
30.08
  0
SOLID
  8
Grid_Dimension
 10
67.058
 20
30.08
 11
67.0164
 21
29.83
 12
67.058
 22
30.08
 13
67.0996
 23
29.83
0
TEXT
  8
Grid_Dimension
10
67.038
20
27.433
40
0.1
1
5030
50
90
41
1
7
stylebar
72
0
11
0
21
0
  0
SOLID
  8
Grid_Dimension
 10
29.878
 20
30.08
 11
29.8364
 21
30.33
 12
29.878
 22
30.08
 13
29.9196
 23
30.33
  0
LINE
  8
Grid_Dimension
 10
29.878
 20
30.08
 11
29.878
 21
35.11
  0
SOLID
  8
Grid_Dimension
 10
29.878
 20
35.11
 11
29.8364
 21
34.86
 12
29.878
 22
35.11
 13
29.9196
 23
34.86
0
TEXT
  8
Grid_Dimension
10
29.858
20
32.463
40
0.1
1
5030
50
90
41
1
7
stylebar
72
0
11
0
21
0
  0
SOLID
  8
Grid_Dimension
 10
67.058
 20
30.08
 11
67.0164
 21
30.33
 12
67.058
 22
30.08
 13
67.0996
 23
30.33
  0
LINE
  8
Grid_Dimension
 10
67.058
 20
30.08
 11
67.058
 21
35.11
  0
SOLID
  8
Grid_Dimension
 10
67.058
 20
35.11
 11
67.0164
 21
34.86
 12
67.058
 22
35.11
 13
67.0996
 23
34.86
0
TEXT
  8
Grid_Dimension
10
67.038
20
32.463
40
0.1
1
5030
50
90
41
1
7
stylebar
72
0
11
0
21
0
  0
SOLID
  8
Grid_Dimension
 10
29.878
 20
35.11
 11
29.8364
 21
35.36
 12
29.878
 22
35.11
 13
29.9196
 23
35.36
  0
LINE
  8
Grid_Dimension
 10
29.878
 20
35.11
 11
29.878
 21
40.14
  0
SOLID
  8
Grid_Dimension
 10
29.878
 20
40.14
 11
29.8364
 21
39.89
 12
29.878
 22
40.14
 13
29.9196
 23
39.89
0
TEXT
  8
Grid_Dimension
10
29.858
20
37.493
40
0.1
1
5030
50
90
41
1
7
stylebar
72
0
11
0
21
0
  0
SOLID
  8
Grid_Dimension
 10
67.058
 20
35.11
 11
67.0164
 21
35.36
 12
67.058
 22
35.11
 13
67.0996
 23
35.36
  0
LINE
  8
Grid_Dimension
 10
67.058
 20
35.11
 11
67.058
 21
40.14
  0
SOLID
  8
Grid_Dimension
 10
67.058
 20
40.14
 11
67.0164
 21
39.89
 12
67.058
 22
40.14
 13
67.0996
 23
39.89
0
TEXT
  8
Grid_Dimension
10
67.038
20
37.493
40
0.1
1
5030
50
90
41
1
7
stylebar
72
0
11
0
21
0
  0
SOLID
  8
Grid_Dimension
 10
29.878
 20
40.14
 11
29.8364
 21
40.39
 12
29.878
 22
40.14
 13
29.9196
 23
40.39
  0
LINE
  8
Grid_Dimension
 10
29.878
 20
40.14
 11
29.878
 21
45.17
  0
SOLID
  8
Grid_Dimension
 10
29.878
 20
45.17
 11
29.8364
 21
44.92
 12
29.878
 22
45.17
 13
29.9196
 23
44.92
0
TEXT
  8
Grid_Dimension
10
29.858
20
42.523
40
0.1
1
5030
50
90
41
1
7
stylebar
72
0
11
0
21
0
  0
SOLID
  8
Grid_Dimension
 10
67.058
 20
40.14
 11
67.0164
 21
40.39
 12
67.058
 22
40.14
 13
67.0996
 23
40.39
  0
LINE
  8
Grid_Dimension
 10
67.058
 20
40.14
 11
67.058
 21
45.17
  0
SOLID
  8
Grid_Dimension
 10
67.058
 20
45.17
 11
67.0164
 21
44.92
 12
67.058
 22
45.17
 13
67.0996
 23
44.92
0
TEXT
  8
Grid_Dimension
10
67.038
20
42.523
40
0.1
1
5030
50
90
41
1
7
stylebar
72
0
11
0
21
0
  0
SOLID
  8
Grid_Dimension
 10
29.878
 20
45.17
 11
29.8364
 21
45.42
 12
29.878
 22
45.17
 13
29.9196
 23
45.42
  0
LINE
  8
Grid_Dimension
 10
29.878
 20
45.17
 11
29.878
 21
47.84
  0
SOLID
  8
Grid_Dimension
 10
29.878
 20
47.84
 11
29.8364
 21
47.59
 12
29.878
 22
47.84
 13
29.9196
 23
47.59
0
TEXT
  8
Grid_Dimension
10
29.858
20
46.373
40
0.1
1
2670
50
90
41
1
7
stylebar
72
0
11
0
21
0
  0
SOLID
  8
Grid_Dimension
 10
67.058
 20
45.17
 11
67.0164
 21
45.42
 12
67.058
 22
45.17
 13
67.0996
 23
45.42
  0
LINE
  8
Grid_Dimension
 10
67.058
 20
45.17
 11
67.058
 21
47.84
  0
SOLID
  8
Grid_Dimension
 10
67.058
 20
47.84
 11
67.0164
 21
47.59
 12
67.058
 22
47.84
 13
67.0996
 23
47.59
0
TEXT
  8
Grid_Dimension
10
67.038
20
46.373
40
0.1
1
2670
50
90
41
1
7
stylebar
72
0
11
0
21
0
  0
SOLID
  8
Grid_Dimension
 10
29.878
 20
47.84
 11
29.8364
 21
48.09
 12
29.878
 22
47.84
 13
29.9196
 23
48.09
  0
LINE
  8
Grid_Dimension
 10
29.878
 20
47.84
 11
29.878
 21
51.61
  0
SOLID
  8
Grid_Dimension
 10
29.878
 20
51.61
 11
29.8364
 21
51.36
 12
29.878
 22
51.61
 13
29.9196
 23
51.36
0
TEXT
  8
Grid_Dimension
10
29.858
20
49.593
40
0.1
1
3770
50
90
41
1
7
stylebar
72
0
11
0
21
0
  0
SOLID
  8
Grid_Dimension
 10
67.058
 20
47.84
 11
67.0164
 21
48.09
 12
67.058
 22
47.84
 13
67.0996
 23
48.09
  0
LINE
  8
Grid_Dimension
 10
67.058
 20
47.84
 11
67.058
 21
51.61
  0
SOLID
  8
Grid_Dimension
 10
67.058
 20
51.61
 11
67.0164
 21
51.36
 12
67.058
 22
51.61
 13
67.0996
 23
51.36
0
TEXT
  8
Grid_Dimension
10
67.038
20
49.593
40
0.1
1
3770
50
90
41
1
7
stylebar
72
0
11
0
21
0
  0
SOLID
  8
Grid_Dimension
 10
29.878
 20
51.61
 11
29.8364
 21
51.86
 12
29.878
 22
51.61
 13
29.9196
 23
51.86
  0
LINE
  8
Grid_Dimension
 10
29.878
 20
51.61
 11
29.878
 21
52.34
  0
SOLID
  8
Grid_Dimension
 10
29.878
 20
52.34
 11
29.8364
 21
52.09
 12
29.878
 22
52.34
 13
29.9196
 23
52.09
0
TEXT
  8
Grid_Dimension
10
29.858
20
51.876
40
0.1
1
730
50
90
41
1
7
stylebar
72
0
11
0
21
0
  0
SOLID
  8
Grid_Dimension
 10
67.058
 20
51.61
 11
67.0164
 21
51.86
 12
67.058
 22
51.61
 13
67.0996
 23
51.86
  0
LINE
  8
Grid_Dimension
 10
67.058
 20
51.61
 11
67.058
 21
52.34
  0
SOLID
  8
Grid_Dimension
 10
67.058
 20
52.34
 11
67.0164
 21
52.09
 12
67.058
 22
52.34
 13
67.0996
 23
52.09
0
TEXT
  8
Grid_Dimension
10
67.038
20
51.876
40
0.1
1
730
50
90
41
1
7
stylebar
72
0
11
0
21
0
  0
SOLID
  8
Grid_Dimension
 10
29.878
 20
52.34
 11
29.8364
 21
52.59
 12
29.878
 22
52.34
 13
29.9196
 23
52.59
  0
LINE
  8
Grid_Dimension
 10
29.878
 20
52.34
 11
29.878
 21
55.38
  0
SOLID
  8
Grid_Dimension
 10
29.878
 20
55.38
 11
29.8364
 21
55.13
 12
29.878
 22
55.38
 13
29.9196
 23
55.13
0
TEXT
  8
Grid_Dimension
10
29.858
20
53.728
40
0.1
1
3040
50
90
41
1
7
stylebar
72
0
11
0
21
0
  0
SOLID
  8
Grid_Dimension
 10
67.058
 20
52.34
 11
67.0164
 21
52.59
 12
67.058
 22
52.34
 13
67.0996
 23
52.59
  0
LINE
  8
Grid_Dimension
 10
67.058
 20
52.34
 11
67.058
 21
55.38
  0
SOLID
  8
Grid_Dimension
 10
67.058
 20
55.38
 11
67.0164
 21
55.13
 12
67.058
 22
55.38
 13
67.0996
 23
55.13
0
TEXT
  8
Grid_Dimension
10
67.038
20
53.728
40
0.1
1
3040
50
90
41
1
7
stylebar
72
0
11
0
21
0
0
TEXT
  8
GridName
10
31.328
20
5.46429
40
0.1
1
A
50
0
41
1
7
STRUDS_Arial
72
0
11
0
21
0
  0
CIRCLE
  8
GridName
 10
31.378
 20
5.51429
 40
0.0957107
  0
LINE
  8
CenterLine
6
ACAD_ISO02W100
 48
0.01
 10
31.378
 20
5.61
 11
31.378
 21
7.61
0
TEXT
  8
GridName
10
31.328
20
57.4257
40
0.1
1
A
50
0
41
1
7
STRUDS_Arial
72
0
11
0
21
0
  0
CIRCLE
  8
GridName
 10
31.378
 20
57.4757
 40
0.0957107
  0
LINE
  8
CenterLine
6
ACAD_ISO02W100
 48
0.01
 10
31.378
 20
55.38
 11
31.378
 21
57.38
0
TEXT
  8
GridName
10
33.828
20
5.46429
40
0.1
1
B
50
0
41
1
7
STRUDS_Arial
72
0
11
0
21
0
  0
CIRCLE
  8
GridName
 10
33.878
 20
5.51429
 40
0.0957107
  0
LINE
  8
CenterLine
6
ACAD_ISO02W100
 48
0.01
 10
33.878
 20
5.61
 11
33.878
 21
45.17
0
TEXT
  8
GridName
10
33.828
20
57.4257
40
0.1
1
B
50
0
41
1
7
STRUDS_Arial
72
0
11
0
21
0
  0
CIRCLE
  8
GridName
 10
33.878
 20
57.4757
 40
0.0957107
  0
LINE
  8
CenterLine
6
ACAD_ISO02W100
 48
0.01
 10
33.878
 20
55.38
 11
33.878
 21
57.38
0
TEXT
  8
GridName
10
35.998
20
5.46429
40
0.1
1
C
50
0
41
1
7
STRUDS_Arial
72
0
11
0
21
0
  0
CIRCLE
  8
GridName
 10
36.048
 20
5.51429
 40
0.0957107
  0
LINE
  8
CenterLine
6
ACAD_ISO02W100
 48
0.01
 10
36.048
 20
5.61
 11
36.048
 21
17.35
0
TEXT
  8
GridName
10
35.998
20
57.4257
40
0.1
1
C
50
0
41
1
7
STRUDS_Arial
72
0
11
0
21
0
  0
CIRCLE
  8
GridName
 10
36.048
 20
57.4757
 40
0.0957107
  0
LINE
  8
CenterLine
6
ACAD_ISO02W100
 48
0.01
 10
36.048
 20
45.17
 11
36.048
 21
57.38
0
TEXT
  8
GridName
10
36.198
20
3.46429
40
0.1
1
D
50
0
41
1
7
STRUDS_Arial
72
0
11
0
21
0
  0
CIRCLE
  8
GridName
 10
36.248
 20
3.51429
 40
0.0957107
  0
LINE
  8
CenterLine
6
ACAD_ISO02W100
 48
0.01
 10
36.248
 20
3.61
 11
36.248
 21
7.61
0
TEXT
  8
GridName
10
36.198
20
59.4257
40
0.1
1
D
50
0
41
1
7
STRUDS_Arial
72
0
11
0
21
0
  0
CIRCLE
  8
GridName
 10
36.248
 20
59.4757
 40
0.0957107
  0
LINE
  8
CenterLine
6
ACAD_ISO02W100
 48
0.01
 10
36.248
 20
17.35
 11
36.248
 21
59.38
0
TEXT
  8
GridName
10
36.368
20
3.46429
40
0.1
1
E
50
0
41
1
7
STRUDS_Arial
72
0
11
0
21
0
  0
CIRCLE
  8
GridName
 10
36.418
 20
3.51429
 40
0.0957107
  0
LINE
  8
CenterLine
6
ACAD_ISO02W100
 48
0.01
 10
36.418
 20
3.61
 11
36.418
 21
47.84
0
TEXT
  8
GridName
10
36.368
20
59.4257
40
0.1
1
E
50
0
41
1
7
STRUDS_Arial
72
0
11
0
21
0
  0
CIRCLE
  8
GridName
 10
36.418
 20
59.4757
 40
0.0957107
  0
LINE
  8
CenterLine
6
ACAD_ISO02W100
 48
0.01
 10
36.418
 20
55.38
 11
36.418
 21
59.38
0
TEXT
  8
GridName
10
38.908
20
5.46429
40
0.1
1
F
50
0
41
1
7
STRUDS_Arial
72
0
11
0
21
0
  0
CIRCLE
  8
GridName
 10
38.958
 20
5.51429
 40
0.0957107
  0
LINE
  8
CenterLine
6
ACAD_ISO02W100
 48
0.01
 10
38.958
 20
5.61
 11
38.958
 21
47.84
0
TEXT
  8
GridName
10
38.908
20
57.4257
40
0.1
1
F
50
0
41
1
7
STRUDS_Arial
72
0
11
0
21
0
  0
CIRCLE
  8
GridName
 10
38.958
 20
57.4757
 40
0.0957107
  0
LINE
  8
CenterLine
6
ACAD_ISO02W100
 48
0.01
 10
38.958
 20
55.38
 11
38.958
 21
57.38
0
TEXT
  8
GridName
10
40.668
20
5.46429
40
0.1
1
G
50
0
41
1
7
STRUDS_Arial
72
0
11
0
21
0
  0
CIRCLE
  8
GridName
 10
40.718
 20
5.51429
 40
0.0957107
  0
LINE
  8
CenterLine
6
ACAD_ISO02W100
 48
0.01
 10
40.718
 20
5.61
 11
40.718
 21
17.35
0
TEXT
  8
GridName
10
40.668
20
57.4257
40
0.1
1
G
50
0
41
1
7
STRUDS_Arial
72
0
11
0
21
0
  0
CIRCLE
  8
GridName
 10
40.718
 20
57.4757
 40
0.0957107
  0
LINE
  8
CenterLine
6
ACAD_ISO02W100
 48
0.01
 10
40.718
 20
45.17
 11
40.718
 21
57.38
0
TEXT
  8
GridName
10
41.068
20
3.46429
40
0.1
1
H
50
0
41
1
7
STRUDS_Arial
72
0
11
0
21
0
  0
CIRCLE
  8
GridName
 10
41.118
 20
3.51429
 40
0.0957107
  0
LINE
  8
CenterLine
6
ACAD_ISO02W100
 48
0.01
 10
41.118
 20
3.61
 11
41.118
 21
7.61
0
TEXT
  8
GridName
10
41.068
20
59.4257
40
0.1
1
H
50
0
41
1
7
STRUDS_Arial
72
0
11
0
21
0
  0
CIRCLE
  8
GridName
 10
41.118
 20
59.4757
 40
0.0957107
  0
LINE
  8
CenterLine
6
ACAD_ISO02W100
 48
0.01
 10
41.118
 20
17.35
 11
41.118
 21
59.38
0
TEXT
  8
GridName
10
41.448
20
3.46429
40
0.1
1
I
50
0
41
1
7
STRUDS_Arial
72
0
11
0
21
0
  0
CIRCLE
  8
GridName
 10
41.498
 20
3.51429
 40
0.0957107
  0
LINE
  8
CenterLine
6
ACAD_ISO02W100
 48
0.01
 10
41.498
 20
3.61
 11
41.498
 21
45.17
0
TEXT
  8
GridName
10
41.448
20
59.4257
40
0.1
1
I
50
0
41
1
7
STRUDS_Arial
72
0
11
0
21
0
  0
CIRCLE
  8
GridName
 10
41.498
 20
59.4757
 40
0.0957107
  0
LINE
  8
CenterLine
6
ACAD_ISO02W100
 48
0.01
 10
41.498
 20
55.38
 11
41.498
 21
59.38
0
TEXT
  8
GridName
10
43.028
20
5.46429
40
0.1
1
J
50
0
41
1
7
STRUDS_Arial
72
0
11
0
21
0
  0
CIRCLE
  8
GridName
 10
43.078
 20
5.51429
 40
0.0957107
  0
LINE
  8
CenterLine
6
ACAD_ISO02W100
 48
0.01
 10
43.078
 20
5.61
 11
43.078
 21
17.35
0
TEXT
  8
GridName
10
43.028
20
57.4257
40
0.1
1
J
50
0
41
1
7
STRUDS_Arial
72
0
11
0
21
0
  0
CIRCLE
  8
GridName
 10
43.078
 20
57.4757
 40
0.0957107
  0
LINE
  8
CenterLine
6
ACAD_ISO02W100
 48
0.01
 10
43.078
 20
45.17
 11
43.078
 21
57.38
0
TEXT
  8
GridName
10
45.978
20
5.46429
40
0.1
1
K
50
0
41
1
7
STRUDS_Arial
72
0
11
0
21
0
  0
CIRCLE
  8
GridName
 10
46.028
 20
5.51429
 40
0.0957107
  0
LINE
  8
CenterLine
6
ACAD_ISO02W100
 48
0.01
 10
46.028
 20
5.61
 11
46.028
 21
45.17
0
TEXT
  8
GridName
10
45.978
20
57.4257
40
0.1
1
K
50
0
41
1
7
STRUDS_Arial
72
0
11
0
21
0
  0
CIRCLE
  8
GridName
 10
46.028
 20
57.4757
 40
0.0957107
  0
LINE
  8
CenterLine
6
ACAD_ISO02W100
 48
0.01
 10
46.028
 20
55.38
 11
46.028
 21
57.38
0
TEXT
  8
GridName
10
46.168
20
3.46429
40
0.1
1
L
50
0
41
1
7
STRUDS_Arial
72
0
11
0
21
0
  0
CIRCLE
  8
GridName
 10
46.218
 20
3.51429
 40
0.0957107
  0
LINE
  8
CenterLine
6
ACAD_ISO02W100
 48
0.01
 10
46.218
 20
3.61
 11
46.218
 21
9.81
0
TEXT
  8
GridName
10
46.168
20
59.4257
40
0.1
1
L
50
0
41
1
7
STRUDS_Arial
72
0
11
0
21
0
  0
CIRCLE
  8
GridName
 10
46.218
 20
59.4757
 40
0.0957107
  0
LINE
  8
CenterLine
6
ACAD_ISO02W100
 48
0.01
 10
46.218
 20
17.35
 11
46.218
 21
59.38
0
TEXT
  8
GridName
10
48.498
20
5.46429
40
0.1
1
M
50
0
41
1
7
STRUDS_Arial
72
0
11
0
21
0
  0
CIRCLE
  8
GridName
 10
48.548
 20
5.51429
 40
0.0957107
  0
LINE
  8
CenterLine
6
ACAD_ISO02W100
 48
0.01
 10
48.548
 20
5.61
 11
48.548
 21
17.35
0
TEXT
  8
GridName
10
48.498
20
57.4257
40
0.1
1
M
50
0
41
1
7
STRUDS_Arial
72
0
11
0
21
0
  0
CIRCLE
  8
GridName
 10
48.548
 20
57.4757
 40
0.0957107
  0
LINE
  8
CenterLine
6
ACAD_ISO02W100
 48
0.01
 10
48.548
 20
45.17
 11
48.548
 21
57.38
0
TEXT
  8
GridName
10
50.508
20
5.46429
40
0.1
1
N
50
0
41
1
7
STRUDS_Arial
72
0
11
0
21
0
  0
CIRCLE
  8
GridName
 10
50.558
 20
5.51429
 40
0.0957107
  0
LINE
  8
CenterLine
6
ACAD_ISO02W100
 48
0.01
 10
50.558
 20
5.61
 11
50.558
 21
45.17
0
TEXT
  8
GridName
10
50.508
20
57.4257
40
0.1
1
N
50
0
41
1
7
STRUDS_Arial
72
0
11
0
21
0
  0
CIRCLE
  8
GridName
 10
50.558
 20
57.4757
 40
0.0957107
  0
LINE
  8
CenterLine
6
ACAD_ISO02W100
 48
0.01
 10
50.558
 20
55.38
 11
50.558
 21
57.38
0
TEXT
  8
GridName
10
51.428
20
3.46429
40
0.1
1
O
50
0
41
1
7
STRUDS_Arial
72
0
11
0
21
0
  0
CIRCLE
  8
GridName
 10
51.478
 20
3.51429
 40
0.0957107
  0
LINE
  8
CenterLine
6
ACAD_ISO02W100
 48
0.01
 10
51.478
 20
3.61
 11
51.478
 21
9.81
0
TEXT
  8
GridName
10
51.428
20
59.4257
40
0.1
1
O
50
0
41
1
7
STRUDS_Arial
72
0
11
0
21
0
  0
CIRCLE
  8
GridName
 10
51.478
 20
59.4757
 40
0.0957107
  0
LINE
  8
CenterLine
6
ACAD_ISO02W100
 48
0.01
 10
51.478
 20
17.35
 11
51.478
 21
59.38
0
TEXT
  8
GridName
10
53.968
20
5.46429
40
0.1
1
P
50
0
41
1
7
STRUDS_Arial
72
0
11
0
21
0
  0
CIRCLE
  8
GridName
 10
54.018
 20
5.51429
 40
0.0957107
  0
LINE
  8
CenterLine
6
ACAD_ISO02W100
 48
0.01
 10
54.018
 20
5.61
 11
54.018
 21
17.35
0
TEXT
  8
GridName
10
53.968
20
57.4257
40
0.1
1
P
50
0
41
1
7
STRUDS_Arial
72
0
11
0
21
0
  0
CIRCLE
  8
GridName
 10
54.018
 20
57.4757
 40
0.0957107
  0
LINE
  8
CenterLine
6
ACAD_ISO02W100
 48
0.01
 10
54.018
 20
45.17
 11
54.018
 21
57.38
0
TEXT
  8
GridName
10
54.848
20
3.46429
40
0.1
1
Q
50
0
41
1
7
STRUDS_Arial
72
0
11
0
21
0
  0
CIRCLE
  8
GridName
 10
54.898
 20
3.51429
 40
0.0957107
  0
LINE
  8
CenterLine
6
ACAD_ISO02W100
 48
0.01
 10
54.898
 20
3.61
 11
54.898
 21
45.17
0
TEXT
  8
GridName
10
54.848
20
59.4257
40
0.1
1
Q
50
0
41
1
7
STRUDS_Arial
72
0
11
0
21
0
  0
CIRCLE
  8
GridName
 10
54.898
 20
59.4757
 40
0.0957107
  0
LINE
  8
CenterLine
6
ACAD_ISO02W100
 48
0.01
 10
54.898
 20
55.38
 11
54.898
 21
59.38
0
TEXT
  8
GridName
10
56.328
20
5.46429
40
0.1
1
R
50
0
41
1
7
STRUDS_Arial
72
0
11
0
21
0
  0
CIRCLE
  8
GridName
 10
56.378
 20
5.51429
 40
0.0957107
  0
LINE
  8
CenterLine
6
ACAD_ISO02W100
 48
0.01
 10
56.378
 20
5.61
 11
56.378
 21
7.61
0
TEXT
  8
GridName
10
56.328
20
57.4257
40
0.1
1
R
50
0
41
1
7
STRUDS_Arial
72
0
11
0
21
0
  0
CIRCLE
  8
GridName
 10
56.378
 20
57.4757
 40
0.0957107
  0
LINE
  8
CenterLine
6
ACAD_ISO02W100
 48
0.01
 10
56.378
 20
45.17
 11
56.378
 21
57.38
0
TEXT
  8
GridName
10
59.188
20
5.46429
40
0.1
1
S
50
0
41
1
7
STRUDS_Arial
72
0
11
0
21
0
  0
CIRCLE
  8
GridName
 10
59.238
 20
5.51429
 40
0.0957107
  0
LINE
  8
CenterLine
6
ACAD_ISO02W100
 48
0.01
 10
59.238
 20
5.61
 11
59.238
 21
45.17
0
TEXT
  8
GridName
10
59.188
20
57.4257
40
0.1
1
S
50
0
41
1
7
STRUDS_Arial
72
0
11
0
21
0
  0
CIRCLE
  8
GridName
 10
59.238
 20
57.4757
 40
0.0957107
  0
LINE
  8
CenterLine
6
ACAD_ISO02W100
 48
0.01
 10
59.238
 20
55.38
 11
59.238
 21
57.38
0
TEXT
  8
GridName
10
60.918
20
5.46429
40
0.1
1
T
50
0
41
1
7
STRUDS_Arial
72
0
11
0
21
0
  0
CIRCLE
  8
GridName
 10
60.968
 20
5.51429
 40
0.0957107
  0
LINE
  8
CenterLine
6
ACAD_ISO02W100
 48
0.01
 10
60.968
 20
5.61
 11
60.968
 21
7.61
0
TEXT
  8
GridName
10
60.918
20
57.4257
40
0.1
1
T
50
0
41
1
7
STRUDS_Arial
72
0
11
0
21
0
  0
CIRCLE
  8
GridName
 10
60.968
 20
57.4757
 40
0.0957107
  0
LINE
  8
CenterLine
6
ACAD_ISO02W100
 48
0.01
 10
60.968
 20
45.17
 11
60.968
 21
57.38
0
TEXT
  8
GridName
10
65.508
20
5.46429
40
0.1
1
U
50
0
41
1
7
STRUDS_Arial
72
0
11
0
21
0
  0
CIRCLE
  8
GridName
 10
65.558
 20
5.51429
 40
0.0957107
  0
LINE
  8
CenterLine
6
ACAD_ISO02W100
 48
0.01
 10
65.558
 20
5.61
 11
65.558
 21
7.61
0
TEXT
  8
GridName
10
65.508
20
57.4257
40
0.1
1
U
50
0
41
1
7
STRUDS_Arial
72
0
11
0
21
0
  0
CIRCLE
  8
GridName
 10
65.558
 20
57.4757
 40
0.0957107
  0
LINE
  8
CenterLine
6
ACAD_ISO02W100
 48
0.01
 10
65.558
 20
55.38
 11
65.558
 21
57.38
  0
SOLID
  8
Grid_Dimension
 10
31.378
 20
6.11
 11
31.628
 21
6.1516
 12
31.378
 22
6.11
 13
31.628
 23
6.0684
  0
LINE
  8
Grid_Dimension
 10
31.378
 20
6.11
 11
33.878
 21
6.11
  0
SOLID
  8
Grid_Dimension
 10
33.878
 20
6.11
 11
33.628
 21
6.1516
 12
33.878
 22
6.11
 13
33.628
 23
6.0684
0
TEXT
  8
Grid_Dimension
10
32.496
20
6.15
40
0.1
1
2500
50
0
41
1
7
stylebar
72
0
11
0
21
0
  0
SOLID
  8
Grid_Dimension
 10
31.378
 20
56.88
 11
31.628
 21
56.9216
 12
31.378
 22
56.88
 13
31.628
 23
56.8384
  0
LINE
  8
Grid_Dimension
 10
31.378
 20
56.88
 11
33.878
 21
56.88
  0
SOLID
  8
Grid_Dimension
 10
33.878
 20
56.88
 11
33.628
 21
56.9216
 12
33.878
 22
56.88
 13
33.628
 23
56.8384
0
TEXT
  8
Grid_Dimension
10
32.496
20
56.92
40
0.1
1
2500
50
0
41
1
7
stylebar
72
0
11
0
21
0
  0
SOLID
  8
Grid_Dimension
 10
33.878
 20
6.11
 11
34.128
 21
6.1516
 12
33.878
 22
6.11
 13
34.128
 23
6.0684
  0
LINE
  8
Grid_Dimension
 10
33.878
 20
6.11
 11
36.048
 21
6.11
  0
SOLID
  8
Grid_Dimension
 10
36.048
 20
6.11
 11
35.798
 21
6.1516
 12
36.048
 22
6.11
 13
35.798
 23
6.0684
0
TEXT
  8
Grid_Dimension
10
34.831
20
6.15
40
0.1
1
2170
50
0
41
1
7
stylebar
72
0
11
0
21
0
  0
SOLID
  8
Grid_Dimension
 10
33.878
 20
56.88
 11
34.128
 21
56.9216
 12
33.878
 22
56.88
 13
34.128
 23
56.8384
  0
LINE
  8
Grid_Dimension
 10
33.878
 20
56.88
 11
36.048
 21
56.88
  0
SOLID
  8
Grid_Dimension
 10
36.048
 20
56.88
 11
35.798
 21
56.9216
 12
36.048
 22
56.88
 13
35.798
 23
56.8384
0
TEXT
  8
Grid_Dimension
10
34.831
20
56.92
40
0.1
1
2170
50
0
41
1
7
stylebar
72
0
11
0
21
0
  0
SOLID
  8
Grid_Dimension
 10
36.048
 20
6.11
 11
36.298
 21
6.1516
 12
36.048
 22
6.11
 13
36.298
 23
6.0684
  0
LINE
  8
Grid_Dimension
 10
36.048
 20
6.11
 11
36.248
 21
6.11
  0
SOLID
  8
Grid_Dimension
 10
36.248
 20
6.11
 11
35.998
 21
6.1516
 12
36.248
 22
6.11
 13
35.998
 23
6.0684
0
TEXT
  8
Grid_Dimension
10
36.049
20
6.15
40
0.1
1
200
50
0
41
1
7
stylebar
72
0
11
0
21
0
  0
SOLID
  8
Grid_Dimension
 10
36.048
 20
56.88
 11
36.298
 21
56.9216
 12
36.048
 22
56.88
 13
36.298
 23
56.8384
  0
LINE
  8
Grid_Dimension
 10
36.048
 20
56.88
 11
36.248
 21
56.88
  0
SOLID
  8
Grid_Dimension
 10
36.248
 20
56.88
 11
35.998
 21
56.9216
 12
36.248
 22
56.88
 13
35.998
 23
56.8384
0
TEXT
  8
Grid_Dimension
10
36.049
20
56.92
40
0.1
1
200
50
0
41
1
7
stylebar
72
0
11
0
21
0
  0
SOLID
  8
Grid_Dimension
 10
36.248
 20
6.11
 11
36.498
 21
6.1516
 12
36.248
 22
6.11
 13
36.498
 23
6.0684
  0
LINE
  8
Grid_Dimension
 10
36.248
 20
6.11
 11
36.418
 21
6.11
  0
SOLID
  8
Grid_Dimension
 10
36.418
 20
6.11
 11
36.168
 21
6.1516
 12
36.418
 22
6.11
 13
36.168
 23
6.0684
0
TEXT
  8
Grid_Dimension
10
36.234
20
6.15
40
0.1
1
170
50
0
41
1
7
stylebar
72
0
11
0
21
0
  0
SOLID
  8
Grid_Dimension
 10
36.248
 20
56.88
 11
36.498
 21
56.9216
 12
36.248
 22
56.88
 13
36.498
 23
56.8384
  0
LINE
  8
Grid_Dimension
 10
36.248
 20
56.88
 11
36.418
 21
56.88
  0
SOLID
  8
Grid_Dimension
 10
36.418
 20
56.88
 11
36.168
 21
56.9216
 12
36.418
 22
56.88
 13
36.168
 23
56.8384
0
TEXT
  8
Grid_Dimension
10
36.234
20
56.92
40
0.1
1
170
50
0
41
1
7
stylebar
72
0
11
0
21
0
  0
SOLID
  8
Grid_Dimension
 10
36.418
 20
6.11
 11
36.668
 21
6.1516
 12
36.418
 22
6.11
 13
36.668
 23
6.0684
  0
LINE
  8
Grid_Dimension
 10
36.418
 20
6.11
 11
38.958
 21
6.11
  0
SOLID
  8
Grid_Dimension
 10
38.958
 20
6.11
 11
38.708
 21
6.1516
 12
38.958
 22
6.11
 13
38.708
 23
6.0684
0
TEXT
  8
Grid_Dimension
10
37.556
20
6.15
40
0.1
1
2540
50
0
41
1
7
stylebar
72
0
11
0
21
0
  0
SOLID
  8
Grid_Dimension
 10
36.418
 20
56.88
 11
36.668
 21
56.9216
 12
36.418
 22
56.88
 13
36.668
 23
56.8384
  0
LINE
  8
Grid_Dimension
 10
36.418
 20
56.88
 11
38.958
 21
56.88
  0
SOLID
  8
Grid_Dimension
 10
38.958
 20
56.88
 11
38.708
 21
56.9216
 12
38.958
 22
56.88
 13
38.708
 23
56.8384
0
TEXT
  8
Grid_Dimension
10
37.556
20
56.92
40
0.1
1
2540
50
0
41
1
7
stylebar
72
0
11
0
21
0
  0
SOLID
  8
Grid_Dimension
 10
38.958
 20
6.11
 11
39.208
 21
6.1516
 12
38.958
 22
6.11
 13
39.208
 23
6.0684
  0
LINE
  8
Grid_Dimension
 10
38.958
 20
6.11
 11
40.718
 21
6.11
  0
SOLID
  8
Grid_Dimension
 10
40.718
 20
6.11
 11
40.468
 21
6.1516
 12
40.718
 22
6.11
 13
40.468
 23
6.0684
0
TEXT
  8
Grid_Dimension
10
39.706
20
6.15
40
0.1
1
1760
50
0
41
1
7
stylebar
72
0
11
0
21
0
  0
SOLID
  8
Grid_Dimension
 10
38.958
 20
56.88
 11
39.208
 21
56.9216
 12
38.958
 22
56.88
 13
39.208
 23
56.8384
  0
LINE
  8
Grid_Dimension
 10
38.958
 20
56.88
 11
40.718
 21
56.88
  0
SOLID
  8
Grid_Dimension
 10
40.718
 20
56.88
 11
40.468
 21
56.9216
 12
40.718
 22
56.88
 13
40.468
 23
56.8384
0
TEXT
  8
Grid_Dimension
10
39.706
20
56.92
40
0.1
1
1760
50
0
41
1
7
stylebar
72
0
11
0
21
0
  0
SOLID
  8
Grid_Dimension
 10
40.718
 20
6.11
 11
40.968
 21
6.1516
 12
40.718
 22
6.11
 13
40.968
 23
6.0684
  0
LINE
  8
Grid_Dimension
 10
40.718
 20
6.11
 11
41.118
 21
6.11
  0
SOLID
  8
Grid_Dimension
 10
41.118
 20
6.11
 11
40.868
 21
6.1516
 12
41.118
 22
6.11
 13
40.868
 23
6.0684
0
TEXT
  8
Grid_Dimension
10
40.819
20
6.15
40
0.1
1
400
50
0
41
1
7
stylebar
72
0
11
0
21
0
  0
SOLID
  8
Grid_Dimension
 10
40.718
 20
56.88
 11
40.968
 21
56.9216
 12
40.718
 22
56.88
 13
40.968
 23
56.8384
  0
LINE
  8
Grid_Dimension
 10
40.718
 20
56.88
 11
41.118
 21
56.88
  0
SOLID
  8
Grid_Dimension
 10
41.118
 20
56.88
 11
40.868
 21
56.9216
 12
41.118
 22
56.88
 13
40.868
 23
56.8384
0
TEXT
  8
Grid_Dimension
10
40.819
20
56.92
40
0.1
1
400
50
0
41
1
7
stylebar
72
0
11
0
21
0
  0
SOLID
  8
Grid_Dimension
 10
41.118
 20
6.11
 11
41.368
 21
6.1516
 12
41.118
 22
6.11
 13
41.368
 23
6.0684
  0
LINE
  8
Grid_Dimension
 10
41.118
 20
6.11
 11
41.498
 21
6.11
  0
SOLID
  8
Grid_Dimension
 10
41.498
 20
6.11
 11
41.248
 21
6.1516
 12
41.498
 22
6.11
 13
41.248
 23
6.0684
0
TEXT
  8
Grid_Dimension
10
41.209
20
6.15
40
0.1
1
380
50
0
41
1
7
stylebar
72
0
11
0
21
0
  0
SOLID
  8
Grid_Dimension
 10
41.118
 20
56.88
 11
41.368
 21
56.9216
 12
41.118
 22
56.88
 13
41.368
 23
56.8384
  0
LINE
  8
Grid_Dimension
 10
41.118
 20
56.88
 11
41.498
 21
56.88
  0
SOLID
  8
Grid_Dimension
 10
41.498
 20
56.88
 11
41.248
 21
56.9216
 12
41.498
 22
56.88
 13
41.248
 23
56.8384
0
TEXT
  8
Grid_Dimension
10
41.209
20
56.92
40
0.1
1
380
50
0
41
1
7
stylebar
72
0
11
0
21
0
  0
SOLID
  8
Grid_Dimension
 10
41.498
 20
6.11
 11
41.748
 21
6.1516
 12
41.498
 22
6.11
 13
41.748
 23
6.0684
  0
LINE
  8
Grid_Dimension
 10
41.498
 20
6.11
 11
43.078
 21
6.11
  0
SOLID
  8
Grid_Dimension
 10
43.078
 20
6.11
 11
42.828
 21
6.1516
 12
43.078
 22
6.11
 13
42.828
 23
6.0684
0
TEXT
  8
Grid_Dimension
10
42.156
20
6.15
40
0.1
1
1580
50
0
41
1
7
stylebar
72
0
11
0
21
0
  0
SOLID
  8
Grid_Dimension
 10
41.498
 20
56.88
 11
41.748
 21
56.9216
 12
41.498
 22
56.88
 13
41.748
 23
56.8384
  0
LINE
  8
Grid_Dimension
 10
41.498
 20
56.88
 11
43.078
 21
56.88
  0
SOLID
  8
Grid_Dimension
 10
43.078
 20
56.88
 11
42.828
 21
56.9216
 12
43.078
 22
56.88
 13
42.828
 23
56.8384
0
TEXT
  8
Grid_Dimension
10
42.156
20
56.92
40
0.1
1
1580
50
0
41
1
7
stylebar
72
0
11
0
21
0
  0
SOLID
  8
Grid_Dimension
 10
43.078
 20
6.11
 11
43.328
 21
6.1516
 12
43.078
 22
6.11
 13
43.328
 23
6.0684
  0
LINE
  8
Grid_Dimension
 10
43.078
 20
6.11
 11
46.028
 21
6.11
  0
SOLID
  8
Grid_Dimension
 10
46.028
 20
6.11
 11
45.778
 21
6.1516
 12
46.028
 22
6.11
 13
45.778
 23
6.0684
0
TEXT
  8
Grid_Dimension
10
44.421
20
6.15
40
0.1
1
2950
50
0
41
1
7
stylebar
72
0
11
0
21
0
  0
SOLID
  8
Grid_Dimension
 10
43.078
 20
56.88
 11
43.328
 21
56.9216
 12
43.078
 22
56.88
 13
43.328
 23
56.8384
  0
LINE
  8
Grid_Dimension
 10
43.078
 20
56.88
 11
46.028
 21
56.88
  0
SOLID
  8
Grid_Dimension
 10
46.028
 20
56.88
 11
45.778
 21
56.9216
 12
46.028
 22
56.88
 13
45.778
 23
56.8384
0
TEXT
  8
Grid_Dimension
10
44.421
20
56.92
40
0.1
1
2950
50
0
41
1
7
stylebar
72
0
11
0
21
0
  0
SOLID
  8
Grid_Dimension
 10
46.028
 20
6.11
 11
46.278
 21
6.1516
 12
46.028
 22
6.11
 13
46.278
 23
6.0684
  0
LINE
  8
Grid_Dimension
 10
46.028
 20
6.11
 11
46.218
 21
6.11
  0
SOLID
  8
Grid_Dimension
 10
46.218
 20
6.11
 11
45.968
 21
6.1516
 12
46.218
 22
6.11
 13
45.968
 23
6.0684
0
TEXT
  8
Grid_Dimension
10
46.024
20
6.15
40
0.1
1
190
50
0
41
1
7
stylebar
72
0
11
0
21
0
  0
SOLID
  8
Grid_Dimension
 10
46.028
 20
56.88
 11
46.278
 21
56.9216
 12
46.028
 22
56.88
 13
46.278
 23
56.8384
  0
LINE
  8
Grid_Dimension
 10
46.028
 20
56.88
 11
46.218
 21
56.88
  0
SOLID
  8
Grid_Dimension
 10
46.218
 20
56.88
 11
45.968
 21
56.9216
 12
46.218
 22
56.88
 13
45.968
 23
56.8384
0
TEXT
  8
Grid_Dimension
10
46.024
20
56.92
40
0.1
1
190
50
0
41
1
7
stylebar
72
0
11
0
21
0
  0
SOLID
  8
Grid_Dimension
 10
46.218
 20
6.11
 11
46.468
 21
6.1516
 12
46.218
 22
6.11
 13
46.468
 23
6.0684
  0
LINE
  8
Grid_Dimension
 10
46.218
 20
6.11
 11
48.548
 21
6.11
  0
SOLID
  8
Grid_Dimension
 10
48.548
 20
6.11
 11
48.298
 21
6.1516
 12
48.548
 22
6.11
 13
48.298
 23
6.0684
0
TEXT
  8
Grid_Dimension
10
47.251
20
6.15
40
0.1
1
2330
50
0
41
1
7
stylebar
72
0
11
0
21
0
  0
SOLID
  8
Grid_Dimension
 10
46.218
 20
56.88
 11
46.468
 21
56.9216
 12
46.218
 22
56.88
 13
46.468
 23
56.8384
  0
LINE
  8
Grid_Dimension
 10
46.218
 20
56.88
 11
48.548
 21
56.88
  0
SOLID
  8
Grid_Dimension
 10
48.548
 20
56.88
 11
48.298
 21
56.9216
 12
48.548
 22
56.88
 13
48.298
 23
56.8384
0
TEXT
  8
Grid_Dimension
10
47.251
20
56.92
40
0.1
1
2330
50
0
41
1
7
stylebar
72
0
11
0
21
0
  0
SOLID
  8
Grid_Dimension
 10
48.548
 20
6.11
 11
48.798
 21
6.1516
 12
48.548
 22
6.11
 13
48.798
 23
6.0684
  0
LINE
  8
Grid_Dimension
 10
48.548
 20
6.11
 11
50.558
 21
6.11
  0
SOLID
  8
Grid_Dimension
 10
50.558
 20
6.11
 11
50.308
 21
6.1516
 12
50.558
 22
6.11
 13
50.308
 23
6.0684
0
TEXT
  8
Grid_Dimension
10
49.421
20
6.15
40
0.1
1
2010
50
0
41
1
7
stylebar
72
0
11
0
21
0
  0
SOLID
  8
Grid_Dimension
 10
48.548
 20
56.88
 11
48.798
 21
56.9216
 12
48.548
 22
56.88
 13
48.798
 23
56.8384
  0
LINE
  8
Grid_Dimension
 10
48.548
 20
56.88
 11
50.558
 21
56.88
  0
SOLID
  8
Grid_Dimension
 10
50.558
 20
56.88
 11
50.308
 21
56.9216
 12
50.558
 22
56.88
 13
50.308
 23
56.8384
0
TEXT
  8
Grid_Dimension
10
49.421
20
56.92
40
0.1
1
2010
50
0
41
1
7
stylebar
72
0
11
0
21
0
  0
SOLID
  8
Grid_Dimension
 10
50.558
 20
6.11
 11
50.808
 21
6.1516
 12
50.558
 22
6.11
 13
50.808
 23
6.0684
  0
LINE
  8
Grid_Dimension
 10
50.558
 20
6.11
 11
51.478
 21
6.11
  0
SOLID
  8
Grid_Dimension
 10
51.478
 20
6.11
 11
51.228
 21
6.1516
 12
51.478
 22
6.11
 13
51.228
 23
6.0684
0
TEXT
  8
Grid_Dimension
10
50.919
20
6.15
40
0.1
1
920
50
0
41
1
7
stylebar
72
0
11
0
21
0
  0
SOLID
  8
Grid_Dimension
 10
50.558
 20
56.88
 11
50.808
 21
56.9216
 12
50.558
 22
56.88
 13
50.808
 23
56.8384
  0
LINE
  8
Grid_Dimension
 10
50.558
 20
56.88
 11
51.478
 21
56.88
  0
SOLID
  8
Grid_Dimension
 10
51.478
 20
56.88
 11
51.228
 21
56.9216
 12
51.478
 22
56.88
 13
51.228
 23
56.8384
0
TEXT
  8
Grid_Dimension
10
50.919
20
56.92
40
0.1
1
920
50
0
41
1
7
stylebar
72
0
11
0
21
0
  0
SOLID
  8
Grid_Dimension
 10
51.478
 20
6.11
 11
51.728
 21
6.1516
 12
51.478
 22
6.11
 13
51.728
 23
6.0684
  0
LINE
  8
Grid_Dimension
 10
51.478
 20
6.11
 11
54.018
 21
6.11
  0
SOLID
  8
Grid_Dimension
 10
54.018
 20
6.11
 11
53.768
 21
6.1516
 12
54.018
 22
6.11
 13
53.768
 23
6.0684
0
TEXT
  8
Grid_Dimension
10
52.616
20
6.15
40
0.1
1
2540
50
0
41
1
7
stylebar
72
0
11
0
21
0
  0
SOLID
  8
Grid_Dimension
 10
51.478
 20
56.88
 11
51.728
 21
56.9216
 12
51.478
 22
56.88
 13
51.728
 23
56.8384
  0
LINE
  8
Grid_Dimension
 10
51.478
 20
56.88
 11
54.018
 21
56.88
  0
SOLID
  8
Grid_Dimension
 10
54.018
 20
56.88
 11
53.768
 21
56.9216
 12
54.018
 22
56.88
 13
53.768
 23
56.8384
0
TEXT
  8
Grid_Dimension
10
52.616
20
56.92
40
0.1
1
2540
50
0
41
1
7
stylebar
72
0
11
0
21
0
  0
SOLID
  8
Grid_Dimension
 10
54.018
 20
6.11
 11
54.268
 21
6.1516
 12
54.018
 22
6.11
 13
54.268
 23
6.0684
  0
LINE
  8
Grid_Dimension
 10
54.018
 20
6.11
 11
54.898
 21
6.11
  0
SOLID
  8
Grid_Dimension
 10
54.898
 20
6.11
 11
54.648
 21
6.1516
 12
54.898
 22
6.11
 13
54.648
 23
6.0684
0
TEXT
  8
Grid_Dimension
10
54.359
20
6.15
40
0.1
1
880
50
0
41
1
7
stylebar
72
0
11
0
21
0
  0
SOLID
  8
Grid_Dimension
 10
54.018
 20
56.88
 11
54.268
 21
56.9216
 12
54.018
 22
56.88
 13
54.268
 23
56.8384
  0
LINE
  8
Grid_Dimension
 10
54.018
 20
56.88
 11
54.898
 21
56.88
  0
SOLID
  8
Grid_Dimension
 10
54.898
 20
56.88
 11
54.648
 21
56.9216
 12
54.898
 22
56.88
 13
54.648
 23
56.8384
0
TEXT
  8
Grid_Dimension
10
54.359
20
56.92
40
0.1
1
880
50
0
41
1
7
stylebar
72
0
11
0
21
0
  0
SOLID
  8
Grid_Dimension
 10
54.898
 20
6.11
 11
55.148
 21
6.1516
 12
54.898
 22
6.11
 13
55.148
 23
6.0684
  0
LINE
  8
Grid_Dimension
 10
54.898
 20
6.11
 11
56.378
 21
6.11
  0
SOLID
  8
Grid_Dimension
 10
56.378
 20
6.11
 11
56.128
 21
6.1516
 12
56.378
 22
6.11
 13
56.128
 23
6.0684
0
TEXT
  8
Grid_Dimension
10
55.506
20
6.15
40
0.1
1
1480
50
0
41
1
7
stylebar
72
0
11
0
21
0
  0
SOLID
  8
Grid_Dimension
 10
54.898
 20
56.88
 11
55.148
 21
56.9216
 12
54.898
 22
56.88
 13
55.148
 23
56.8384
  0
LINE
  8
Grid_Dimension
 10
54.898
 20
56.88
 11
56.378
 21
56.88
  0
SOLID
  8
Grid_Dimension
 10
56.378
 20
56.88
 11
56.128
 21
56.9216
 12
56.378
 22
56.88
 13
56.128
 23
56.8384
0
TEXT
  8
Grid_Dimension
10
55.506
20
56.92
40
0.1
1
1480
50
0
41
1
7
stylebar
72
0
11
0
21
0
  0
SOLID
  8
Grid_Dimension
 10
56.378
 20
6.11
 11
56.628
 21
6.1516
 12
56.378
 22
6.11
 13
56.628
 23
6.0684
  0
LINE
  8
Grid_Dimension
 10
56.378
 20
6.11
 11
59.238
 21
6.11
  0
SOLID
  8
Grid_Dimension
 10
59.238
 20
6.11
 11
58.988
 21
6.1516
 12
59.238
 22
6.11
 13
58.988
 23
6.0684
0
TEXT
  8
Grid_Dimension
10
57.676
20
6.15
40
0.1
1
2860
50
0
41
1
7
stylebar
72
0
11
0
21
0
  0
SOLID
  8
Grid_Dimension
 10
56.378
 20
56.88
 11
56.628
 21
56.9216
 12
56.378
 22
56.88
 13
56.628
 23
56.8384
  0
LINE
  8
Grid_Dimension
 10
56.378
 20
56.88
 11
59.238
 21
56.88
  0
SOLID
  8
Grid_Dimension
 10
59.238
 20
56.88
 11
58.988
 21
56.9216
 12
59.238
 22
56.88
 13
58.988
 23
56.8384
0
TEXT
  8
Grid_Dimension
10
57.676
20
56.92
40
0.1
1
2860
50
0
41
1
7
stylebar
72
0
11
0
21
0
  0
SOLID
  8
Grid_Dimension
 10
59.238
 20
6.11
 11
59.488
 21
6.1516
 12
59.238
 22
6.11
 13
59.488
 23
6.0684
  0
LINE
  8
Grid_Dimension
 10
59.238
 20
6.11
 11
60.968
 21
6.11
  0
SOLID
  8
Grid_Dimension
 10
60.968
 20
6.11
 11
60.718
 21
6.1516
 12
60.968
 22
6.11
 13
60.718
 23
6.0684
0
TEXT
  8
Grid_Dimension
10
59.971
20
6.15
40
0.1
1
1730
50
0
41
1
7
stylebar
72
0
11
0
21
0
  0
SOLID
  8
Grid_Dimension
 10
59.238
 20
56.88
 11
59.488
 21
56.9216
 12
59.238
 22
56.88
 13
59.488
 23
56.8384
  0
LINE
  8
Grid_Dimension
 10
59.238
 20
56.88
 11
60.968
 21
56.88
  0
SOLID
  8
Grid_Dimension
 10
60.968
 20
56.88
 11
60.718
 21
56.9216
 12
60.968
 22
56.88
 13
60.718
 23
56.8384
0
TEXT
  8
Grid_Dimension
10
59.971
20
56.92
40
0.1
1
1730
50
0
41
1
7
stylebar
72
0
11
0
21
0
  0
SOLID
  8
Grid_Dimension
 10
60.968
 20
6.11
 11
61.218
 21
6.1516
 12
60.968
 22
6.11
 13
61.218
 23
6.0684
  0
LINE
  8
Grid_Dimension
 10
60.968
 20
6.11
 11
65.558
 21
6.11
  0
SOLID
  8
Grid_Dimension
 10
65.558
 20
6.11
 11
65.308
 21
6.1516
 12
65.558
 22
6.11
 13
65.308
 23
6.0684
0
TEXT
  8
Grid_Dimension
10
63.131
20
6.15
40
0.1
1
4590
50
0
41
1
7
stylebar
72
0
11
0
21
0
  0
SOLID
  8
Grid_Dimension
 10
60.968
 20
56.88
 11
61.218
 21
56.9216
 12
60.968
 22
56.88
 13
61.218
 23
56.8384
  0
LINE
  8
Grid_Dimension
 10
60.968
 20
56.88
 11
65.558
 21
56.88
  0
SOLID
  8
Grid_Dimension
 10
65.558
 20
56.88
 11
65.308
 21
56.9216
 12
65.558
 22
56.88
 13
65.308
 23
56.8384
0
TEXT
  8
Grid_Dimension
10
63.131
20
56.92
40
0.1
1
4590
50
0
41
1
7
stylebar
72
0
11
0
21
0
0
TEXT
  8
XMidBottom_Steel
10
31.7467
20
10.0378
40
0.1
1
360.9
50
90
41
1
7
STRUDS_Arial
72
1
11
31.7467
21
10.0378
0
TEXT
  8
XLeftTop_Steel
10
30.9811
20
7.77505
40
0.1
1
181.1
50
90
41
1
7
STRUDS_Arial
72
0
11
30.9811
21
7.77505
0
TEXT
  8
XRightTop_Steel
10
30.9811
20
12.3516
40
0.1
1
200.8
50
90
41
1
7
STRUDS_Arial
72
2
11
30.9811
21
12.3516
0
TEXT
  8
XMidBottom_Steel
10
31.7467
20
14.9036
40
0.1
1
238.9
50
90
41
1
7
STRUDS_Arial
72
1
11
31.7467
21
14.9036
0
TEXT
  8
XLeftTop_Steel
10
30.9811
20
12.6408
40
0.1
1
151.4
50
90
41
1
7
STRUDS_Arial
72
0
11
30.9811
21
12.6408
0
TEXT
  8
XRightTop_Steel
10
30.9811
20
17.2174
40
0.1
1
349.4
50
90
41
1
7
STRUDS_Arial
72
2
11
30.9811
21
17.2174
0
TEXT
  8
XMidBottom_Steel
10
31.7467
20
18.6635
40
0.1
1
0.0
50
90
41
1
7
STRUDS_Arial
72
1
11
31.7467
21
18.6635
0
TEXT
  8
XLeftTop_Steel
10
30.9811
20
17.5236
40
0.1
1
287.0
50
90
41
1
7
STRUDS_Arial
72
0
11
30.9811
21
17.5236
0
TEXT
  8
XRightTop_Steel
10
30.9811
20
19.8885
40
0.1
1
280.8
50
90
41
1
7
STRUDS_Arial
72
2
11
30.9811
21
19.8885
0
TEXT
  8
XMidBottom_Steel
10
31.7467
20
22.5255
40
0.1
1
216.4
50
90
41
1
7
STRUDS_Arial
72
1
11
31.7467
21
22.5255
0
TEXT
  8
XLeftTop_Steel
10
30.9811
20
20.1947
40
0.1
1
269.0
50
90
41
1
7
STRUDS_Arial
72
0
11
30.9811
21
20.1947
0
TEXT
  8
XRightTop_Steel
10
30.9811
20
24.9074
40
0.1
1
250.0
50
90
41
1
7
STRUDS_Arial
72
2
11
30.9811
21
24.9074
0
TEXT
  8
XMidBottom_Steel
10
31.7467
20
27.5614
40
0.1
1
166.8
50
90
41
1
7
STRUDS_Arial
72
1
11
31.7467
21
27.5614
0
TEXT
  8
XLeftTop_Steel
10
30.9811
20
25.2136
40
0.1
1
192.4
50
90
41
1
7
STRUDS_Arial
72
0
11
30.9811
21
25.2136
0
TEXT
  8
XRightTop_Steel
10
30.9811
20
29.9433
40
0.1
1
215.8
50
90
41
1
7
STRUDS_Arial
72
2
11
30.9811
21
29.9433
0
TEXT
  8
XMidBottom_Steel
10
31.7467
20
32.5803
40
0.1
1
127.5
50
90
41
1
7
STRUDS_Arial
72
1
11
31.7467
21
32.5803
0
TEXT
  8
XLeftTop_Steel
10
30.9811
20
30.2495
40
0.1
1
168.0
50
90
41
1
7
STRUDS_Arial
72
0
11
30.9811
21
30.2495
0
TEXT
  8
XRightTop_Steel
10
30.9811
20
34.9962
40
0.1
1
196.0
50
90
41
1
7
STRUDS_Arial
72
2
11
30.9811
21
34.9962
0
TEXT
  8
XMidBottom_Steel
10
31.7467
20
37.5992
40
0.1
1
126.1
50
90
41
1
7
STRUDS_Arial
72
1
11
31.7467
21
37.5992
0
TEXT
  8
XLeftTop_Steel
10
30.9811
20
35.2684
40
0.1
1
167.6
50
90
41
1
7
STRUDS_Arial
72
0
11
30.9811
21
35.2684
0
TEXT
  8
XRightTop_Steel
10
30.9811
20
39.9981
40
0.1
1
189.9
50
90
41
1
7
STRUDS_Arial
72
2
11
30.9811
21
39.9981
0
TEXT
  8
XMidBottom_Steel
10
31.7467
20
42.6352
40
0.1
1
110.7
50
90
41
1
7
STRUDS_Arial
72
1
11
31.7467
21
42.6352
0
TEXT
  8
XLeftTop_Steel
10
30.9811
20
40.3214
40
0.1
1
180.8
50
90
41
1
7
STRUDS_Arial
72
0
11
30.9811
21
40.3214
0
TEXT
  8
XRightTop_Steel
10
30.9811
20
45.051
40
0.1
1
321.3
50
90
41
1
7
STRUDS_Arial
72
2
11
30.9811
21
45.051
0
TEXT
  8
XMidBottom_Steel
10
31.7467
20
46.4972
40
0.1
1
29.3
50
90
41
1
7
STRUDS_Arial
72
1
11
31.7467
21
46.4972
0
TEXT
  8
XLeftTop_Steel
10
30.9811
20
45.3403
40
0.1
1
390.1
50
90
41
1
7
STRUDS_Arial
72
0
11
30.9811
21
45.3403
0
TEXT
  8
XRightTop_Steel
10
30.9811
20
47.7221
40
0.1
1
427.6
50
90
41
1
7
STRUDS_Arial
72
2
11
30.9811
21
47.7221
0
TEXT
  8
XMidBottom_Steel
10
31.7467
20
51.6011
40
0.1
1
430.2
50
90
41
1
7
STRUDS_Arial
72
1
11
31.7467
21
51.6011
0
TEXT
  8
XLeftTop_Steel
10
30.9811
20
48.0113
40
0.1
1
268.6
50
90
41
1
7
STRUDS_Arial
72
0
11
30.9811
21
48.0113
0
TEXT
  8
XRightTop_Steel
10
30.9811
20
55.259
40
0.1
1
131.7
50
90
41
1
7
STRUDS_Arial
72
2
11
30.9811
21
55.259
0
TEXT
  8
XMidBottom_Steel
10
34.2476
20
46.4972
40
0.1
1
1.9
50
90
41
1
7
STRUDS_Arial
72
1
11
34.2476
21
46.4972
0
TEXT
  8
XLeftTop_Steel
10
33.482
20
45.3403
40
0.1
1
371.2
50
90
41
1
7
STRUDS_Arial
72
0
11
33.482
21
45.3403
0
TEXT
  8
XRightTop_Steel
10
33.482
20
47.7221
40
0.1
1
372.4
50
90
41
1
7
STRUDS_Arial
72
2
11
33.482
21
47.7221
0
TEXT
  8
XMidBottom_Steel
10
34.2476
20
51.6011
40
0.1
1
1667.1
50
90
41
1
7
STRUDS_Arial
72
1
11
34.2476
21
51.6011
0
TEXT
  8
XLeftTop_Steel
10
33.482
20
48.0113
40
0.1
1
269.6
50
90
41
1
7
STRUDS_Arial
72
0
11
33.482
21
48.0113
0
TEXT
  8
XRightTop_Steel
10
33.482
20
55.259
40
0.1
1
273.4
50
90
41
1
7
STRUDS_Arial
72
2
11
33.482
21
55.259
0
TEXT
  8
XMidBottom_Steel
10
36.4083
20
18.6635
40
0.1
1
0.0
50
90
41
1
7
STRUDS_Arial
72
1
11
36.4083
21
18.6635
0
TEXT
  8
XLeftTop_Steel
10
35.6427
20
17.5236
40
0.1
1
931.9
50
90
41
1
7
STRUDS_Arial
72
0
11
35.6427
21
17.5236
0
TEXT
  8
XRightTop_Steel
10
35.6427
20
19.8885
40
0.1
1
94.1
50
90
41
1
7
STRUDS_Arial
72
2
11
35.6427
21
19.8885
0
TEXT
  8
XMidBottom_Steel
10
36.4083
20
22.5255
40
0.1
1
349.5
50
90
41
1
7
STRUDS_Arial
72
1
11
36.4083
21
22.5255
0
TEXT
  8
XLeftTop_Steel
10
35.6427
20
20.1947
40
0.1
1
152.7
50
90
41
1
7
STRUDS_Arial
72
0
11
35.6427
21
20.1947
0
TEXT
  8
XRightTop_Steel
10
35.6427
20
24.9074
40
0.1
1
156.3
50
90
41
1
7
STRUDS_Arial
72
2
11
35.6427
21
24.9074
0
TEXT
  8
XMidBottom_Steel
10
36.4083
20
27.5614
40
0.1
1
298.3
50
90
41
1
7
STRUDS_Arial
72
1
11
36.4083
21
27.5614
0
TEXT
  8
XLeftTop_Steel
10
35.6427
20
25.2136
40
0.1
1
188.2
50
90
41
1
7
STRUDS_Arial
72
0
11
35.6427
21
25.2136
0
TEXT
  8
XRightTop_Steel
10
35.6427
20
29.9433
40
0.1
1
186.2
50
90
41
1
7
STRUDS_Arial
72
2
11
35.6427
21
29.9433
0
TEXT
  8
XMidBottom_Steel
10
36.4083
20
32.5803
40
0.1
1
242.9
50
90
41
1
7
STRUDS_Arial
72
1
11
36.4083
21
32.5803
0
TEXT
  8
XLeftTop_Steel
10
35.6427
20
30.2495
40
0.1
1
212.5
50
90
41
1
7
STRUDS_Arial
72
0
11
35.6427
21
30.2495
0
TEXT
  8
XRightTop_Steel
10
35.6427
20
34.9962
40
0.1
1
296.8
50
90
41
1
7
STRUDS_Arial
72
2
11
35.6427
21
34.9962
0
TEXT
  8
XMidBottom_Steel
10
36.4083
20
37.5992
40
0.1
1
225.8
50
90
41
1
7
STRUDS_Arial
72
1
11
36.4083
21
37.5992
0
TEXT
  8
XLeftTop_Steel
10
35.6427
20
35.2684
40
0.1
1
290.9
50
90
41
1
7
STRUDS_Arial
72
0
11
35.6427
21
35.2684
0
TEXT
  8
XRightTop_Steel
10
35.6427
20
39.9981
40
0.1
1
227.9
50
90
41
1
7
STRUDS_Arial
72
2
11
35.6427
21
39.9981
0
TEXT
  8
XMidBottom_Steel
10
36.4083
20
42.6352
40
0.1
1
300.2
50
90
41
1
7
STRUDS_Arial
72
1
11
36.4083
21
42.6352
0
TEXT
  8
XLeftTop_Steel
10
35.6427
20
40.3214
40
0.1
1
217.0
50
90
41
1
7
STRUDS_Arial
72
0
11
35.6427
21
40.3214
0
TEXT
  8
XRightTop_Steel
10
35.6427
20
45.051
40
0.1
1
152.4
50
90
41
1
7
STRUDS_Arial
72
2
11
35.6427
21
45.051
0
TEXT
  8
XMidBottom_Steel
10
36.6125
20
12.4537
40
0.1
1
983.1
50
90
41
1
7
STRUDS_Arial
72
1
11
36.6125
21
12.4537
0
TEXT
  8
XLeftTop_Steel
10
35.8469
20
7.77505
40
0.1
1
541.8
50
90
41
1
7
STRUDS_Arial
72
0
11
35.8469
21
7.77505
0
TEXT
  8
XRightTop_Steel
10
35.8469
20
17.2174
40
0.1
1
1168.6
50
90
41
1
7
STRUDS_Arial
72
2
11
35.8469
21
17.2174
0
TEXT
  8
XMidBottom_Steel
10
36.7826
20
50.0699
40
0.1
1
299.8
50
90
41
1
7
STRUDS_Arial
72
1
11
36.7826
21
50.0699
0
TEXT
  8
XLeftTop_Steel
10
36.017
20
48.0113
40
0.1
1
243.0
50
90
41
1
7
STRUDS_Arial
72
0
11
36.017
21
48.0113
0
TEXT
  8
XRightTop_Steel
10
36.017
20
52.2136
40
0.1
1
0.0
50
90
41
1
7
STRUDS_Arial
72
2
11
36.017
21
52.2136
0
TEXT
  8
XMidBottom_Steel
10
36.7826
20
53.8469
40
0.1
1
255.1
50
90
41
1
7
STRUDS_Arial
72
1
11
36.7826
21
53.8469
0
TEXT
  8
XLeftTop_Steel
10
36.017
20
52.5028
40
0.1
1
0.0
50
90
41
1
7
STRUDS_Arial
72
0
11
36.017
21
52.5028
0
TEXT
  8
XRightTop_Steel
10
36.017
20
55.259
40
0.1
1
237.9
50
90
41
1
7
STRUDS_Arial
72
2
11
36.017
21
55.259
0
TEXT
  8
XMidBottom_Steel
10
39.3176
20
50.0699
40
0.1
1
296.8
50
90
41
1
7
STRUDS_Arial
72
1
11
39.3176
21
50.0699
0
TEXT
  8
XLeftTop_Steel
10
38.552
20
48.0113
40
0.1
1
252.5
50
90
41
1
7
STRUDS_Arial
72
0
11
38.552
21
48.0113
0
TEXT
  8
XRightTop_Steel
10
38.552
20
52.2136
40
0.1
1
0.0
50
90
41
1
7
STRUDS_Arial
72
2
11
38.552
21
52.2136
0
TEXT
  8
XMidBottom_Steel
10
39.3176
20
53.8469
40
0.1
1
273.2
50
90
41
1
7
STRUDS_Arial
72
1
11
39.3176
21
53.8469
0
TEXT
  8
XLeftTop_Steel
10
38.552
20
52.5028
40
0.1
1
0.0
50
90
41
1
7
STRUDS_Arial
72
0
11
38.552
21
52.5028
0
TEXT
  8
XRightTop_Steel
10
38.552
20
55.259
40
0.1
1
257.7
50
90
41
1
7
STRUDS_Arial
72
2
11
38.552
21
55.259
0
TEXT
  8
XMidBottom_Steel
10
41.087
20
18.6635
40
0.1
1
49.0
50
90
41
1
7
STRUDS_Arial
72
1
11
41.087
21
18.6635
0
TEXT
  8
XLeftTop_Steel
10
40.3214
20
17.5236
40
0.1
1
275.6
50
90
41
1
7
STRUDS_Arial
72
0
11
40.3214
21
17.5236
0
TEXT
  8
XRightTop_Steel
10
40.3214
20
19.8885
40
0.1
1
212.9
50
90
41
1
7
STRUDS_Arial
72
2
11
40.3214
21
19.8885
0
TEXT
  8
XMidBottom_Steel
10
41.087
20
22.5255
40
0.1
1
353.2
50
90
41
1
7
STRUDS_Arial
72
1
11
41.087
21
22.5255
0
TEXT
  8
XLeftTop_Steel
10
40.3214
20
20.1947
40
0.1
1
181.9
50
90
41
1
7
STRUDS_Arial
72
0
11
40.3214
21
20.1947
0
TEXT
  8
XRightTop_Steel
10
40.3214
20
24.9074
40
0.1
1
84.2
50
90
41
1
7
STRUDS_Arial
72
2
11
40.3214
21
24.9074
0
TEXT
  8
XMidBottom_Steel
10
41.087
20
27.5614
40
0.1
1
364.5
50
90
41
1
7
STRUDS_Arial
72
1
11
41.087
21
27.5614
0
TEXT
  8
XLeftTop_Steel
10
40.3214
20
25.2136
40
0.1
1
198.2
50
90
41
1
7
STRUDS_Arial
72
0
11
40.3214
21
25.2136
0
TEXT
  8
XRightTop_Steel
10
40.3214
20
29.9433
40
0.1
1
568.9
50
90
41
1
7
STRUDS_Arial
72
2
11
40.3214
21
29.9433
0
TEXT
  8
XMidBottom_Steel
10
41.087
20
32.5803
40
0.1
1
115.4
50
90
41
1
7
STRUDS_Arial
72
1
11
41.087
21
32.5803
0
TEXT
  8
XLeftTop_Steel
10
40.3214
20
30.2495
40
0.1
1
378.1
50
90
41
1
7
STRUDS_Arial
72
0
11
40.3214
21
30.2495
0
TEXT
  8
XRightTop_Steel
10
40.3214
20
34.9962
40
0.1
1
350.7
50
90
41
1
7
STRUDS_Arial
72
2
11
40.3214
21
34.9962
0
TEXT
  8
XMidBottom_Steel
10
41.087
20
37.5992
40
0.1
1
148.4
50
90
41
1
7
STRUDS_Arial
72
1
11
41.087
21
37.5992
0
TEXT
  8
XLeftTop_Steel
10
40.3214
20
35.2684
40
0.1
1
298.8
50
90
41
1
7
STRUDS_Arial
72
0
11
40.3214
21
35.2684
0
TEXT
  8
XRightTop_Steel
10
40.3214
20
39.9981
40
0.1
1
286.8
50
90
41
1
7
STRUDS_Arial
72
2
11
40.3214
21
39.9981
0
TEXT
  8
XMidBottom_Steel
10
41.087
20
42.6352
40
0.1
1
204.6
50
90
41
1
7
STRUDS_Arial
72
1
11
41.087
21
42.6352
0
TEXT
  8
XLeftTop_Steel
10
40.3214
20
40.3214
40
0.1
1
288.6
50
90
41
1
7
STRUDS_Arial
72
0
11
40.3214
21
40.3214
0
TEXT
  8
XRightTop_Steel
10
40.3214
20
45.051
40
0.1
1
259.6
50
90
41
1
7
STRUDS_Arial
72
2
11
40.3214
21
45.051
0
TEXT
  8
XMidBottom_Steel
10
41.4783
20
8.69376
40
0.1
1
108.9
50
90
41
1
7
STRUDS_Arial
72
1
11
41.4783
21
8.69376
0
TEXT
  8
XLeftTop_Steel
10
40.7127
20
7.77505
40
0.1
1
204.0
50
90
41
1
7
STRUDS_Arial
72
0
11
40.7127
21
7.77505
0
TEXT
  8
XRightTop_Steel
10
40.7127
20
9.68053
40
0.1
1
269.6
50
90
41
1
7
STRUDS_Arial
72
2
11
40.7127
21
9.68053
0
TEXT
  8
XMidBottom_Steel
10
41.4783
20
11.1267
40
0.1
1
287.1
50
90
41
1
7
STRUDS_Arial
72
1
11
41.4783
21
11.1267
0
TEXT
  8
XLeftTop_Steel
10
40.7127
20
9.98677
40
0.1
1
481.2
50
90
41
1
7
STRUDS_Arial
72
0
11
40.7127
21
9.98677
0
TEXT
  8
XRightTop_Steel
10
40.7127
20
12.3516
40
0.1
1
326.9
50
90
41
1
7
STRUDS_Arial
72
2
11
40.7127
21
12.3516
0
TEXT
  8
XMidBottom_Steel
10
41.4783
20
14.9036
40
0.1
1
1263.8
50
90
41
1
7
STRUDS_Arial
72
1
11
41.4783
21
14.9036
0
TEXT
  8
XLeftTop_Steel
10
40.7127
20
12.6408
40
0.1
1
1219.2
50
90
41
1
7
STRUDS_Arial
72
0
11
40.7127
21
12.6408
0
TEXT
  8
XRightTop_Steel
10
40.7127
20
17.2174
40
0.1
1
350.9
50
90
41
1
7
STRUDS_Arial
72
2
11
40.7127
21
17.2174
0
TEXT
  8
XMidBottom_Steel
10
41.8696
20
46.4972
40
0.1
1
0.0
50
90
41
1
7
STRUDS_Arial
72
1
11
41.8696
21
46.4972
0
TEXT
  8
XLeftTop_Steel
10
41.104
20
45.3403
40
0.1
1
364.4
50
90
41
1
7
STRUDS_Arial
72
0
11
41.104
21
45.3403
0
TEXT
  8
XRightTop_Steel
10
41.104
20
47.7221
40
0.1
1
324.6
50
90
41
1
7
STRUDS_Arial
72
2
11
41.104
21
47.7221
0
TEXT
  8
XMidBottom_Steel
10
41.8696
20
51.6011
40
0.1
1
1776.0
50
90
41
1
7
STRUDS_Arial
72
1
11
41.8696
21
51.6011
0
TEXT
  8
XLeftTop_Steel
10
41.104
20
48.0113
40
0.1
1
733.0
50
90
41
1
7
STRUDS_Arial
72
0
11
41.104
21
48.0113
0
TEXT
  8
XRightTop_Steel
10
41.104
20
55.259
40
0.1
1
742.6
50
90
41
1
7
STRUDS_Arial
72
2
11
41.104
21
55.259
0
TEXT
  8
XMidBottom_Steel
10
43.4518
20
18.6635
40
0.1
1
656.7
50
90
41
1
7
STRUDS_Arial
72
1
11
43.4518
21
18.6635
0
TEXT
  8
XLeftTop_Steel
10
42.6862
20
17.5236
40
0.1
1
562.3
50
90
41
1
7
STRUDS_Arial
72
0
11
42.6862
21
17.5236
0
TEXT
  8
XRightTop_Steel
10
42.6862
20
19.8885
40
0.1
1
0.0
50
90
41
1
7
STRUDS_Arial
72
2
11
42.6862
21
19.8885
0
TEXT
  8
XMidBottom_Steel
10
43.4518
20
22.5255
40
0.1
1
885.6
50
90
41
1
7
STRUDS_Arial
72
1
11
43.4518
21
22.5255
0
TEXT
  8
XLeftTop_Steel
10
42.6862
20
20.1947
40
0.1
1
0.0
50
90
41
1
7
STRUDS_Arial
72
0
11
42.6862
21
20.1947
0
TEXT
  8
XRightTop_Steel
10
42.6862
20
24.9074
40
0.1
1
0.0
50
90
41
1
7
STRUDS_Arial
72
2
11
42.6862
21
24.9074
0
TEXT
  8
XMidBottom_Steel
10
43.4518
20
27.5614
40
0.1
1
676.4
50
90
41
1
7
STRUDS_Arial
72
1
11
43.4518
21
27.5614
0
TEXT
  8
XLeftTop_Steel
10
42.6862
20
25.2136
40
0.1
1
0.0
50
90
41
1
7
STRUDS_Arial
72
0
11
42.6862
21
25.2136
0
TEXT
  8
XRightTop_Steel
10
42.6862
20
29.9433
40
0.1
1
1307.8
50
90
41
1
7
STRUDS_Arial
72
2
11
42.6862
21
29.9433
0
TEXT
  8
XMidBottom_Steel
10
43.4518
20
32.5803
40
0.1
1
0.0
50
90
41
1
7
STRUDS_Arial
72
1
11
43.4518
21
32.5803
0
TEXT
  8
XLeftTop_Steel
10
42.6862
20
30.2495
40
0.1
1
820.1
50
90
41
1
7
STRUDS_Arial
72
0
11
42.6862
21
30.2495
0
TEXT
  8
XRightTop_Steel
10
42.6862
20
34.9962
40
0.1
1
312.0
50
90
41
1
7
STRUDS_Arial
72
2
11
42.6862
21
34.9962
0
TEXT
  8
XMidBottom_Steel
10
43.4518
20
37.5992
40
0.1
1
149.3
50
90
41
1
7
STRUDS_Arial
72
1
11
43.4518
21
37.5992
0
TEXT
  8
XLeftTop_Steel
10
42.6862
20
35.2684
40
0.1
1
274.7
50
90
41
1
7
STRUDS_Arial
72
0
11
42.6862
21
35.2684
0
TEXT
  8
XRightTop_Steel
10
42.6862
20
39.9981
40
0.1
1
304.8
50
90
41
1
7
STRUDS_Arial
72
2
11
42.6862
21
39.9981
0
TEXT
  8
XMidBottom_Steel
10
43.4518
20
42.6352
40
0.1
1
179.9
50
90
41
1
7
STRUDS_Arial
72
1
11
43.4518
21
42.6352
0
TEXT
  8
XLeftTop_Steel
10
42.6862
20
40.3214
40
0.1
1
299.6
50
90
41
1
7
STRUDS_Arial
72
0
11
42.6862
21
40.3214
0
TEXT
  8
XRightTop_Steel
10
42.6862
20
45.051
40
0.1
1
220.7
50
90
41
1
7
STRUDS_Arial
72
2
11
42.6862
21
45.051
0
TEXT
  8
XMidBottom_Steel
10
46.3951
20
46.4972
40
0.1
1
0.0
50
90
41
1
7
STRUDS_Arial
72
1
11
46.3951
21
46.4972
0
TEXT
  8
XLeftTop_Steel
10
45.6295
20
45.3403
40
0.1
1
209.3
50
90
41
1
7
STRUDS_Arial
72
0
11
45.6295
21
45.3403
0
TEXT
  8
XRightTop_Steel
10
45.6295
20
47.7221
40
0.1
1
74.3
50
90
41
1
7
STRUDS_Arial
72
2
11
45.6295
21
47.7221
0
TEXT
  8
XMidBottom_Steel
10
46.3951
20
51.6011
40
0.1
1
1254.4
50
90
41
1
7
STRUDS_Arial
72
1
11
46.3951
21
51.6011
0
TEXT
  8
XLeftTop_Steel
10
45.6295
20
48.0113
40
0.1
1
111.3
50
90
41
1
7
STRUDS_Arial
72
0
11
45.6295
21
48.0113
0
TEXT
  8
XRightTop_Steel
10
45.6295
20
55.259
40
0.1
1
42.8
50
90
41
1
7
STRUDS_Arial
72
2
11
45.6295
21
55.259
0
TEXT
  8
XMidBottom_Steel
10
46.5822
20
13.5766
40
0.1
1
1952.5
50
90
41
1
7
STRUDS_Arial
72
1
11
46.5822
21
13.5766
0
TEXT
  8
XLeftTop_Steel
10
45.8166
20
9.98677
40
0.1
1
658.1
50
90
41
1
7
STRUDS_Arial
72
0
11
45.8166
21
9.98677
0
TEXT
  8
XRightTop_Steel
10
45.8166
20
17.2174
40
0.1
1
949.2
50
90
41
1
7
STRUDS_Arial
72
2
11
45.8166
21
17.2174
0
TEXT
  8
XMidBottom_Steel
10
48.913
20
21.1985
40
0.1
1
1620.3
50
90
41
1
7
STRUDS_Arial
72
1
11
48.913
21
21.1985
0
TEXT
  8
XLeftTop_Steel
10
48.1474
20
17.5236
40
0.1
1
617.1
50
90
41
1
7
STRUDS_Arial
72
0
11
48.1474
21
17.5236
0
TEXT
  8
XRightTop_Steel
10
48.1474
20
24.9074
40
0.1
1
0.0
50
90
41
1
7
STRUDS_Arial
72
2
11
48.1474
21
24.9074
0
TEXT
  8
XMidBottom_Steel
10
48.913
20
27.5614
40
0.1
1
1142.7
50
90
41
1
7
STRUDS_Arial
72
1
11
48.913
21
27.5614
0
TEXT
  8
XLeftTop_Steel
10
48.1474
20
25.2136
40
0.1
1
0.0
50
90
41
1
7
STRUDS_Arial
72
0
11
48.1474
21
25.2136
0
TEXT
  8
XRightTop_Steel
10
48.1474
20
29.9433
40
0.1
1
2010.0
50
90
41
1
7
STRUDS_Arial
72
2
11
48.1474
21
29.9433
0
TEXT
  8
XMidBottom_Steel
10
48.913
20
32.5803
40
0.1
1
0.0
50
90
41
1
7
STRUDS_Arial
72
1
11
48.913
21
32.5803
0
TEXT
  8
XLeftTop_Steel
10
48.1474
20
30.2495
40
0.1
1
1364.4
50
90
41
1
7
STRUDS_Arial
72
0
11
48.1474
21
30.2495
0
TEXT
  8
XRightTop_Steel
10
48.1474
20
34.9962
40
0.1
1
276.4
50
90
41
1
7
STRUDS_Arial
72
2
11
48.1474
21
34.9962
0
TEXT
  8
XMidBottom_Steel
10
48.913
20
37.5992
40
0.1
1
188.8
50
90
41
1
7
STRUDS_Arial
72
1
11
48.913
21
37.5992
0
TEXT
  8
XLeftTop_Steel
10
48.1474
20
35.2684
40
0.1
1
266.9
50
90
41
1
7
STRUDS_Arial
72
0
11
48.1474
21
35.2684
0
TEXT
  8
XRightTop_Steel
10
48.1474
20
39.9981
40
0.1
1
333.7
50
90
41
1
7
STRUDS_Arial
72
2
11
48.1474
21
39.9981
0
TEXT
  8
XMidBottom_Steel
10
48.913
20
42.6352
40
0.1
1
218.3
50
90
41
1
7
STRUDS_Arial
72
1
11
48.913
21
42.6352
0
TEXT
  8
XLeftTop_Steel
10
48.1474
20
40.3214
40
0.1
1
333.7
50
90
41
1
7
STRUDS_Arial
72
0
11
48.1474
21
40.3214
0
TEXT
  8
XRightTop_Steel
10
48.1474
20
45.051
40
0.1
1
214.4
50
90
41
1
7
STRUDS_Arial
72
2
11
48.1474
21
45.051
0
TEXT
  8
XMidBottom_Steel
10
50.9206
20
46.4972
40
0.1
1
0.0
50
90
41
1
7
STRUDS_Arial
72
1
11
50.9206
21
46.4972
0
TEXT
  8
XLeftTop_Steel
10
50.155
20
45.3403
40
0.1
1
107.2
50
90
41
1
7
STRUDS_Arial
72
0
11
50.155
21
45.3403
0
TEXT
  8
XRightTop_Steel
10
50.155
20
47.7221
40
0.1
1
325.8
50
90
41
1
7
STRUDS_Arial
72
2
11
50.155
21
47.7221
0
TEXT
  8
XMidBottom_Steel
10
50.9206
20
51.6011
40
0.1
1
941.8
50
90
41
1
7
STRUDS_Arial
72
1
11
50.9206
21
51.6011
0
TEXT
  8
XLeftTop_Steel
10
50.155
20
48.0113
40
0.1
1
534.2
50
90
41
1
7
STRUDS_Arial
72
0
11
50.155
21
48.0113
0
TEXT
  8
XRightTop_Steel
10
50.155
20
55.259
40
0.1
1
277.6
50
90
41
1
7
STRUDS_Arial
72
2
11
50.155
21
55.259
0
TEXT
  8
XMidBottom_Steel
10
51.8393
20
11.1267
40
0.1
1
405.9
50
90
41
1
7
STRUDS_Arial
72
1
11
51.8393
21
11.1267
0
TEXT
  8
XLeftTop_Steel
10
51.0737
20
9.98677
40
0.1
1
512.4
50
90
41
1
7
STRUDS_Arial
72
0
11
51.0737
21
9.98677
0
TEXT
  8
XRightTop_Steel
10
51.0737
20
12.3516
40
0.1
1
0.0
50
90
41
1
7
STRUDS_Arial
72
2
11
51.0737
21
12.3516
0
TEXT
  8
XMidBottom_Steel
10
51.8393
20
14.9036
40
0.1
1
557.4
50
90
41
1
7
STRUDS_Arial
72
1
11
51.8393
21
14.9036
0
TEXT
  8
XLeftTop_Steel
10
51.0737
20
12.6408
40
0.1
1
0.0
50
90
41
1
7
STRUDS_Arial
72
0
11
51.0737
21
12.6408
0
TEXT
  8
XRightTop_Steel
10
51.0737
20
17.2174
40
0.1
1
604.8
50
90
41
1
7
STRUDS_Arial
72
2
11
51.0737
21
17.2174
0
TEXT
  8
XMidBottom_Steel
10
54.3913
20
21.1985
40
0.1
1
870.6
50
90
41
1
7
STRUDS_Arial
72
1
11
54.3913
21
21.1985
0
TEXT
  8
XLeftTop_Steel
10
53.6257
20
17.5236
40
0.1
1
773.5
50
90
41
1
7
STRUDS_Arial
72
0
11
53.6257
21
17.5236
0
TEXT
  8
XRightTop_Steel
10
53.6257
20
24.9074
40
0.1
1
523.1
50
90
41
1
7
STRUDS_Arial
72
2
11
53.6257
21
24.9074
0
TEXT
  8
XMidBottom_Steel
10
54.3913
20
27.5614
40
0.1
1
173.4
50
90
41
1
7
STRUDS_Arial
72
1
11
54.3913
21
27.5614
0
TEXT
  8
XLeftTop_Steel
10
53.6257
20
25.2136
40
0.1
1
494.7
50
90
41
1
7
STRUDS_Arial
72
0
11
53.6257
21
25.2136
0
TEXT
  8
XRightTop_Steel
10
53.6257
20
29.9433
40
0.1
1
483.8
50
90
41
1
7
STRUDS_Arial
72
2
11
53.6257
21
29.9433
0
TEXT
  8
XMidBottom_Steel
10
54.3913
20
32.5803
40
0.1
1
129.5
50
90
41
1
7
STRUDS_Arial
72
1
11
54.3913
21
32.5803
0
TEXT
  8
XLeftTop_Steel
10
53.6257
20
30.2495
40
0.1
1
354.1
50
90
41
1
7
STRUDS_Arial
72
0
11
53.6257
21
30.2495
0
TEXT
  8
XRightTop_Steel
10
53.6257
20
34.9962
40
0.1
1
335.9
50
90
41
1
7
STRUDS_Arial
72
2
11
53.6257
21
34.9962
0
TEXT
  8
XMidBottom_Steel
10
54.3913
20
37.5992
40
0.1
1
145.7
50
90
41
1
7
STRUDS_Arial
72
1
11
54.3913
21
37.5992
0
TEXT
  8
XLeftTop_Steel
10
53.6257
20
35.2684
40
0.1
1
296.8
50
90
41
1
7
STRUDS_Arial
72
0
11
53.6257
21
35.2684
0
TEXT
  8
XRightTop_Steel
10
53.6257
20
39.9981
40
0.1
1
288.2
50
90
41
1
7
STRUDS_Arial
72
2
11
53.6257
21
39.9981
0
TEXT
  8
XMidBottom_Steel
10
54.3913
20
42.6352
40
0.1
1
128.3
50
90
41
1
7
STRUDS_Arial
72
1
11
54.3913
21
42.6352
0
TEXT
  8
XLeftTop_Steel
10
53.6257
20
40.3214
40
0.1
1
286.0
50
90
41
1
7
STRUDS_Arial
72
0
11
53.6257
21
40.3214
0
TEXT
  8
XRightTop_Steel
10
53.6257
20
45.051
40
0.1
1
339.9
50
90
41
1
7
STRUDS_Arial
72
2
11
53.6257
21
45.051
0
TEXT
  8
XMidBottom_Steel
10
55.259
20
46.4972
40
0.1
1
122.3
50
90
41
1
7
STRUDS_Arial
72
1
11
55.259
21
46.4972
0
TEXT
  8
XLeftTop_Steel
10
54.4934
20
45.3403
40
0.1
1
567.7
50
90
41
1
7
STRUDS_Arial
72
0
11
54.4934
21
45.3403
0
TEXT
  8
XRightTop_Steel
10
54.4934
20
47.7221
40
0.1
1
0.0
50
90
41
1
7
STRUDS_Arial
72
2
11
54.4934
21
47.7221
0
TEXT
  8
XMidBottom_Steel
10
55.259
20
51.6011
40
0.1
1
1401.0
50
90
41
1
7
STRUDS_Arial
72
1
11
55.259
21
51.6011
0
TEXT
  8
XLeftTop_Steel
10
54.4934
20
48.0113
40
0.1
1
4.0
50
90
41
1
7
STRUDS_Arial
72
0
11
54.4934
21
48.0113
0
TEXT
  8
XRightTop_Steel
10
54.4934
20
55.259
40
0.1
1
69.7
50
90
41
1
7
STRUDS_Arial
72
2
11
54.4934
21
55.259
0
TEXT
  8
XMidBottom_Steel
10
56.7391
20
10.0378
40
0.1
1
324.7
50
90
41
1
7
STRUDS_Arial
72
1
11
56.7391
21
10.0378
0
TEXT
  8
XLeftTop_Steel
10
55.9735
20
7.77505
40
0.1
1
169.1
50
90
41
1
7
STRUDS_Arial
72
0
11
55.9735
21
7.77505
0
TEXT
  8
XRightTop_Steel
10
55.9735
20
12.3516
40
0.1
1
703.9
50
90
41
1
7
STRUDS_Arial
72
2
11
55.9735
21
12.3516
0
TEXT
  8
XMidBottom_Steel
10
56.7391
20
12.9981
40
0.1
1
996.7
50
90
41
1
7
STRUDS_Arial
72
1
11
56.7391
21
12.9981
0
TEXT
  8
XLeftTop_Steel
10
55.9735
20
12.6408
40
0.1
1
1681.7
50
90
41
1
7
STRUDS_Arial
72
0
11
55.9735
21
12.6408
0
TEXT
  8
XRightTop_Steel
10
55.9735
20
13.4575
40
0.1
1
1107.4
50
90
41
1
7
STRUDS_Arial
72
2
11
55.9735
21
13.4575
0
TEXT
  8
XMidBottom_Steel
10
56.7391
20
15.448
40
0.1
1
107.4
50
90
41
1
7
STRUDS_Arial
72
1
11
56.7391
21
15.448
0
TEXT
  8
XLeftTop_Steel
10
55.9735
20
13.7637
40
0.1
1
65.3
50
90
41
1
7
STRUDS_Arial
72
0
11
55.9735
21
13.7637
0
TEXT
  8
XRightTop_Steel
10
55.9735
20
17.2174
40
0.1
1
199.1
50
90
41
1
7
STRUDS_Arial
72
2
11
55.9735
21
17.2174
0
TEXT
  8
XMidBottom_Steel
10
56.7391
20
18.6635
40
0.1
1
96.1
50
90
41
1
7
STRUDS_Arial
72
1
11
56.7391
21
18.6635
0
TEXT
  8
XLeftTop_Steel
10
55.9735
20
17.5236
40
0.1
1
282.3
50
90
41
1
7
STRUDS_Arial
72
0
11
55.9735
21
17.5236
0
TEXT
  8
XRightTop_Steel
10
55.9735
20
19.8885
40
0.1
1
218.3
50
90
41
1
7
STRUDS_Arial
72
2
11
55.9735
21
19.8885
0
TEXT
  8
XMidBottom_Steel
10
56.7391
20
22.5255
40
0.1
1
268.4
50
90
41
1
7
STRUDS_Arial
72
1
11
56.7391
21
22.5255
0
TEXT
  8
XLeftTop_Steel
10
55.9735
20
20.1947
40
0.1
1
156.0
50
90
41
1
7
STRUDS_Arial
72
0
11
55.9735
21
20.1947
0
TEXT
  8
XRightTop_Steel
10
55.9735
20
24.9074
40
0.1
1
346.4
50
90
41
1
7
STRUDS_Arial
72
2
11
55.9735
21
24.9074
0
TEXT
  8
XMidBottom_Steel
10
56.7391
20
27.5614
40
0.1
1
178.6
50
90
41
1
7
STRUDS_Arial
72
1
11
56.7391
21
27.5614
0
TEXT
  8
XLeftTop_Steel
10
55.9735
20
25.2136
40
0.1
1
348.6
50
90
41
1
7
STRUDS_Arial
72
0
11
55.9735
21
25.2136
0
TEXT
  8
XRightTop_Steel
10
55.9735
20
29.9433
40
0.1
1
299.3
50
90
41
1
7
STRUDS_Arial
72
2
11
55.9735
21
29.9433
0
TEXT
  8
XMidBottom_Steel
10
56.7391
20
32.5803
40
0.1
1
169.3
50
90
41
1
7
STRUDS_Arial
72
1
11
56.7391
21
32.5803
0
TEXT
  8
XLeftTop_Steel
10
55.9735
20
30.2495
40
0.1
1
278.2
50
90
41
1
7
STRUDS_Arial
72
0
11
55.9735
21
30.2495
0
TEXT
  8
XRightTop_Steel
10
55.9735
20
34.9962
40
0.1
1
290.2
50
90
41
1
7
STRUDS_Arial
72
2
11
55.9735
21
34.9962
0
TEXT
  8
XMidBottom_Steel
10
56.7391
20
37.5992
40
0.1
1
175.0
50
90
41
1
7
STRUDS_Arial
72
1
11
56.7391
21
37.5992
0
TEXT
  8
XLeftTop_Steel
10
55.9735
20
35.2684
40
0.1
1
276.4
50
90
41
1
7
STRUDS_Arial
72
0
11
55.9735
21
35.2684
0
TEXT
  8
XRightTop_Steel
10
55.9735
20
39.9981
40
0.1
1
266.8
50
90
41
1
7
STRUDS_Arial
72
2
11
55.9735
21
39.9981
0
TEXT
  8
XMidBottom_Steel
10
56.7391
20
42.6352
40
0.1
1
244.7
50
90
41
1
7
STRUDS_Arial
72
1
11
56.7391
21
42.6352
0
TEXT
  8
XLeftTop_Steel
10
55.9735
20
40.3214
40
0.1
1
302.1
50
90
41
1
7
STRUDS_Arial
72
0
11
55.9735
21
40.3214
0
TEXT
  8
XRightTop_Steel
10
55.9735
20
45.051
40
0.1
1
318.3
50
90
41
1
7
STRUDS_Arial
72
2
11
55.9735
21
45.051
0
TEXT
  8
XMidBottom_Steel
10
59.5974
20
46.4972
40
0.1
1
183.9
50
90
41
1
7
STRUDS_Arial
72
1
11
59.5974
21
46.4972
0
TEXT
  8
XLeftTop_Steel
10
58.8318
20
45.3403
40
0.1
1
270.8
50
90
41
1
7
STRUDS_Arial
72
0
11
58.8318
21
45.3403
0
TEXT
  8
XRightTop_Steel
10
58.8318
20
47.7221
40
0.1
1
1384.7
50
90
41
1
7
STRUDS_Arial
72
2
11
58.8318
21
47.7221
0
TEXT
  8
XMidBottom_Steel
10
59.5974
20
51.6011
40
0.1
1
1302.9
50
90
41
1
7
STRUDS_Arial
72
1
11
59.5974
21
51.6011
0
TEXT
  8
XLeftTop_Steel
10
58.8318
20
48.0113
40
0.1
1
1287.2
50
90
41
1
7
STRUDS_Arial
72
0
11
58.8318
21
48.0113
0
TEXT
  8
XRightTop_Steel
10
58.8318
20
55.259
40
0.1
1
505.8
50
90
41
1
7
STRUDS_Arial
72
2
11
58.8318
21
55.259
0
TEXT
  8
XMidBottom_Steel
10
61.3327
20
10.0378
40
0.1
1
565.4
50
90
41
1
7
STRUDS_Arial
72
1
11
61.3327
21
10.0378
0
TEXT
  8
XLeftTop_Steel
10
60.5671
20
7.77505
40
0.1
1
64.8
50
90
41
1
7
STRUDS_Arial
72
0
11
60.5671
21
7.77505
0
TEXT
  8
XRightTop_Steel
10
60.5671
20
12.3516
40
0.1
1
0.0
50
90
41
1
7
STRUDS_Arial
72
2
11
60.5671
21
12.3516
0
TEXT
  8
XMidBottom_Steel
10
61.3327
20
14.9036
40
0.1
1
437.0
50
90
41
1
7
STRUDS_Arial
72
1
11
61.3327
21
14.9036
0
TEXT
  8
XLeftTop_Steel
10
60.5671
20
12.6408
40
0.1
1
0.0
50
90
41
1
7
STRUDS_Arial
72
0
11
60.5671
21
12.6408
0
TEXT
  8
XRightTop_Steel
10
60.5671
20
17.2174
40
0.1
1
427.5
50
90
41
1
7
STRUDS_Arial
72
2
11
60.5671
21
17.2174
0
TEXT
  8
XMidBottom_Steel
10
61.3327
20
18.6635
40
0.1
1
0.0
50
90
41
1
7
STRUDS_Arial
72
1
11
61.3327
21
18.6635
0
TEXT
  8
XLeftTop_Steel
10
60.5671
20
17.5236
40
0.1
1
372.8
50
90
41
1
7
STRUDS_Arial
72
0
11
60.5671
21
17.5236
0
TEXT
  8
XRightTop_Steel
10
60.5671
20
19.8885
40
0.1
1
545.0
50
90
41
1
7
STRUDS_Arial
72
2
11
60.5671
21
19.8885
0
TEXT
  8
XMidBottom_Steel
10
61.3327
20
22.5255
40
0.1
1
111.7
50
90
41
1
7
STRUDS_Arial
72
1
11
61.3327
21
22.5255
0
TEXT
  8
XLeftTop_Steel
10
60.5671
20
20.1947
40
0.1
1
533.6
50
90
41
1
7
STRUDS_Arial
72
0
11
60.5671
21
20.1947
0
TEXT
  8
XRightTop_Steel
10
60.5671
20
24.9074
40
0.1
1
234.9
50
90
41
1
7
STRUDS_Arial
72
2
11
60.5671
21
24.9074
0
TEXT
  8
XMidBottom_Steel
10
61.3327
20
27.5614
40
0.1
1
226.1
50
90
41
1
7
STRUDS_Arial
72
1
11
61.3327
21
27.5614
0
TEXT
  8
XLeftTop_Steel
10
60.5671
20
25.2136
40
0.1
1
253.8
50
90
41
1
7
STRUDS_Arial
72
0
11
60.5671
21
25.2136
0
TEXT
  8
XRightTop_Steel
10
60.5671
20
29.9433
40
0.1
1
264.1
50
90
41
1
7
STRUDS_Arial
72
2
11
60.5671
21
29.9433
0
TEXT
  8
XMidBottom_Steel
10
61.3327
20
32.5803
40
0.1
1
214.6
50
90
41
1
7
STRUDS_Arial
72
1
11
61.3327
21
32.5803
0
TEXT
  8
XLeftTop_Steel
10
60.5671
20
30.2495
40
0.1
1
272.0
50
90
41
1
7
STRUDS_Arial
72
0
11
60.5671
21
30.2495
0
TEXT
  8
XRightTop_Steel
10
60.5671
20
34.9962
40
0.1
1
266.1
50
90
41
1
7
STRUDS_Arial
72
2
11
60.5671
21
34.9962
0
TEXT
  8
XMidBottom_Steel
10
61.3327
20
37.5992
40
0.1
1
305.5
50
90
41
1
7
STRUDS_Arial
72
1
11
61.3327
21
37.5992
0
TEXT
  8
XLeftTop_Steel
10
60.5671
20
35.2684
40
0.1
1
268.9
50
90
41
1
7
STRUDS_Arial
72
0
11
60.5671
21
35.2684
0
TEXT
  8
XRightTop_Steel
10
60.5671
20
39.9981
40
0.1
1
94.9
50
90
41
1
7
STRUDS_Arial
72
2
11
60.5671
21
39.9981
0
TEXT
  8
XMidBottom_Steel
10
61.3327
20
42.6352
40
0.1
1
404.8
50
90
41
1
7
STRUDS_Arial
72
1
11
61.3327
21
42.6352
0
TEXT
  8
XLeftTop_Steel
10
60.5671
20
40.3214
40
0.1
1
71.6
50
90
41
1
7
STRUDS_Arial
72
0
11
60.5671
21
40.3214
0
TEXT
  8
XRightTop_Steel
10
60.5671
20
45.051
40
0.1
1
102.6
50
90
41
1
7
STRUDS_Arial
72
2
11
60.5671
21
45.051
0
TEXT
  8
XMidBottom_Steel
10
65.9263
20
10.0378
40
0.1
1
272.8
50
90
41
1
7
STRUDS_Arial
72
1
11
65.9263
21
10.0378
0
TEXT
  8
XLeftTop_Steel
10
65.1607
20
7.77505
40
0.1
1
136.4
50
90
41
1
7
STRUDS_Arial
72
0
11
65.1607
21
7.77505
0
TEXT
  8
XRightTop_Steel
10
65.1607
20
12.3516
40
0.1
1
161.4
50
90
41
1
7
STRUDS_Arial
72
2
11
65.1607
21
12.3516
0
TEXT
  8
XMidBottom_Steel
10
65.9263
20
14.9036
40
0.1
1
202.1
50
90
41
1
7
STRUDS_Arial
72
1
11
65.9263
21
14.9036
0
TEXT
  8
XLeftTop_Steel
10
65.1607
20
12.6408
40
0.1
1
153.7
50
90
41
1
7
STRUDS_Arial
72
0
11
65.1607
21
12.6408
0
TEXT
  8
XRightTop_Steel
10
65.1607
20
17.2174
40
0.1
1
207.0
50
90
41
1
7
STRUDS_Arial
72
2
11
65.1607
21
17.2174
0
TEXT
  8
XMidBottom_Steel
10
65.9263
20
18.6635
40
0.1
1
0.0
50
90
41
1
7
STRUDS_Arial
72
1
11
65.9263
21
18.6635
0
TEXT
  8
XLeftTop_Steel
10
65.1607
20
17.5236
40
0.1
1
174.3
50
90
41
1
7
STRUDS_Arial
72
0
11
65.1607
21
17.5236
0
TEXT
  8
XRightTop_Steel
10
65.1607
20
19.8885
40
0.1
1
200.9
50
90
41
1
7
STRUDS_Arial
72
2
11
65.1607
21
19.8885
0
TEXT
  8
XMidBottom_Steel
10
65.9263
20
22.5255
40
0.1
1
133.9
50
90
41
1
7
STRUDS_Arial
72
1
11
65.9263
21
22.5255
0
TEXT
  8
XLeftTop_Steel
10
65.1607
20
20.1947
40
0.1
1
212.5
50
90
41
1
7
STRUDS_Arial
72
0
11
65.1607
21
20.1947
0
TEXT
  8
XRightTop_Steel
10
65.1607
20
24.9074
40
0.1
1
197.8
50
90
41
1
7
STRUDS_Arial
72
2
11
65.1607
21
24.9074
0
TEXT
  8
XMidBottom_Steel
10
65.9263
20
27.5614
40
0.1
1
133.0
50
90
41
1
7
STRUDS_Arial
72
1
11
65.9263
21
27.5614
0
TEXT
  8
XLeftTop_Steel
10
65.1607
20
25.2136
40
0.1
1
203.4
50
90
41
1
7
STRUDS_Arial
72
0
11
65.1607
21
25.2136
0
TEXT
  8
XRightTop_Steel
10
65.1607
20
29.9433
40
0.1
1
195.2
50
90
41
1
7
STRUDS_Arial
72
2
11
65.1607
21
29.9433
0
TEXT
  8
XMidBottom_Steel
10
65.9263
20
32.5803
40
0.1
1
123.2
50
90
41
1
7
STRUDS_Arial
72
1
11
65.9263
21
32.5803
0
TEXT
  8
XLeftTop_Steel
10
65.1607
20
30.2495
40
0.1
1
187.0
50
90
41
1
7
STRUDS_Arial
72
0
11
65.1607
21
30.2495
0
TEXT
  8
XRightTop_Steel
10
65.1607
20
34.9962
40
0.1
1
178.1
50
90
41
1
7
STRUDS_Arial
72
2
11
65.1607
21
34.9962
0
TEXT
  8
XMidBottom_Steel
10
65.9263
20
37.5992
40
0.1
1
145.0
50
90
41
1
7
STRUDS_Arial
72
1
11
65.9263
21
37.5992
0
TEXT
  8
XLeftTop_Steel
10
65.1607
20
35.2684
40
0.1
1
183.1
50
90
41
1
7
STRUDS_Arial
72
0
11
65.1607
21
35.2684
0
TEXT
  8
XRightTop_Steel
10
65.1607
20
39.9981
40
0.1
1
173.0
50
90
41
1
7
STRUDS_Arial
72
2
11
65.1607
21
39.9981
0
TEXT
  8
XMidBottom_Steel
10
65.9263
20
42.6352
40
0.1
1
200.0
50
90
41
1
7
STRUDS_Arial
72
1
11
65.9263
21
42.6352
0
TEXT
  8
XLeftTop_Steel
10
65.1607
20
40.3214
40
0.1
1
225.2
50
90
41
1
7
STRUDS_Arial
72
0
11
65.1607
21
40.3214
0
TEXT
  8
XRightTop_Steel
10
65.1607
20
45.051
40
0.1
1
297.7
50
90
41
1
7
STRUDS_Arial
72
2
11
65.1607
21
45.051
0
TEXT
  8
XMidBottom_Steel
10
65.9263
20
46.4972
40
0.1
1
0.0
50
90
41
1
7
STRUDS_Arial
72
1
11
65.9263
21
46.4972
0
TEXT
  8
XLeftTop_Steel
10
65.1607
20
45.3403
40
0.1
1
343.9
50
90
41
1
7
STRUDS_Arial
72
0
11
65.1607
21
45.3403
0
TEXT
  8
XRightTop_Steel
10
65.1607
20
47.7221
40
0.1
1
641.2
50
90
41
1
7
STRUDS_Arial
72
2
11
65.1607
21
47.7221
0
TEXT
  8
XMidBottom_Steel
10
65.9263
20
51.6011
40
0.1
1
977.2
50
90
41
1
7
STRUDS_Arial
72
1
11
65.9263
21
51.6011
0
TEXT
  8
XLeftTop_Steel
10
65.1607
20
48.0113
40
0.1
1
716.3
50
90
41
1
7
STRUDS_Arial
72
0
11
65.1607
21
48.0113
0
TEXT
  8
XRightTop_Steel
10
65.1607
20
55.259
40
0.1
1
387.9
50
90
41
1
7
STRUDS_Arial
72
2
11
65.1607
21
55.259
0
TEXT
  8
Title
10
48.689
20
-4.25
40
0.1
1
THEORITICAL AREA OF STEEL
50
0
41
1
7
STRUDS_Arial
72
1
11
48.689
21
-4.25
 0
ENDSEC
  0
EOF
